<?xml version="1.0" encoding="utf-8"?>
<!-- Generator: Adobe Illustrator 25.0.0, SVG Export Plug-In . SVG Version: 6.00 Build 0)  -->
<svg version="1.1" id="圖層_1" xmlns="http://www.w3.org/2000/svg" xmlns:xlink="http://www.w3.org/1999/xlink" x="0px" y="0px"
	 viewBox="0 0 82.4 82.4" style="enable-background:new 0 0 82.4 82.4;" xml:space="preserve">
<style type="text/css">
	.st0{opacity:0.4;fill:url(#SVGID_1_);}
	.st1{fill:#A9AFB6;}
	.st2{fill:#878E95;}
	.st3{fill:#F7F9FB;}
	.st4{opacity:0.52;}
	.st5{fill:none;stroke:#FFFFFF;stroke-width:1.1168;stroke-linecap:round;stroke-linejoin:round;stroke-miterlimit:10;}
	.st6{fill:#E5E6ED;}
	.st7{opacity:0.1;fill:#0F142D;}
</style>
<linearGradient id="SVGID_1_" gradientUnits="userSpaceOnUse" x1="41.5708" y1="0" x2="41.5708" y2="81.7415">
	<stop  offset="0" style="stop-color:#75777E"/>
	<stop  offset="0.5523" style="stop-color:#BDC1C8"/>
	<stop  offset="1" style="stop-color:#F7FAFB"/>
</linearGradient>
<circle class="st0" cx="41.6" cy="40.9" r="40.9"/>
<path class="st1" d="M60.2,50.4H22.8c-0.9,0-1.7-0.8-1.7-1.7V21.4h40.8v27.3C61.9,49.7,61.2,50.4,60.2,50.4z"/>
<polygon class="st2" points="15.6,36.5 21.1,36.5 21.1,21.4 15.6,26.4 "/>
<polygon class="st2" points="67.5,36.5 61.9,36.5 61.9,21.4 67.5,26.4 "/>
<path class="st3" d="M65.3,59.9H17.8c-1.2,0-2.2-1-2.2-2.2V26.4h51.9v31.3C67.5,58.9,66.5,59.9,65.3,59.9z"/>
<path class="st1" d="M47.7,34.1H35.4c-1.2,0-2.2-1-2.2-2.2l0,0c0-1.2,1-2.2,2.2-2.2h12.3c1.2,0,2.2,1,2.2,2.2l0,0
	C49.9,33.1,48.9,34.1,47.7,34.1z"/>
<g>
	<path class="st2" d="M34.1,44.6L34.1,44.6c-0.9,0-1.7-0.8-1.7-1.7l0,0c0-0.9,0.8-1.7,1.7-1.7l0,0c0.9,0,1.7,0.8,1.7,1.7l0,0
		C35.7,43.8,35,44.6,34.1,44.6z"/>
	<path class="st2" d="M49,44.6L49,44.6c-0.9,0-1.7-0.8-1.7-1.7l0,0c0-0.9,0.8-1.7,1.7-1.7l0,0c0.9,0,1.7,0.8,1.7,1.7l0,0
		C50.6,43.8,49.9,44.6,49,44.6z"/>
</g>
<g class="st4">
	<line class="st5" x1="54.8" y1="10.8" x2="54.8" y2="15.3"/>
	<line class="st5" x1="48.6" y1="13.2" x2="51.8" y2="16.4"/>
	<line class="st5" x1="60.9" y1="13.5" x2="57.7" y2="16.7"/>
</g>
<g>
	<ellipse class="st6" cx="28.1" cy="47.6" rx="2.2" ry="1.1"/>
	<ellipse class="st6" cx="54.9" cy="47.6" rx="2.2" ry="1.1"/>
</g>
<g>
	<path class="st2" d="M38.1,49.3c-0.2,0-0.4-0.1-0.5-0.2c-0.4-0.3-0.4-0.8-0.1-1.2c1-1.2,2.5-1.9,4.1-1.9c1.6,0,3.1,0.7,4.1,1.9
		c0.3,0.4,0.2,0.9-0.1,1.2c-0.4,0.3-0.9,0.2-1.2-0.1c-0.7-0.8-1.7-1.3-2.8-1.3c-1.1,0-2.1,0.5-2.8,1.3
		C38.6,49.2,38.3,49.3,38.1,49.3z"/>
</g>
<ellipse class="st7" cx="40.5" cy="67.8" rx="15.3" ry="1.4"/>
</svg>
