<?xml version="1.0" encoding="utf-8"?>
<!-- Generator: Adobe Illustrator 27.1.1, SVG Export Plug-In . SVG Version: 6.00 Build 0)  -->
<svg version="1.1" id="_圖層_2" xmlns="http://www.w3.org/2000/svg" xmlns:xlink="http://www.w3.org/1999/xlink" x="0px" y="0px"
	 viewBox="0 0 192 192" style="enable-background:new 0 0 192 192;" xml:space="preserve">
<style type="text/css">
	.st0{fill:url(#SVGID_1_);}
	.st1{fill:#C6CACC;}
	.st2{fill:url(#SVGID_00000131362204339810262220000004598964994480405942_);}
	.st3{fill:url(#SVGID_00000013172669891630807370000009815221582295817387_);}
	.st4{fill:url(#SVGID_00000089562745572975572270000006351870060530728378_);}
	.st5{clip-path:url(#SVGID_00000039835666106273523450000017482642907503701647_);}
	.st6{fill:#F7F9FC;}
	.st7{clip-path:url(#SVGID_00000125574728959453533290000016169452123858640051_);}
	
		.st8{clip-path:url(#SVGID_00000160166827701706034530000007487684293705192617_);fill:url(#SVGID_00000016781901227965903800000005780678702626411672_);}
	.st9{fill:#868D94;}
	.st10{fill:url(#SVGID_00000018230005239656003060000010615675674600877489_);}
</style>
<linearGradient id="SVGID_1_" gradientUnits="userSpaceOnUse" x1="96" y1="-648.51" x2="96" y2="-459.71" gradientTransform="matrix(1 0 0 -1 0 -458.11)">
	<stop  offset="0" style="stop-color:#FFFFFF"/>
	<stop  offset="1" style="stop-color:#C7C9CB"/>
</linearGradient>
<circle class="st0" cx="96" cy="96" r="94.4"/>
<g>
	<path class="st1" d="M90.2,160.7l-68.9-24.2c-0.6-0.2-0.9-0.7-1-1.3l-0.1-4.1l76-22.7l76.8,24.7l0.1,4.6c0,0.5-0.3,1-0.8,1.2
		l-68.6,22C99.3,162.3,94.6,162.2,90.2,160.7z"/>
	
		<linearGradient id="SVGID_00000078044289149097331800000004251653764650370487_" gradientUnits="userSpaceOnUse" x1="107.1335" y1="786.7727" x2="40.4952" y2="757.6663" gradientTransform="matrix(1 0 0 1 0 -650)">
		<stop  offset="0" style="stop-color:#84898F"/>
		<stop  offset="0.95" style="stop-color:#BFC1C4"/>
		<stop  offset="1" style="stop-color:#C1C3C5"/>
	</linearGradient>
	<path style="fill:url(#SVGID_00000078044289149097331800000004251653764650370487_);" d="M90.2,156.6l-68.8-23.9
		c-1.6-0.6-1.7-2.9-0.1-3.4l74.8-24l75.6,26.3c1.6,0.6,1.7,2.9,0.1,3.4l-68.1,21.8C99.3,158.2,94.6,158.1,90.2,156.6z"/>
	
		<linearGradient id="SVGID_00000177473764303925087980000005829856746598182042_" gradientUnits="userSpaceOnUse" x1="96.5019" y1="677.2" x2="96.5019" y2="788.8" gradientTransform="matrix(1 0 0 1 0 -650)">
		<stop  offset="0" style="stop-color:#E0DEE6"/>
		<stop  offset="0.2244" style="stop-color:#CED0D4"/>
		<stop  offset="0.4022" style="stop-color:#C6CACC"/>
	</linearGradient>
	<path style="fill:url(#SVGID_00000177473764303925087980000005829856746598182042_);" d="M93.3,27.2c-4.3,0-8.2,2.7-9.6,6.8
		l-32.3,94.1c-0.2,0.7-0.2,1.4-0.1,2c-0.1,0.2-0.1,0.4-0.1,0.6c0,4.5,20.2,8.1,45.1,8.1c23.4,0,42.6-3.2,44.8-7.3
		c0.7-0.9,0.9-2.2,0.5-3.4L109.3,34c-1.4-4.1-5.2-6.8-9.6-6.8H93.3z"/>
	
		<linearGradient id="SVGID_00000122700765592424177370000015619231250988219298_" gradientUnits="userSpaceOnUse" x1="96.5019" y1="677.2" x2="96.5019" y2="792.89" gradientTransform="matrix(1 0 0 1 0 -650)">
		<stop  offset="0" style="stop-color:#E0DEE6"/>
		<stop  offset="0.2244" style="stop-color:#CED0D4"/>
		<stop  offset="0.4022" style="stop-color:#C6CACC"/>
	</linearGradient>
	<path style="fill:url(#SVGID_00000122700765592424177370000015619231250988219298_);" d="M93.3,27.2c-4.3,0-8.2,2.7-9.6,6.8
		l-32.3,94.1c-0.2,0.7-0.2,1.4-0.1,2c-0.1,0.2-0.1,0.4-0.1,0.6c0,4.5,19.9,12.2,44.8,12.2c23.4,0,42.9-7.3,45.1-11.4
		c0.7-0.9,0.9-2.2,0.5-3.4L109.3,34c-1.4-4.1-5.2-6.8-9.6-6.8H93.3z"/>
	<g>
		<g>
			<g>
				<defs>
					<path id="SVGID_00000153665333007617416260000011292624211523395748_" d="M93.3,27.2c-4.3,0-8.2,2.7-9.6,6.8l-32.3,94.1
						c-0.2,0.7-0.2,1.4-0.1,2c-0.1,0.2-0.1,0.4-0.1,0.6c0,4.5,20.2,8.1,45.1,8.1c23.4,0,42.6-3.2,44.8-7.3c0.7-0.9,0.9-2.2,0.5-3.4
						L109.3,34c-1.4-4.1-5.2-6.8-9.6-6.8H93.3z"/>
				</defs>
				<clipPath id="SVGID_00000152232718094988868070000015209814598359262366_">
					<use xlink:href="#SVGID_00000153665333007617416260000011292624211523395748_"  style="overflow:visible;"/>
				</clipPath>
				<g style="clip-path:url(#SVGID_00000152232718094988868070000015209814598359262366_);">
					<path class="st6" d="M169.8,77.7c-51.2,1.2-98.5-12.5-136.9-36c3.7-5.3,7.2-10.7,10.6-16.2c35.6,21.6,79.9,34.2,127.9,32.6
						C171.1,64.7,170.5,71.2,169.8,77.7z"/>
				</g>
			</g>
		</g>
		<g>
			<g>
				<defs>
					<path id="SVGID_00000109747412418187021240000004697156168357204654_" d="M93.3,27.2c-4.3,0-8.2,2.7-9.6,6.8l-32.3,94.1
						c-0.2,0.7-0.2,1.4-0.1,2c-0.1,0.2-0.1,0.4-0.1,0.6c0,4.5,20.6,10.5,45.5,10.5c23.4,0,42.2-5.6,44.4-9.7
						c0.7-0.9,0.9-2.2,0.5-3.4L109.3,34c-1.4-4.1-5.2-6.8-9.6-6.8H93.3z"/>
				</defs>
				<clipPath id="SVGID_00000067945436039943164510000004737224500213297545_">
					<use xlink:href="#SVGID_00000109747412418187021240000004697156168357204654_"  style="overflow:visible;"/>
				</clipPath>
				<g style="clip-path:url(#SVGID_00000067945436039943164510000004737224500213297545_);">
					<path class="st6" d="M175.7,118C115.9,119.4,60.8,103.4,16,76c4.3-6.2,8.4-12.5,12.4-18.9C70,82.3,121.6,97,177.6,95.2
						C177.2,102.8,176.5,110.4,175.7,118z"/>
				</g>
			</g>
		</g>
	</g>
	<g>
		<defs>
			<path id="SVGID_00000179606873865180979720000009489733564286456760_" d="M93.3,27.2c-4.3,0-8.2,2.7-9.6,6.8l-32.3,94.1
				c-0.2,0.7-0.2,1.4-0.1,2c-0.1,0.2-0.1,0.4-0.1,0.6c0,4.5,19.9,12.2,44.8,12.2c23.4,0,42.9-7.3,45.1-11.4c0.7-0.9,0.9-2.2,0.5-3.4
				L109.3,34c-1.4-4.1-5.2-6.8-9.6-6.8H93.3z"/>
		</defs>
		<clipPath id="SVGID_00000010283189661083417270000006901097085308783236_">
			<use xlink:href="#SVGID_00000179606873865180979720000009489733564286456760_"  style="overflow:visible;"/>
		</clipPath>
		
			<radialGradient id="SVGID_00000005964582868207632400000007704342098690444174_" cx="149.4047" cy="131.2249" r="117.5633" gradientTransform="matrix(1.021 0 0 1.041 -5.3077 -8.8132)" gradientUnits="userSpaceOnUse">
			<stop  offset="0.1006" style="stop-color:#84898F"/>
			<stop  offset="0.2243" style="stop-color:#8B8F95;stop-opacity:0.7692"/>
			<stop  offset="0.4023" style="stop-color:#9EA2A6;stop-opacity:0.4374"/>
			<stop  offset="0.6121" style="stop-color:#BDBFC1;stop-opacity:4.613519e-02"/>
			<stop  offset="0.6369" style="stop-color:#C1C3C5;stop-opacity:0"/>
		</radialGradient>
		
			<rect x="49.2" y="20.5" style="clip-path:url(#SVGID_00000010283189661083417270000006901097085308783236_);fill:url(#SVGID_00000005964582868207632400000007704342098690444174_);" width="203.3" height="194.4"/>
	</g>
	<g>
		<path class="st9" d="M90.6,103.6c-0.3,0-0.7-0.1-0.9-0.3c-0.6-0.5-0.7-1.4-0.2-2c0.1-0.1,2.9-3.3,6.9-3.4c2.5-0.1,5,1,7.2,3.3
			c0.6,0.6,0.5,1.5,0,2c-0.6,0.6-1.5,0.5-2,0c-1.6-1.7-3.3-2.5-5-2.5c-2.7,0.1-4.8,2.4-4.8,2.4C91.4,103.5,91,103.6,90.6,103.6
			L90.6,103.6z"/>
		<circle class="st9" cx="79.2" cy="93.2" r="4"/>
		<circle class="st9" cx="113.9" cy="93.2" r="4"/>
	</g>
	
		<linearGradient id="SVGID_00000138568278663174535150000009507937573725827462_" gradientUnits="userSpaceOnUse" x1="96.6" y1="29.5283" x2="96.6" y2="33.2222">
		<stop  offset="0" style="stop-color:#84898F"/>
		<stop  offset="1" style="stop-color:#515457"/>
	</linearGradient>
	<ellipse style="fill:url(#SVGID_00000138568278663174535150000009507937573725827462_);" cx="96.6" cy="31.3" rx="6.7" ry="1.8"/>
</g>
</svg>
