<?xml version="1.0" encoding="utf-8"?>
<!-- Generator: Adobe Illustrator 24.3.0, SVG Export Plug-In . SVG Version: 6.00 Build 0)  -->
<svg version="1.1" id="圖層_1" xmlns="http://www.w3.org/2000/svg" xmlns:xlink="http://www.w3.org/1999/xlink" x="0px" y="0px"
	 viewBox="0 0 500 300" style="enable-background:new 0 0 500 300;" xml:space="preserve">
<style type="text/css">
	.st0{fill:url(#SVGID_1_);}
	.st1{fill:url(#SVGID_2_);}
	.st2{opacity:0.2;fill:#333333;enable-background:new    ;}
	.st3{clip-path:url(#SVGID_4_);fill:url(#SVGID_5_);}
	.st4{fill:#FFFFFF;}
	.st5{fill:#333333;}
	.st6{fill:#CCCCCC;}
	.st7{fill:none;stroke:#333333;stroke-width:2.9714;stroke-miterlimit:10;stroke-dasharray:3.0162,1.5081;}
	.st8{fill:none;stroke:#333333;stroke-width:2.9714;stroke-miterlimit:10;stroke-dasharray:2.9714,0.7429;}
	.st9{fill:none;stroke:#333333;stroke-width:2.9714;stroke-miterlimit:10;stroke-dasharray:1.4857,0.7429;}
	.st10{fill:none;stroke:#FFFFFF;stroke-width:3.7143;stroke-linecap:round;stroke-linejoin:round;}
	.st11{fill:url(#SVGID_6_);}
</style>
<linearGradient id="SVGID_1_" gradientUnits="userSpaceOnUse" x1="414.7963" y1="251.7867" x2="415.7963" y2="55.7867">
	<stop  offset="0" style="stop-color:#1A1A1A"/>
	<stop  offset="1" style="stop-color:#4D4D4D"/>
</linearGradient>
<path class="st0" d="M421.9,51.6C417.8,64,410.3,74.8,399.3,84c-6.2,5.3-12.2,9.6-17.9,12.9c3.9,9.3,6.8,19.2,8.5,29.4
	c9.2-5.4,17.7-11.9,25.3-19.6V260H449V51.6H421.9z"/>
<linearGradient id="SVGID_2_" gradientUnits="userSpaceOnUse" x1="613.6" y1="785.6398" x2="724.7" y2="785.6398" gradientTransform="matrix(1 0 0 1 0 -539.8898)">
	<stop  offset="0" style="stop-color:#1A1A1A"/>
	<stop  offset="1" style="stop-color:#4D4D4D"/>
</linearGradient>
<path class="st1" d="M698.1,268.7V141.3h-37.8l-40.2,63.2c2.9,11.2,4.4,23,4.4,35.1c0,2.4-0.1,4.9-0.2,7.3l26.9-41.2
	c6-10.8,11.6-21.6,16.7-32.1h1.1c-0.6,11.4-1.7,29-1.7,40.3v54.8h-45.9c-1.8,8.7-4.5,17.2-7.8,25.3h53.7v56.2H698V294h26.7v-25.3
	H698.1z"/>
<g>
	<g>
		<circle class="st2" cx="254" cy="150" r="130"/>
		<g>
			<g>
				<g>
					<defs>
						<circle id="SVGID_3_" cx="254" cy="150" r="130"/>
					</defs>
					<clipPath id="SVGID_4_">
						<use xlink:href="#SVGID_3_"  style="overflow:visible;"/>
					</clipPath>
					
						<linearGradient id="SVGID_5_" gradientUnits="userSpaceOnUse" x1="216.6407" y1="662.3819" x2="336.9836" y2="781.239" gradientTransform="matrix(1 0 0 1 0 -539.8898)">
						<stop  offset="0" style="stop-color:#666666;stop-opacity:0.3"/>
						<stop  offset="1" style="stop-color:#666666;stop-opacity:0"/>
					</linearGradient>
					<polygon class="st3" points="271.2,309.6 180.8,216.5 197.1,143.5 258.1,94.6 332.4,103.6 404.8,176 					"/>
				</g>
			</g>
		</g>
		<g>
			<g>
				<g>
					<g>
						<path class="st4" d="M191.2,214.9c-5.1,0-9.3-4.2-9.3-9.3v-98.8c0-5.1,4.2-9.3,9.3-9.3h126.3c5.1,0,9.3,4.2,9.3,9.3v98.8
							c0,5.1-4.2,9.3-9.3,9.3H191.2z"/>
						<path class="st5" d="M317.5,103.1c2,0,3.7,1.7,3.7,3.7v98.8c0,2-1.7,3.7-3.7,3.7H191.2c-2,0-3.7-1.7-3.7-3.7v-98.8
							c0-2,1.7-3.7,3.7-3.7L317.5,103.1 M317.5,91.9H191.2c-8.2,0-14.9,6.7-14.9,14.9v98.8c0,8.2,6.7,14.9,14.9,14.9h126.3
							c8.2,0,14.9-6.7,14.9-14.9v-98.8C332.4,98.6,325.7,91.9,317.5,91.9L317.5,91.9z"/>
					</g>
					<circle class="st6" cx="198.3" cy="108.4" r="6.2"/>
					<path class="st5" d="M319,93.4H187.5c-5.3,0-9.7,4.3-9.7,9.7v18.6h150.8v-18.6C328.7,97.7,324.4,93.4,319,93.4z M198.5,113.3
						c-2.4,0-4.3-1.9-4.3-4.3s1.9-4.3,4.3-4.3s4.3,1.9,4.3,4.3S200.9,113.3,198.5,113.3z M213.7,113.3c-2.4,0-4.3-1.9-4.3-4.3
						s1.9-4.3,4.3-4.3c2.4,0,4.3,1.9,4.3,4.3S216.1,113.3,213.7,113.3z M313.1,109.1c0,2.3-1.9,4.2-4.2,4.2h-78.8
						c-2.3,0-4.2-1.9-4.2-4.2v-0.2c0-2.3,1.9-4.2,4.2-4.2h78.8c2.3,0,4.2,1.9,4.2,4.2V109.1z"/>
				</g>
			</g>
			<g>
				<g>
					<circle class="st7" cx="224.3" cy="161.4" r="8.6"/>
				</g>
				<g>
					<circle class="st7" cx="284.4" cy="161.4" r="8.6"/>
				</g>
				<line class="st8" x1="219.8" y1="141.3" x2="207.2" y2="148.8"/>
				<line class="st8" x1="286.7" y1="141.3" x2="299.3" y2="148.8"/>
				<line class="st9" x1="243.4" y1="183.3" x2="265.6" y2="183.3"/>
			</g>
			<line class="st10" x1="342.9" y1="80.9" x2="335" y2="88.9"/>
			<line class="st10" x1="326.8" y1="71.7" x2="325.7" y2="82.4"/>
			<line class="st10" x1="352.3" y1="96.9" x2="341.6" y2="99"/>
		</g>
	</g>
</g>
<g>
	<g>
		
			<linearGradient id="SVGID_6_" gradientUnits="userSpaceOnUse" x1="78.05" y1="794.4144" x2="78.05" y2="591.1841" gradientTransform="matrix(1 0 0 1 0 -539.8898)">
			<stop  offset="0" style="stop-color:#1A1A1A"/>
			<stop  offset="1" style="stop-color:#4D4D4D"/>
		</linearGradient>
		<path class="st11" d="M151.9,204.4h-26.7v56.2H94.5v-56.2H4.2v-21.9L87.4,51.7h37.8v127.5h26.7V204.4z M94.5,179.1v-54.8
			c0-11.4,1.1-29,1.7-40.3h-1.1c-5.1,10.5-10.8,21.3-16.7,32.1l-41.2,63H94.5z"/>
	</g>
</g>
<text transform="matrix(0.9252 0 0 1 748 226.6359)" style="font-family:'Arial-BoldMT'; font-size:282.9504px;">1</text>
</svg>
