<?xml version="1.0" encoding="utf-8"?>
<!-- Generator: Adobe Illustrator 26.5.1, SVG Export Plug-In . SVG Version: 6.00 Build 0)  -->
<svg version="1.1" id="圖層_1" xmlns="http://www.w3.org/2000/svg" xmlns:xlink="http://www.w3.org/1999/xlink" x="0px" y="0px"
	 viewBox="0 0 676 477.3" style="enable-background:new 0 0 676 477.3;" xml:space="preserve">
<style type="text/css">
	.st0{fill:url(#light_00000171720876218916223100000008856832088764660115_);}
	.st1{fill:#E9F1FB;}
	.st2{fill:#D2E4F7;}
	.st3{fill:#37A2FC;}
	.st4{fill:#A5D6FE;}
	.st5{fill:#0C2F55;}
	.st6{fill:#F5F6FA;}
	.st7{fill:#DDEFFF;}
	.st8{fill:#FB9391;}
	.st9{fill:#060633;}
	.st10{fill:#FFFFFF;}
	.st11{fill:#FA7267;}
	.st12{fill:#EA6868;}
	.st13{fill:#FAFAFC;}
	.st14{fill:#7C9AF2;}
	.st15{fill:#BDD1F9;}
	.st16{fill:#1E76D5;}
	.st17{fill:#485F73;}
	.st18{fill:#0B0755;}
	.st19{fill:#050521;}
	.st20{fill:#DD4E4E;}
	.st21{fill:#185EAA;}
	.st22{fill:#4B91DD;}
	.st23{fill:#E6F4FF;}
	.st24{fill:#BBBFD4;}
	.st25{fill:#1389FC;}
</style>
<g id="pic_login" transform="translate(-367.119 -220)">
	
		<radialGradient id="light_00000050662979750408514100000012125352063696372613_" cx="814.5703" cy="1.2631" r="0.5" gradientTransform="matrix(477 0 0 477 -387831.5 -143.9988)" gradientUnits="userSpaceOnUse">
		<stop  offset="0" style="stop-color:#FFFFFF"/>
		<stop  offset="0.515" style="stop-color:#FFFFFF"/>
		<stop  offset="1" style="stop-color:#FFFFFF;stop-opacity:0"/>
	</radialGradient>
	
		<circle id="light" style="fill:url(#light_00000050662979750408514100000012125352063696372613_);" cx="718.5" cy="458.5" r="238.5"/>
	<g id="shutterstock_1768400198" transform="translate(215.841 119.425)">
		<path id="Path_10177" class="st1" d="M730.8,569.6c59.4,1,96.6-57.9,96.5-94.2c-0.1-39.2-25.5-74-40.5-110.6
			c-13.3-32.4-8.4-69.1-28.9-99.7C733,227.9,677,217,629.3,203.9c-61.6-16.9-126.5-31.9-193-26.1c-46.8,4-92.8,18.8-125.6,44.3
			c-25.8,20.1-42.2,45.5-60.9,69.3c-19.4,24.7-44.4,41-68.5,62.2c-67.6,59.5-9.3,166.6,58.6,210.7
			C239.9,564.4,730.6,569.6,730.8,569.6L730.8,569.6z"/>
		<g id="Group_62335" transform="translate(638.09 290.098)">
			<path id="Path_10178" class="st2" d="M35.2,181.6L35.2,181.6c-0.4-0.1-0.6-0.4-0.5-0.7l0,0C57.4,97,78.6,37.7,94.2,13.9
				c0.3-0.5,0.6-0.9,0.7-1.1c0.1-0.3,0.5-0.4,0.8-0.3c0.3,0.1,0.4,0.5,0.3,0.8c-0.2,0.4-0.5,0.8-0.8,1.2
				C79.6,38.3,58.5,97.4,35.8,181.1C35.7,181.4,35.4,181.6,35.2,181.6L35.2,181.6z"/>
			<path id="Path_10179" class="st2" d="M105.5,9.3C103.6,12,94,17,93.3,16.5c-0.8-0.5,0.6-11.3,2.5-14c1.8-2.7,5.5-3.4,8.2-1.6
				s3.4,5.5,1.6,8.2C105.5,9.2,105.5,9.2,105.5,9.3L105.5,9.3z"/>
			<path id="Path_10180" class="st2" d="M86.9,17.8c1,3.2-0.7,14.1-1.6,14.4c-0.9,0.3-8.8-7.5-9.9-10.6c-1-3.2,0.7-6.6,3.8-7.6
				S85.9,14.6,86.9,17.8z"/>
			<path id="Path_10181" class="st2" d="M99,36.5c-3.3,0.3-13.6-3.9-13.7-4.8s9.3-6.9,12.6-7.2c3.3-0.3,6.3,2.1,6.6,5.5
				C104.8,33.3,102.4,36.2,99,36.5L99,36.5z"/>
			<path id="Path_10182" class="st2" d="M59.9,73.6c2.3,5.1,1.4,23.7-0.1,24.4S43.7,87.1,41.4,82s-0.1-11.1,5-13.4
				S57.5,68.5,59.9,73.6L59.9,73.6L59.9,73.6z"/>
			<path id="Path_10183" class="st2" d="M83.4,102.8c-5.5,1.1-23.4-4-23.7-5.6S73.9,84,79.4,82.9s10.8,2.4,12,7.9
				S89,101.6,83.4,102.8C83.5,102.8,83.5,102.8,83.4,102.8L83.4,102.8z"/>
			<path id="Path_10184" class="st2" d="M45.9,94.8c4.1,5.5,8,27.9,6.5,29.1s-22.1-8.7-26.3-14.1c-4.1-5.5-3.1-13.3,2.4-17.4
				S41.7,89.3,45.9,94.8L45.9,94.8L45.9,94.8z"/>
			<path id="Path_10185" class="st2" d="M79.5,132.9c-6.8,0.7-28-7.8-28.2-9.8s19-14.3,25.8-15c6.8-0.7,12.9,4.3,13.6,11.2
				S86.3,132.2,79.5,132.9L79.5,132.9z"/>
			<path id="Path_10186" class="st2" d="M37.6,122.1c4.1,5.5,8,27.9,6.5,29.1s-22.1-8.7-26.3-14.1c-4.1-5.5-3.1-13.3,2.4-17.4
				S33.4,116.7,37.6,122.1L37.6,122.1z"/>
			<path id="Path_10187" class="st2" d="M71.2,160.2c-6.8,0.7-28-7.8-28.2-9.8s19-14.3,25.8-15s12.9,4.3,13.6,11.2
				S78,159.5,71.2,160.2L71.2,160.2L71.2,160.2z"/>
			<path id="Path_10188" class="st2" d="M18.7,156.7c5.9,3.5,18.1,22.8,17.1,24.5s-23.8,0.4-29.7-3c-5.9-3.5-7.9-11.1-4.4-17
				S12.8,153.2,18.7,156.7z"/>
			<path id="Path_10189" class="st2" d="M63.9,187.2c-6.7,1.5-28.8-4.2-29.2-6.2s17-16.6,23.7-18.1s13.3,2.7,14.8,9.4
				S70.6,185.7,63.9,187.2L63.9,187.2z"/>
			<path id="Path_10190" class="st2" d="M78.6,35.2c1.1,3.2-0.7,14.4-1.6,14.7s-9-7.6-10-10.8c-1.1-3.2,0.6-6.7,3.9-7.8
				C74,30.1,77.5,31.9,78.6,35.2C78.6,35.1,78.6,35.1,78.6,35.2z"/>
			<path id="Path_10191" class="st2" d="M90.4,54.4c-3.4,0.3-13.8-3.9-13.9-4.9s9.4-7,12.8-7.3s6.4,2.2,6.7,5.6
				C96.3,51.2,93.8,54.1,90.4,54.4L90.4,54.4L90.4,54.4z"/>
			<path id="Path_10192" class="st2" d="M69,51.4c1.9,4.4,0.7,20.4-0.6,21s-13.6-9.7-15.5-14.1s0.2-9.6,4.6-11.4
				C62,44.8,67.1,46.9,69,51.4L69,51.4z"/>
			<path id="Path_10193" class="st2" d="M88,78.7c-4.8,0.4-19.6-5.6-19.8-7s13.4-10,18.2-10.4c4.8-0.4,9,3.1,9.5,7.9
				C96.3,74,92.8,78.3,88,78.7L88,78.7z"/>
		</g>
		<g id="Group_62336" transform="translate(189.003 415.057)">
			<path id="Path_10194" class="st2" d="M126.7,92.6c0.2-0.2,0.3-0.5,0.1-0.7c0,0,0,0-0.1-0.1C74.2,46.2,33.6,16.1,12.5,7.2
				c-0.5-0.2-0.8-0.3-1-0.4S11,6.7,10.8,7S10.7,7.5,11,7.7s0.7,0.3,1.1,0.5c21,8.9,61.5,38.9,114,84.5
				C126.3,92.8,126.6,92.8,126.7,92.6z"/>
			<path id="Path_10195" class="st2" d="M3,9.2c2.4,1,11.1,0.1,11.4-0.6S8.9,1.3,6.5,0.3S1.3,0.5,0.3,2.9s0.2,5.2,2.6,6.2
				C2.9,9.1,3,9.1,3,9.2L3,9.2z"/>
			<path id="Path_10196" class="st2" d="M19.2,6.5c0.7,2.6,6.8,9.1,7.5,8.9s2.6-8.9,1.8-11.5c-0.7-2.6-3.4-4.1-6-3.4
				C20,1.3,18.4,4,19.2,6.5L19.2,6.5z"/>
			<path id="Path_10197" class="st2" d="M19.5,24.4c2.4-1.3,7.4-8.7,7-9.3s-9.3-0.5-11.6,0.8c-2.4,1.3-3.2,4.2-2,6.6
				S17.1,25.7,19.5,24.4C19.4,24.5,19.5,24.5,19.5,24.4L19.5,24.4z"/>
			<path id="Path_10198" class="st2" d="M62.1,31.7c0.7,4.4,9.7,16.4,10.9,16.2s5.9-14.4,5.1-18.9c-0.7-4.4-4.9-7.4-9.4-6.7
				S61.4,27.3,62.1,31.7L62.1,31.7L62.1,31.7z"/>
			<path id="Path_10199" class="st2" d="M59.4,61.6c4.2-1.7,13.8-13.1,13.3-14.3s-15.4-2.5-19.5-0.8c-4.2,1.7-6.1,6.5-4.4,10.6
				S55.3,63.3,59.4,61.6L59.4,61.6z"/>
			<path id="Path_10200" class="st2" d="M80.9,39.6c-0.3,5.5,7.1,22.2,8.7,22.3s10.9-15.6,11.2-21.1c0.3-5.5-3.9-10.2-9.4-10.5
				C85.9,29.9,81.2,34.1,80.9,39.6L80.9,39.6z"/>
			<path id="Path_10201" class="st2" d="M75.5,79.9c4.8-2.6,15.2-17.7,14.4-19.1s-19-1.1-23.9,1.5c-4.8,2.7-6.6,8.7-4,13.6
				S70.6,82.5,75.5,79.9L75.5,79.9z"/>
			<path id="Path_10202" class="st2" d="M98.6,54.1c-0.3,5.5,7.1,22.2,8.7,22.3s10.9-15.6,11.2-21.1c0.3-5.5-3.9-10.2-9.4-10.5
				S98.9,48.6,98.6,54.1L98.6,54.1z"/>
			<path id="Path_10203" class="st2" d="M93.2,94.5c4.8-2.6,15.2-17.7,14.4-19.1s-19-1.1-23.9,1.5c-4.8,2.6-6.7,8.6-4.1,13.5
				S88.4,97.1,93.2,94.5z"/>
			<path id="Path_10204" class="st2" d="M126.6,68.7c-2.4,5-1.9,23.2-0.5,23.9s16-10.3,18.4-15.3s0.3-10.9-4.6-13.3
				C135,61.7,129,63.8,126.6,68.7L126.6,68.7L126.6,68.7z"/>
			<path id="Path_10205" class="st2" d="M110.1,109.2c5.1-2,17.3-15.7,16.7-17.1s-18.8-3.4-23.9-1.5c-5.1,2-7.6,7.8-5.6,12.9
				S105,111.2,110.1,109.2L110.1,109.2z"/>
			<path id="Path_10206" class="st2" d="M32.5,14.4c0.7,2.6,6.9,9.3,7.6,9s2.6-9.1,1.9-11.7c-0.7-2.6-3.4-4.2-6-3.5
				C33.3,9,31.7,11.7,32.5,14.4L32.5,14.4L32.5,14.4z"/>
			<path id="Path_10207" class="st2" d="M33.2,32.6c2.4-1.3,7.5-8.8,7.1-9.5s-9.4-0.5-11.8,0.8s-3.3,4.2-2.1,6.7
				c1.3,2.4,4.2,3.3,6.7,2.1C33.1,32.6,33.1,32.6,33.2,32.6L33.2,32.6z"/>
			<path id="Path_10208" class="st2" d="M46.1,20.9c0.7,3.8,8.7,13.9,9.7,13.7s4.7-12.5,4-16.3c-0.8-3.8-4.5-6.2-8.3-5.5
				C47.9,13.6,45.5,17.2,46.1,20.9L46.1,20.9z"/>
			<path id="Path_10209" class="st2" d="M45.6,47.6c3.4-1.8,10.6-12.5,10.1-13.5S42.4,33.5,39,35.3s-4.7,6.1-2.8,9.5
				C38,48.2,42.3,49.5,45.6,47.6L45.6,47.6z"/>
		</g>
		<g id="Group_62337" transform="translate(289.856 366.567)">
			<path id="Path_10210" class="st3" d="M73.6,129.8c0,0,49.4-63.4-72.4-129.3C1.2,0.5-15.2,142.2,73.6,129.8z"/>
			<path id="Path_10211" class="st4" d="M1.1,0.2l77.3,120.6C87,101.3,95.9,51.5,1.1,0.2L1.1,0.2z"/>
			<path id="Path_10212" class="st5" d="M75.1,116c0.1,0,0.2-0.1,0.3-0.2c0-0.1,0-0.1,0-0.2L1.2,0.1C1.2,0,1,0,0.9,0
				c-0.1,0.1-0.1,0.3,0,0.4L75.1,116C75,115.9,75,116,75.1,116L75.1,116z"/>
			<path id="Path_10213" class="st5" d="M39.7,60.8c0.1,0,0.2-0.1,0.3-0.2c0-0.1-0.1-0.2-0.2-0.3l0,0L3,50.3c-0.1,0-0.2,0-0.3,0.2
				l0,0c0,0.1,0,0.3,0.2,0.3l0,0L39.7,60.8L39.7,60.8L39.7,60.8z"/>
			<path id="Path_10214" class="st5" d="M55.5,85.5C55.6,85.5,55.6,85.5,55.5,85.5c0.2,0,0.3-0.1,0.3-0.2L53.2,48
				c0-0.1-0.1-0.2-0.3-0.2c-0.1,0-0.2,0.1-0.2,0.2l2.6,37.3C55.4,85.4,55.4,85.5,55.5,85.5z"/>
		</g>
		<g id="Group_62338" transform="translate(201.866 464.901)">
			<path id="Path_10215" class="st4" d="M157.4,52.7c0,0-14.2-86.6-157.4-37.8C0,14.9,101.5,133.2,157.4,52.7z"/>
			<path id="Path_10216" class="st3" d="M0,14.9l157.4,37.8C157.4,52.7,116,137.5,0,14.9z"/>
			<path id="Path_10217" class="st4" d="M41.3,40.7L41.3,40.7l36.5-8.1c0.3-0.1,0.5-0.3,0.4-0.6c-0.1-0.3-0.3-0.5-0.6-0.4l-36.5,8.1
				c-0.3,0.1-0.5,0.3-0.4,0.6C40.8,40.6,41,40.8,41.3,40.7L41.3,40.7z"/>
			<path id="Path_10218" class="st4" d="M93.7,64.7L93.7,64.7l47-15.5c0.3-0.1,0.4-0.4,0.3-0.6c-0.1-0.3-0.4-0.4-0.6-0.3l0,0
				l-47,15.4c-0.3,0.1-0.4,0.4-0.4,0.6C93.2,64.5,93.4,64.7,93.7,64.7L93.7,64.7z"/>
		</g>
		<g id="Group_62339" transform="translate(657.273 418.65)">
			<path id="Path_10219" class="st3" d="M4.4,110.2c0,0-35.1-69.9,93.8-109.7C98.2,0.4,86.8,139,4.4,110.2z"/>
			<path id="Path_10220" class="st4" d="M98.3,0.2L1.5,100.7C-3,80.4-2,31.2,98.3,0.2z"/>
			<path id="Path_10221" class="st5" d="M5.6,96.7c-0.1,0-0.2-0.1-0.2-0.2s0-0.1,0.1-0.1L98.2,0.1c0.1-0.1,0.2-0.1,0.3,0
				c0.1,0.1,0.1,0.2,0,0.3l0,0L5.8,96.6C5.7,96.7,5.7,96.7,5.6,96.7z"/>
			<path id="Path_10222" class="st5" d="M49.9,50.7c-0.1,0-0.2-0.1-0.2-0.2c0-0.1,0.1-0.2,0.2-0.2l37-2.6c0.1,0,0.2,0.1,0.2,0.2l0,0
				c0,0.1-0.1,0.2-0.2,0.2L49.9,50.7L49.9,50.7z"/>
			<path id="Path_10223" class="st5" d="M30.1,71.3C30,71.3,30,71.3,30.1,71.3c-0.2,0-0.2-0.2-0.2-0.3l0,0l9.5-35.2
				c0-0.1,0.2-0.2,0.3-0.2s0.2,0.2,0.2,0.3l-9.5,35.2C30.3,71.2,30.2,71.3,30.1,71.3L30.1,71.3z"/>
		</g>
		<g id="Group_62340" transform="translate(659.606 486.432)">
			<path id="Path_10224" class="st4" d="M0,40.4c0,0,9.1-64.5,116.1-30.6C116.1,9.8,42.7,99.2,0,40.4z"/>
			<path id="Path_10225" class="st3" d="M116.1,9.9L0,40.4C0,40.4,32.1,102.7,116.1,9.9z"/>
			<path id="Path_10226" class="st4" d="M85.9,29.7L85.9,29.7l-27.2-5.4c-0.2,0-0.3-0.2-0.3-0.4c0-0.2,0.2-0.3,0.4-0.3l0,0L86,28.9
				c0.2,0,0.3,0.2,0.3,0.5C86.3,29.6,86.1,29.7,85.9,29.7L85.9,29.7z"/>
			<path id="Path_10227" class="st4" d="M47.5,48.3C47.4,48.3,47.4,48.2,47.5,48.3L12.3,37.5C12.1,37.4,12,37.2,12,37
				c0.1-0.2,0.3-0.3,0.5-0.3l0,0l35.1,10.7c0.2,0.1,0.3,0.3,0.2,0.5C47.8,48.2,47.6,48.3,47.5,48.3z"/>
		</g>
		<path id="Path_10228" class="st2" d="M426,261c-0.2-0.4-0.4-0.9-0.6-1.3c-10.6-23.6-34-38.9-59.9-39h-0.7
			c-25.4,0.1-48.5,14.8-59.3,37.8c-0.4,0.8-0.8,1.7-1.1,2.5c-6.9,16.4-6.9,34.9,0,51.4c0.4,1,0.9,2,1.3,3c1.2,2.5,2.5,4.9,4,7.2
			c12.1,18.7,32.8,30.1,55.1,30.2h0.7c25.7-0.1,49-15.1,59.7-38.5c0.3-0.6,0.5-1.2,0.8-1.8C432.9,295.9,432.9,277.4,426,261L426,261
			z M417.6,311c-6.3-2.2-12.7-3.9-19.3-5c1.9-12.6,1.9-25.4,0.1-38c6.6-1.2,13.1-2.9,19.4-5.1c0.2,0.5,0.4,0.9,0.6,1.4
			c6,14.4,6,30.6,0,45C418.2,309.8,417.9,310.4,417.6,311L417.6,311z M338.9,286.7c0-6,0.4-11.9,1.3-17.9c8.8,1.3,17.6,1.9,26.4,1.9
			c7.9,0,15.8-0.5,23.6-1.5c1.7,11.8,1.7,23.7-0.1,35.5c-7.8-1-15.7-1.5-23.6-1.5c-8.8,0-17.6,0.6-26.3,1.8
			C339.3,299,338.9,292.9,338.9,286.7L338.9,286.7z M387.7,233.5c10.7,4.6,19.9,12.2,26.2,22.1c-5.5,1.9-11.2,3.3-17,4.4
			c-1.4-6.5-3.6-12.8-6.5-18.8c-1.5-3-3.2-5.9-5.2-8.6C386,232.8,386.9,233.1,387.7,233.5L387.7,233.5z M374.4,232.8
			c3.6,3.4,6.6,7.4,8.7,12c2.5,5.2,4.4,10.7,5.7,16.4c-7.3,0.9-14.7,1.4-22.1,1.3c-8.3,0-16.6-0.6-24.9-1.7c1.3-5.5,3.1-10.9,5.6-16
			c2.1-4.5,5-8.6,8.7-12c3-2.6,6.1-3.9,9.2-3.9S371.4,230.2,374.4,232.8L374.4,232.8z M324.4,245.8c5.3-5.3,11.5-9.5,18.4-12.4
			c0.8-0.3,1.6-0.7,2.5-1c-2,2.7-3.7,5.6-5.2,8.6c-2.8,5.8-4.9,11.9-6.3,18.2c-5.6-1.1-11.2-2.7-16.5-4.7
			C319.2,251.5,321.7,248.5,324.4,245.8L324.4,245.8z M312,309.2c-6-14.4-6-30.6,0-45c0.3-0.8,0.7-1.5,1-2.3c0.1,0,0.2,0.1,0.3,0.1
			c6.1,2.3,12.4,4.1,18.8,5.4c-2,13-1.9,26.1,0.1,39.1c-6.4,1.3-12.8,3.1-18.9,5.4h-0.1C312.8,311,312.4,310.1,312,309.2L312,309.2z
			 M342.7,339.9c-10.2-4.4-19-11.6-25.3-20.8c5.3-1.9,10.8-3.5,16.4-4.6c1.4,6.1,3.5,12,6.2,17.7c1.5,3,3.2,5.9,5.2,8.6
			C344.4,340.6,343.5,340.3,342.7,339.9L342.7,339.9z M356,340.6c-3.6-3.4-6.6-7.4-8.7-12c-2.4-4.9-4.2-10.1-5.5-15.4
			c8.2-1.1,16.4-1.7,24.7-1.7c7.3,0,14.7,0.4,22,1.3c-1.3,5.5-3.1,10.7-5.6,15.8c-2.1,4.5-5,8.6-8.7,12c-3,2.6-6.1,3.9-9.2,3.9
			S359,343.1,356,340.6L356,340.6z M406,327.5c-5.3,5.3-11.5,9.5-18.4,12.4c-0.8,0.3-1.6,0.7-2.5,1c2-2.7,3.7-5.6,5.2-8.6
			c2.8-5.8,4.9-11.9,6.3-18.2c5.7,1,11.3,2.4,16.8,4.3C411.4,321.6,408.8,324.7,406,327.5L406,327.5z"/>
		<ellipse id="Ellipse_182" class="st4" cx="497.8" cy="556.5" rx="308.8" ry="21.4"/>
		<g id="Group_62341" transform="translate(316.404 298.528)">
			<path id="Path_10229" class="st5" d="M32.1,233.6V8.4c0-4.6,3.8-8.4,8.4-8.4h308.6c4.6,0,8.4,3.8,8.4,8.4v225.2"/>
			<path id="Rectangle_2175" class="st6" d="M39.5,8.5h310.8v231.1H39.5V8.5z"/>
			<path id="Rectangle_2176" class="st5" d="M0,232.6h389.8v15.5H0V232.6z"/>
			<path id="Rectangle_2177" class="st7" d="M45.6,13.4h298.5v212.3H45.6V13.4z"/>
		</g>
		<g id="Group_62347" transform="translate(235.616 386.974)">
			<g id="Group_62346">
				<path id="Path_10230" class="st5" d="M16.9,8c-0.1,2.2,0.7,4.5,0.1,6.6c-0.8,2.8-3.9,4.4-5.2,7c-1.4,2.8-0.7,6.4-2.6,8.8
					c-0.7,0.9-1.7,1.4-2.4,2.3c-1.7,2-1.9,4.8-0.5,7c1.6,2.3,4.7,3.1,7.5,3.1s5.6-0.7,8.4-0.5c2.9,0.1,5.7,1.1,8.5,1
					c4-0.3,7.7-2.2,10.3-5.3c2.5-3.1,4.2-6.8,5.1-10.7c0.4-1.5,0.7-3,0.8-4.5c0.3-5.9-2.7-11.4-6.1-16.2c-1.6-2.2-3.4-4.4-5.8-5.5
					C29.5-1.5,17.4,0.3,16.9,8L16.9,8z"/>
				<g id="Group_62342" transform="translate(37.538 155.274)">
					<path id="Path_10231" class="st8" d="M6.9,0c0,0-1,10,1,11.1c3.7,2,10.5,4,9.9,5.8S1,18.7,0.6,17.1S1.9,10.6,0,1L6.9,0z"/>
					<path id="Path_10232" class="st5" d="M0.7,13.5c-0.2,1.2-0.3,2.4-0.2,3.6c0.5,1.6,16.7,1.5,17.3-0.2c0.4-1.3-3.2-2.8-6.6-4.2
						C10.5,14,8.7,16.1,0.7,13.5z"/>
				</g>
				<g id="Group_62343" transform="translate(4.746 154.812)">
					<path id="Path_10233" class="st8" d="M9.2,0.2c0,0-2.7,9.6-0.9,11.1c3.3,2.6,9.6,5.7,8.8,7.4S0.2,17.6,0,15.9S2.5,9.7,2.2,0
						L9.2,0.2z"/>
					<path id="Path_10234" class="st5" d="M0.8,12.4c-0.4,1.1-0.7,2.3-0.8,3.5c0.2,1.7,16.2,4.4,17.1,2.7c0.6-1.2-2.7-3.3-5.8-5.3
						C10.3,14.5,8.2,16.3,0.8,12.4L0.8,12.4z"/>
				</g>
				<path id="Path_10235" class="st8" d="M50.7,41.1c0,0,3.4,4.6,6.3,4.6s12.5-12.1,12.5-12.1l2.3,3.7c0,0-8.1,17.7-15.5,17.8
					s-13-8.1-12.8-8.5s4.8-5.4,4.8-5.4L50.7,41.1L50.7,41.1z"/>
				<path id="Path_10236" class="st5" d="M42.6,67c2.8,3.5,4.9,7.4,6.4,11.6c2,6.3-3.3,80.5-3.3,80.5h-8.8c0,0-4.7-66.1-4.7-66.7
					c0-2.3-17.4,66.7-17.4,66.7H5.9c0,0,4.8-80.8,15.9-92.2l10.4,0.6L42.6,67z"/>
				<path id="Path_10237" class="st9" d="M42.6,64.2V67c0,0-5.3,5.1-20.8,0v-2.8l13.6-0.9L42.6,64.2z"/>
				<path id="Path_10238" class="st10" d="M37.3,30.7c0,0,5.5-0.2,8.3,1.7c2,1.4,6.4,9.1,6.4,9.1l-5.1,4.3c0.6,2.9-0.8,5.8-3.5,7
					l-0.9,11.3c0,0-8.8,5.1-20.8,0c0,0-2.3-21.2-4.4-19.4c-1.2,1.1-2.4,2.2-3.4,3.5l-8-7.9c0,0,8.7-8.7,11.6-10.1
					c3.8-1.9,8.3-2,12.2-0.1L37.3,30.7z"/>
				<path id="Path_10239" class="st8" d="M13.2,47.6c0,0-4.6,5.4-4.1,6.9s8.7,13.8,9.8,16.2c0.6,1.1,0.9,2.4,0.8,3.7l-4.2,2
					c0,0-0.2-3.3-1.1-4.3S-0.3,56.9,0,52.5s6.6-11.3,6.6-11.3L13.2,47.6z"/>
				<g id="Group_62344" transform="translate(19.956 .412)">
					<path id="Path_10240" class="st8" d="M19.8,12.9c0,0,0.6-1.2,1.2-0.8c1.6,1,0.2,2.7-0.8,3.1L19.8,12.9z"/>
					<path id="Path_10241" class="st8" d="M9,0.6C4.1,1.5,0.8,6.2,1.7,11.1c0.2,1,0.6,2.1,1.1,3C4,16.6,5.5,19,7.2,21.2
						c1.5,1.7,2.3,3.9,2.3,6.2l-0.1,2.3c5.5,2,7.7,0.6,7.7,0.6l-0.8-6.7c5.6-1.3,3.6-11.7,3.3-14.7l0,0c0-0.1,0-0.2,0-0.3
						c-0.6-5-5.1-8.5-10-8C9.4,0.5,9.2,0.6,9,0.6L9,0.6z"/>
					<path id="Path_10242" class="st5" d="M9.3,9.8c-1.5,2-2.7,4.1-3.8,6.3c-0.1,0.2-0.8,2.1-0.5,2.3c-1.5-1-2.8-2.4-3.7-4.1
						C-1.3,9.9,0.1,4.1,4.6,1.4c1-0.6,2.2-1,3.4-1.2c3.2-0.6,6.9,0,9.2,2.5c2.2,2.3,2.6,5.6,3.2,8.6C19.7,8,14.9,6,12,5.1
						c0.1,0-1.7,3.2-1.8,3.3C9.9,8.9,9.6,9.3,9.3,9.8L9.3,9.8z"/>
					<path id="Path_10243" class="st8" d="M5.8,16.3C5.6,16,5.3,15.8,5,15.7c-0.8-0.3-1.8-0.1-2.4,0.5c-1,1.2,1.6,3.9,3.6,2.2
						C6.2,18.4,6.8,17.7,5.8,16.3z"/>
					<path id="Path_10244" class="st9" d="M18.3,13.2c0-0.4-0.4-0.8-0.8-0.8s-0.8,0.4-0.8,0.8s0.4,0.8,0.8,0.8l0,0
						C17.9,14,18.3,13.6,18.3,13.2z"/>
					<path id="Path_10245" class="st9" d="M11,14.8c0-0.4-0.4-0.8-0.8-0.8c-0.4,0-0.8,0.4-0.8,0.8c0,0.4,0.4,0.8,0.8,0.8l0,0
						C10.6,15.6,11,15.3,11,14.8z"/>
					<path id="Path_10246" class="st11" d="M17.5,18.7c0,0-1-0.8-1.4-0.6c-0.3,0.1-0.5,0.3-0.6,0.6c-0.2-0.3-0.4-0.5-0.7-0.5
						c-0.5,0-1.5,1.4-1.5,1.4s1.5,2.1,2.9,1.8C17.7,21.1,17.5,18.8,17.5,18.7L17.5,18.7z"/>
					<path id="Path_10247" class="st9" d="M8.5,13.9c-0.2,0-0.3-0.1-0.4-0.3c0-0.1,0-0.2,0.1-0.3c0.6-0.6,1.5-1,2.4-1.1
						c0.2,0,0.3,0.1,0.4,0.3l0,0c0,0.2-0.1,0.3-0.3,0.4c-0.7,0.1-1.4,0.4-2,0.9C8.7,13.9,8.6,13.9,8.5,13.9L8.5,13.9z"/>
					<path id="Path_10248" class="st9" d="M16,11.6c-0.2,0-0.3-0.2-0.3-0.4c0-0.1,0.1-0.2,0.1-0.2c0.8-0.5,1.7-0.6,2.6-0.5
						c0.2,0,0.3,0.2,0.3,0.4s-0.2,0.3-0.4,0.3l0,0c-0.7-0.1-1.5,0-2.1,0.4C16.2,11.6,16.1,11.6,16,11.6z"/>
					<path id="Path_10249" class="st12" d="M14.8,17.4c0.7-0.1,1.1-0.7,1.1-1.4c0-0.1,0-0.1-0.1-0.2c-0.6-0.7-1-1.5-1-2.4
						c0-0.2-0.1-0.3-0.3-0.3s-0.3,0.1-0.3,0.3l0,0c0.1,1,0.5,1.9,1.1,2.7c0,0.2-0.2,0.7-1.1,0.8c-0.2,0-0.3,0.1-0.3,0.3
						c0,0.2,0.1,0.3,0.3,0.3C14.5,17.5,14.7,17.5,14.8,17.4z"/>
					<path id="Path_10250" class="st13" d="M17.5,18.7l-4.3,0.9c0.8,0.6,1.8,0.9,2.8,0.9C17.1,20.3,17.5,18.7,17.5,18.7z"/>
				</g>
				<g id="Group_62345" transform="translate(13.233 68.215)">
					<path id="Path_10251" class="st8" d="M4.1,0c0,0,3.6,5.1,3.2,6.3s-1.9,4.5-2,5.1s0,3.7-0.4,4.2c-0.3,0.5-1.1-3.4-1.1-3.4
						s0.2,3.4-0.4,3.6c-0.6,0.2-1.1-3.4-1.1-3.4s0.3,3.4-0.3,3.4s-0.9-3.3-0.9-3.3s0.2,2.7-0.3,2.7s-1.5-4.3-0.6-5.9
						c2.1-3.6,1.5-5.6,1.5-5.6L4.1,0z"/>
					<path id="Path_10252" class="st8" d="M6.5,3.7c0,0,1.8,3,1.8,4.2s0.4,3.5-0.1,3.5S7,8.1,6.6,7.9S6.3,6.3,6.3,6.3L6.5,3.7z"/>
				</g>
				<path id="Path_10253" class="st14" d="M46.9,46C46.8,46,46.8,45.9,46.9,46c-0.4-1.9-1.2-3.5-2.5-4.8c-0.1-0.1,0-0.2,0-0.2
					c0.1,0,0.1,0,0.2,0c1.3,1.3,2.2,3,2.5,4.8C47.1,45.9,47,46,46.9,46L46.9,46z"/>
				<path id="Path_10254" class="st15" d="M35.3,70.4c-1.4,0-2.6-1.2-2.6-2.6s1.2-2.6,2.6-2.6s2.6,1.2,2.6,2.6
					C37.9,69.3,36.7,70.4,35.3,70.4z M35.3,66.4c-0.8,0-1.4,0.6-1.4,1.4s0.6,1.4,1.4,1.4c0.8,0,1.4-0.6,1.4-1.4S36,66.4,35.3,66.4z"
					/>
			</g>
			<path id="Path_10255" class="st8" d="M71.1,31.1c0.2-0.3,3-4.3,3-4.3l3.6,5l-4.8,4.3L71.1,31.1z"/>
			<path id="Path_10256" class="st8" d="M69.5,33.6c0,0-0.3-2.7,0.6-4.1s2.7-4.7,3.2-3.6s-1,4.2-0.9,5.1s3.3,3.4-0.6,6.3
				S69.5,33.6,69.5,33.6z"/>
		</g>
		<g id="Group_62350" transform="translate(572.666 216.416)">
			<path id="Path_10257" class="st8" d="M56.1,118.1c0,0-1,6.7,1.4,10c2.4,3.3,7.3,8.1,6.1,9.4s-15.5-5.9-15.1-7.5s2.6-8.1,2.1-12
				L56.1,118.1z"/>
			<path id="Path_10258" class="st5" d="M49.3,126.8c-0.4,1.5-0.7,2.7-0.9,3.2c-0.3,1.6,13.9,8.8,15.1,7.5c0.9-0.9-1.5-3.8-3.8-6.6
				C58.4,131.7,55.1,132.6,49.3,126.8L49.3,126.8z"/>
			<path id="Path_10259" class="st8" d="M42.1,119.2c0,0-1,6.7,1.4,10s7.3,8.1,6.1,9.4s-15.5-5.9-15.1-7.5s2.5-8.1,2.1-12
				L42.1,119.2z"/>
			<path id="Path_10260" class="st5" d="M40.1,2.6c3.2,2.7,4.7,6.9,4,11.1c-0.7,3.3-2.8,6.4-2.2,9.7c0.3,1.2,0.7,2.4,1.1,3.6
				c0.6,2.1,0.6,4.3,0,6.4c-0.4,1.5-1.2,2.7-2.4,3.7c-0.9,0.5-1.8,0.9-2.8,1.1c-2.1,0.6-4.3,0.8-6.5,0.7c-2.2-0.2-4.3-1.2-5.8-2.8
				c-0.9-1.1-1.6-2.7-3-3.2c-0.5-0.2-1-0.2-1.5-0.2c-2-0.2-3.9-0.2-5.9,0.2s-4,1.5-6.1,1.6c-3.7,0.1-6.7-2.7-6.9-6.4
				c-0.1-2.6,1.3-5,3.6-6.2c2.1-1.1,4.9-1.1,6.3-3c1.2-1.6,0.8-3.9,1.7-5.7c1.5-3.1,5.9-3.3,8.6-5.5c2.6-2.1,3.7-5.3,7-6.7
				C32.8-0.8,37.3,0.3,40.1,2.6L40.1,2.6z"/>
			<path id="Path_10261" class="st16" d="M8.5,64.3c0,0-3.4,16.3,2,18.6s23.3,6.3,24.4,9.6s0,30.1,0,30.1l8.5,0.3
				c0,0,2.7-30.3,2.4-33.2c-0.6-6.8-2.4-8.4-2.4-8.4c2.7,2,4.5,5,5,8.3c0.5,2.6,0.5,30.6,0.5,30.6l8.5,0.3c0,0,5.9-37.4-0.7-42.5
				S32.3,65.3,32.3,65.3L8.5,64.3z"/>
			<path id="Path_10262" class="st8" d="M41.9,42.5l3.9,15.9l-6.2,1.5c0,0-4-7-5.4-13.4S41.9,42.5,41.9,42.5L41.9,42.5z"/>
			<path id="Path_10263" class="st10" d="M28.5,26c0,0,6.9,1.6,9.9,5.6s4.9,12.6,4.9,12.6l-6.5,2.1c0,0-0.3,4.8-3.3,6.1
				c0,0-1.9,7.5,0,13.9c0,0-16.1,4.8-26,0L6.7,44.5L0.6,42c0,0,3.2-13.9,10.7-15.9S24.4,24.6,28.5,26z"/>
			<path id="Path_10264" class="st8" d="M2.1,42.5l8.4,3.3c0,0-2,6.8-1.3,10.3c1,5.5,8.6,11.1,12.4,10.9l-0.2,3.3
				c0,0-18.6-1.2-20.7-11.6S2.1,42.5,2.1,42.5L2.1,42.5z"/>
			<path id="Path_10265" class="st17" d="M36.8,46.3C36.7,46.3,36.7,46.2,36.8,46.3c0-2.4-2.1-5.3-2.1-5.4c0,0,0-0.1,0-0.2
				s0.1,0,0.2,0l0,0c0.1,0.1,2.1,3.1,2,5.4C36.9,46.3,36.9,46.3,36.8,46.3L36.8,46.3L36.8,46.3z"/>
			<path id="Path_10266" class="st17" d="M11.6,46.3C11.5,46.3,11.5,46.3,11.6,46.3l-1.1-0.4c-0.1,0-0.1-0.1-0.1-0.1l0.1-0.1l0,0
				l1,0.4l2.4-7.9c0-0.1,0.1-0.1,0.1-0.1l0.1,0.1L11.6,46.3C11.7,46.3,11.6,46.3,11.6,46.3L11.6,46.3z"/>
			<path id="Path_10267" class="st12" d="M39.6,16.9c0,0,1-0.7,1.4-0.1c0.9,1.5-1,2.3-2,2.3L39.6,16.9z"/>
			<path id="Path_10268" class="st8" d="M35.8,1.7C31.2,0.3,26.4,2.9,25,7.5c-0.3,1-0.4,2-0.4,3c-0.1,2.7,0.1,5.3,0.6,7.9
				c0.5,2.1,0.3,4.3-0.8,6.2L24,25.4c-0.4,0.7-0.2,1.6,0.4,2.2c1.2,1.2,2.9,1.9,4.6,1.8c0.7-0.1,1.2-0.5,1.4-1.1l1.5-3.9
				c5.3,1.3,8.2-8.3,9.2-11.1l0,0c0-0.1,0.1-0.2,0.1-0.3c1.7-4.5-0.6-9.4-5-11.1C36.1,1.8,36,1.8,35.8,1.7L35.8,1.7z"/>
			<path id="Path_10269" class="st18" d="M32.1,9.7c-1.4,0.7-2.7,1.4-3.9,2.2c-1.4,0.7-2.6,1.8-3.5,3.1c-0.8-1.5-1.3-3.3-1.4-5
				c-0.1-0.8-0.1-1.6,0.1-2.4c0.3-1.1,0.9-2.1,1.6-3.1c0.8-1.3,1.8-2.4,3.1-3.2C29,0.9,30,0.6,31,0.6c2.3-0.2,4.6,0.2,6.7,1.3
				c2.1,1.1,3.6,3,4.3,5.2c0.8,2.9-0.1,5.9-1.1,8.7c0.1-1.3-0.2-2.5-0.6-3.7c-0.2-0.8-0.6-1.6-1-2.2c-0.9-1-1.8-2-2.7-3.1
				C35.3,8.1,33.8,9.1,32.1,9.7L32.1,9.7z"/>
			<path id="Path_10270" class="st8" d="M26.3,13.7c0-0.3-0.2-0.6-0.4-0.8c-0.6-0.6-1.5-0.9-2.3-0.6c-1.4,0.6-0.4,4,2.1,3.4
				C25.7,15.7,26.4,15.3,26.3,13.7L26.3,13.7z"/>
			<path id="Path_10271" class="st19" d="M38.5,17.2c0.2-0.4,0-0.8-0.3-1c-0.4-0.2-0.8,0-1,0.3c-0.2,0.4,0,0.8,0.3,1l0,0
				C37.9,17.7,38.4,17.6,38.5,17.2z"/>
			<path id="Path_10272" class="st19" d="M31.7,15c0.2-0.4,0-0.8-0.3-1c-0.4-0.2-0.8,0-1,0.3c-0.2,0.4,0,0.8,0.3,1l0,0
				C31,15.5,31.5,15.4,31.7,15z"/>
			<path id="Path_10273" class="st20" d="M34.7,20.9c0,0-0.5-0.6-0.9-0.7c-0.3,0-0.5,0.2-0.7,0.4c0-0.3-0.2-0.5-0.5-0.7
				c-0.6-0.1-1.2-0.2-1.8-0.2c0,0,0.6,2.3,2,2.4C33.6,22.2,34.4,21.8,34.7,20.9L34.7,20.9z"/>
			<path id="Path_10274" class="st19" d="M33.2,21.3c-1.1-0.2-2.1-0.9-2.8-1.8v-0.1h0.1l0,0c0.1,0.1,1.8,2.6,4.1,1.4
				c0.1,0,0.1,0,0.1,0c0,0.1,0,0.1,0,0.1C34.4,21.3,33.8,21.4,33.2,21.3z"/>
			<path id="Path_10275" class="st18" d="M29.7,13.4c-0.2-0.1-0.2-0.3-0.2-0.4c0-0.1,0.1-0.1,0.2-0.2c0.8-0.2,1.7-0.1,2.5,0.3
				c0.2,0.1,0.2,0.3,0.1,0.4c-0.1,0.2-0.3,0.2-0.4,0.1c-0.6-0.3-1.4-0.4-2-0.2C29.9,13.4,29.8,13.4,29.7,13.4L29.7,13.4z"/>
			<path id="Path_10276" class="st18" d="M37.2,15.3C37,15.2,37,15,37.1,14.9s0.1-0.1,0.2-0.1c0.9,0,1.7,0.2,2.4,0.7
				c0.1,0.1,0.2,0.3,0.1,0.4c-0.1,0.1-0.3,0.2-0.4,0.1l0,0c-0.6-0.4-1.3-0.6-2-0.6C37.3,15.4,37.2,15.3,37.2,15.3L37.2,15.3z"/>
			<path id="Path_10277" class="st12" d="M33.8,18.4c-0.3,0-0.5-0.1-0.7-0.2c-0.1,0-0.1-0.1,0-0.2c0,0,0.1-0.1,0.1,0
				c1,0.4,1.4-0.2,1.5-0.3c-0.2-0.9-0.2-1.9,0.2-2.7c0-0.1,0.1-0.1,0.2,0c0,0,0.1,0.1,0,0.1c-0.4,0.8-0.4,1.8-0.2,2.6v0.1
				C34.6,18.2,34.2,18.4,33.8,18.4z"/>
			<path id="Path_10278" class="st8" d="M21.3,70.3c0.6,0.3,1.2,0.5,1.8,0.6c1,0,4-0.2,4.5-0.2s2.9,1,3.4,0.9s-2.3-1.8-2.3-1.8
				s2.6,1.1,2.9,0.7s-2.3-1.8-2.3-1.8s2.6,0.8,2.8,0.4c0.2-0.4-2.4-1.2-2.4-1.2s2.4,0.4,2.5,0s-3.3-1.6-4.8-1.6s-6,0.8-6,0.8
				L21.3,70.3z"/>
			<path id="Path_10279" class="st5" d="M35.3,127.9c-0.4,1.5-0.7,2.7-0.9,3.2c-0.3,1.6,13.9,8.8,15.1,7.5c0.9-0.9-1.5-3.8-3.8-6.6
				C44.4,132.8,41.1,133.7,35.3,127.9L35.3,127.9z"/>
			<g id="Group_62348" transform="translate(14.675 53.884)">
				<path id="Path_10280" class="st5" d="M52,2.5L23.9,0L13.3,19.8l28.1,2.5L52,2.5z"/>
				<path id="Rectangle_2178" class="st5" d="M0.1,17.4L18.9,19l-0.1,1.2L0,18.6L0.1,17.4z"/>
			</g>
			<g id="Group_62349" transform="translate(25.534 11.936)">
				<path id="Path_10281" class="st9" d="M4.1,4.8C2.8,4.2,2.3,2.6,3,1.4c0.6-1.3,2.2-1.8,3.4-1.1C7.4,0.8,8,2,7.7,3.2
					C7.3,4.5,6,5.3,4.6,5C4.4,4.9,4.2,4.9,4.1,4.8z M6.3,0.4C5.1-0.2,3.7,0.3,3.1,1.5S3,4.1,4.2,4.7s2.6,0.1,3.2-1.1
					c0.1-0.2,0.1-0.3,0.2-0.5C7.8,2,7.3,0.9,6.3,0.4L6.3,0.4z"/>
				<path id="Path_10282" class="st9" d="M11.2,6.9c-1.3-0.6-1.8-2.2-1.1-3.4c0.6-1.3,2.2-1.8,3.4-1.1c1.1,0.5,1.6,1.7,1.3,2.9
					c-0.3,1.4-1.7,2.2-3.1,1.8l0,0C11.5,7.1,11.4,7,11.2,6.9L11.2,6.9z M13.4,2.5c-0.2-0.1-0.3-0.1-0.5-0.2C11.6,2,10.3,2.8,10,4.1
					s0.5,2.5,1.8,2.9c1.3,0.3,2.6-0.4,2.9-1.7l0,0C14.9,4.2,14.4,3,13.4,2.5L13.4,2.5z"/>
				<path id="Path_10283" class="st9" d="M0,0.7l0.1-0.1L3,1.7L2.9,1.8L0,0.7z"/>
				<path id="Path_10284" class="st9" d="M7.5,3.5L7.5,3.5C8.4,3,9.4,3.3,10,4.1L9.9,4.2C9.3,3.5,8.4,3.2,7.5,3.5z"/>
			</g>
			<path id="Path_10285" class="st10" d="M47.9,64.8c0.2-0.5,0.7-0.7,1.2-0.5s0.7,0.7,0.5,1.2c-0.2,0.4-0.6,0.7-1.1,0.5
				C48,65.8,47.7,65.3,47.9,64.8z"/>
		</g>
		<g id="Group_62351" transform="translate(307.064 373.106)">
			<path id="Rectangle_2179" class="st21" d="M0,27.7h28.2v145.9H0V27.7z"/>
			<path id="Rectangle_2180" class="st22" d="M9.3,27.7h10.3v146.1H9.3V27.7z"/>
			<path id="Path_10286" class="st10" d="M14.5,0L0,27.7h28.2L14.5,0z"/>
			<path id="Path_10287" class="st5" d="M14.5,0L7.2,13.9h14.1L14.5,0z"/>
			<path id="Rectangle_2181" class="st5" d="M0,172.5h28.2v16H0V172.5z"/>
			<path id="Rectangle_2182" class="st10" d="M0,166.8h28.2v6.8H0V166.8z"/>
		</g>
		<g id="Group_62359" transform="translate(372.299 277.223)">
			<path id="Rectangle_2183" class="st10" d="M0,0h181.8v234.4H0V0z"/>
			<path id="Rectangle_2184" class="st16" d="M0,0h181.8v17.2H0V0z"/>
			<g id="Group_62352" transform="translate(7.352 6.439)">
				<path id="Path_10288" class="st23" d="M0,2.1C0,0.9,0.9,0,2.1,0s2.1,0.9,2.1,2.1c0,1.1-0.9,2.1-2.1,2.1S0,3.2,0,2.1L0,2.1z"/>
				<path id="Path_10289" class="st23" d="M8.6,2.1C8.6,0.9,9.5,0,10.7,0s2.1,0.9,2.1,2.1c0,1.1-0.9,2.1-2.1,2.1S8.6,3.2,8.6,2.1
					L8.6,2.1z"/>
				<path id="Path_10290" class="st23" d="M17.3,2.1C17.3,1,18.2,0,19.4,0s2.1,0.9,2.1,2.1c0,1.1-0.9,2.1-2.1,2.1S17.3,3.2,17.3,2.1
					L17.3,2.1z"/>
			</g>
			<g id="Group_62354" transform="translate(14.408 30.842)">
				<path id="Rectangle_2185" class="st7" d="M0,0h51.5v51.5H0V0z"/>
				<g id="Group_62353" transform="translate(3.871 10.325)">
					<path id="Path_10291" class="st4" d="M0,35.3L15.2,7.9l11.2,15.3L32,17l11.8,18.3H0z"/>
					<path id="Path_10292" class="st4" d="M22.5,3.9c0-2.2,1.8-3.9,3.9-3.9c2.2,0,3.9,1.8,3.9,3.9c0,2.2-1.8,3.9-3.9,3.9l0,0
						C24.2,7.9,22.5,6.1,22.5,3.9z"/>
				</g>
			</g>
			<path id="Rectangle_2186" class="st24" d="M129.4,30.8H166v5.5h-36.6V30.8z"/>
			<path id="Rectangle_2187" class="st24" d="M78,30.8h44.9v5.5H78V30.8z"/>
			<g id="Group_62357" transform="translate(78.008 47.152)">
				<g id="Group_62355">
					<path id="Rectangle_2188" class="st7" d="M0,0h52.3v2.5H0V0z"/>
					<path id="Rectangle_2189" class="st7" d="M55.6,0h15.7v2.5H55.6V0z"/>
					<path id="Rectangle_2190" class="st7" d="M0,7.8h21.3v2.5H0V7.8z"/>
					<path id="Rectangle_2191" class="st7" d="M23.5,7.8h28.3v2.5H23.5V7.8z"/>
					<path id="Rectangle_2192" class="st7" d="M55.6,7.8h15.7v2.5H55.6V7.8z"/>
					<path id="Rectangle_2193" class="st7" d="M0,14.6h28v2.5H0V14.6z"/>
					<path id="Rectangle_2194" class="st7" d="M32.5,14.6h44.2v2.5H32.5V14.6z"/>
				</g>
				<g id="Group_62356" transform="translate(0 24.872)">
					<path id="Rectangle_2195" class="st7" d="M0,0h52.3v2.5H0V0z"/>
					<path id="Rectangle_2196" class="st7" d="M55.6,0h15.7v2.5H55.6V0z"/>
					<path id="Rectangle_2197" class="st7" d="M0,7.8h21.3v2.5H0V7.8z"/>
					<path id="Rectangle_2198" class="st7" d="M23.5,7.8h28.3v2.5H23.5V7.8z"/>
				</g>
			</g>
			<g id="Group_62358" transform="translate(13.99 111.058)">
				<path id="Rectangle_2199" class="st7" d="M0,0h87.3v3.3H0V0z"/>
				<path id="Rectangle_2200" class="st7" d="M92.8,0H119v3.3H92.8V0z"/>
				<path id="Rectangle_2201" class="st7" d="M0,10.3h35.6v3.3H0V10.3z"/>
				<path id="Rectangle_2202" class="st7" d="M39.2,10.3h47.2v3.3H39.2V10.3z"/>
				<path id="Rectangle_2203" class="st7" d="M92.8,10.3H119v3.3H92.8V10.3z"/>
				<path id="Rectangle_2204" class="st7" d="M0,19.3h46.8v3.3H0V19.3z"/>
				<path id="Rectangle_2205" class="st7" d="M54.2,19.3H128v3.3H54.2V19.3z"/>
			</g>
			<path id="Rectangle_2206" class="st7" d="M16.1,142.9h133.1v77.2H16.1V142.9z"/>
			<path id="Path_10293" class="st4" d="M67.7,161.7v39.5l30-19.8L67.7,161.7z"/>
			<path id="Rectangle_2207" class="st3" d="M14.4,97h53.8v4.6H14.4V97z"/>
			<path id="Rectangle_2208" class="st3" d="M74.6,97h42.3v4.6H74.6V97z"/>
		</g>
		<g id="Group_62360" transform="translate(596.84 366.416)">
			<path id="Rectangle_2209" class="st15" d="M0,0h50.3v2.2H0V0z"/>
			<path id="Rectangle_2210" class="st15" d="M0,7.5h21.9v2.2H0V7.5z"/>
			<path id="Rectangle_2211" class="st15" d="M25.1,7.5h25.1v2.2H25.1V7.5z"/>
			<path id="Rectangle_2212" class="st15" d="M0,14.2h30.3v2.2H0V14.2z"/>
			<path id="Rectangle_2213" class="st15" d="M33.9,14.2h16.4v2.2H33.9V14.2z"/>
			<path id="Rectangle_2214" class="st15" d="M0,21.6h23v2.2H0V21.6z"/>
			<path id="Rectangle_2215" class="st15" d="M28.9,21.6h21.4v2.2H28.9V21.6z"/>
		</g>
		<g id="Group_62361" transform="translate(580.092 408.185)">
			<path id="Rectangle_2216" class="st15" d="M0,0h67v2.2H0V0z"/>
			<path id="Rectangle_2217" class="st15" d="M0,7.5h29.2v2.2H0V7.5z"/>
			<path id="Rectangle_2218" class="st15" d="M33.5,7.5H67v2.2H33.5V7.5z"/>
			<path id="Rectangle_2219" class="st15" d="M0,14.2h40.4v2.2H0V14.2z"/>
			<path id="Rectangle_2220" class="st15" d="M45.2,14.2H67v2.2H45.2V14.2z"/>
			<path id="Rectangle_2221" class="st15" d="M0,21.6h30.7v2.2H0V21.6z"/>
			<path id="Rectangle_2222" class="st15" d="M38.5,21.6H67v2.2H38.5V21.6z"/>
		</g>
		<g id="Group_62362" transform="translate(520.961 351.253)">
			<path id="Path_10294" class="st3" d="M66.3,30.6C66.3,13.7,51.5,0,33.2,0S0,13.7,0,30.6c0,8,3.4,15.6,9.2,21.1
				c5.2,5,8.1,11.8,8.1,19c0,5.8,4.7,10.5,10.5,10.5l0,0h10.7c5.8,0,10.5-4.7,10.5-10.5l0,0c0-7.2,2.9-14,8.1-19
				C62.9,46.3,66.3,38.6,66.3,30.6z"/>
			<path id="Path_10295" class="st9" d="M39,85c-0.2,0-0.4-0.2-0.4-0.4c-0.2-3.4,5-56.7,5.2-59c0-0.2,0.2-0.4,0.4-0.4
				s0.4,0.2,0.4,0.4l0,0c-0.1,0.6-5.4,55.5-5.2,58.9C39.4,84.8,39.2,85,39,85L39,85L39,85z"/>
			<path id="Path_10296" class="st9" d="M27,85L27,85c-0.2,0-0.4-0.2-0.4-0.4l0,0c0.2-3.4-5.2-58.3-5.2-58.9c0-0.2,0.1-0.4,0.4-0.4
				c0.2,0,0.4,0.1,0.4,0.4l0,0c0.2,2.3,5.4,55.6,5.2,59C27.4,84.9,27.2,85,27,85z"/>
			<path id="Path_10297" class="st9" d="M32,39.3c-1.1,0-2.1-0.4-2.9-1c-0.6,0.5-1.4,0.7-2.2,0.7c-1.2-0.2-2.3-0.9-2.9-2
				c-0.8-1.8-1.4-3.7-1.8-5.6c0-0.1,0-0.2,0.1-0.3s0.2,0,0.3,0.1v0.1c0.4,1.9,1,3.7,1.7,5.5c0.5,1,1.5,1.7,2.6,1.8
				c0.7,0,1.3-0.1,1.9-0.5l0,0c-1.2-1.2-2-2.8-2.2-4.4c-0.3-1.4-0.1-2.8,0.6-4.1c0.2-0.4,0.6-0.8,1.1-1c1.1-0.3,2.3,0.2,2.7,1.3
				c0.4,1,0.5,2,0.3,3.1c0,1.4-0.4,2.7-1,4c-0.3,0.4-0.6,0.8-1,1.2c1.1,0.9,2.6,1.1,4,0.6c0.5-0.2,1-0.6,1.4-1
				c-0.5-0.3-0.9-0.7-1.1-1.2c-0.2-0.6-0.4-1.2-0.4-1.8c-0.1-1.8,0.1-3.6,0.6-5.3c0-0.1,0.1-0.1,0.1-0.1c0.6-0.1,1.2,0.1,1.5,0.6
				s0.5,1,0.6,1.5c0.3,1.4,0.4,2.9,0.1,4.4c-0.2,0.7-0.4,1.3-0.8,1.9c0.7,0.3,1.5,0.3,2.2,0.1c0.4-0.1,0.8-0.3,1.1-0.6
				c-0.2-0.4-0.4-0.8-0.6-1.2c-1-2.8-0.9-5.8,0.2-8.6c0-0.1,0.1-0.1,0.1-0.1c0.8-0.2,1.7,0.1,2.2,0.9c0.4,0.7,0.6,1.5,0.6,2.2
				c0.2,1.5,0,3-0.4,4.5c-0.3,0.9-0.8,1.7-1.6,2.3c0.3,0.4,0.8,0.7,1.4,0.8c0.4,0,0.8-0.1,1.2-0.3c1-0.6,1.5-1.7,1.3-2.8
				c0-0.1,0.1-0.2,0.2-0.2c0.1,0,0.2,0.1,0.2,0.2l0,0c0.2,1.3-0.4,2.5-1.5,3.2c-0.4,0.3-0.9,0.4-1.4,0.4c-0.7-0.1-1.2-0.4-1.6-1
				c-0.4,0.3-0.8,0.5-1.2,0.6c-0.8,0.3-1.7,0.2-2.6-0.2c-0.4,0.5-1,0.9-1.6,1.2C33,39.2,32.5,39.3,32,39.3L32,39.3z M28.9,28.8
				c-0.2,0-0.3,0-0.5,0.1c-0.4,0.2-0.7,0.5-0.9,0.8c-0.6,1.2-0.8,2.5-0.6,3.8c0.2,1.6,0.9,3.1,2,4.2l0.1,0.1
				c0.4-0.3,0.7-0.7,0.9-1.1c0.6-1.2,0.9-2.5,0.9-3.8c0.2-1,0.1-1.9-0.3-2.9C30.3,29.3,29.7,28.9,28.9,28.8L28.9,28.8z M34.2,29.5
				c-0.5,1.7-0.6,3.4-0.5,5.1c0,0.6,0.1,1.1,0.3,1.7c0.2,0.5,0.6,0.8,1,1.1c0.4-0.6,0.7-1.2,0.8-1.8c0.2-1.4,0.2-2.8-0.1-4.2
				c-0.1-0.5-0.2-0.9-0.5-1.3C34.9,29.6,34.6,29.4,34.2,29.5L34.2,29.5z M38.6,27.5c-1.1,2.6-1.1,5.5-0.2,8.2
				c0.1,0.4,0.3,0.7,0.5,1.1c0.6-0.6,1.1-1.3,1.4-2.1c0.4-1.4,0.6-2.9,0.4-4.3c0-0.7-0.2-1.4-0.5-2.1C39.9,27.7,39.3,27.4,38.6,27.5
				L38.6,27.5z"/>
			<path id="Rectangle_2223" class="st16" d="M19.8,90.4h26.6c0,4.2-3.4,7.6-7.6,7.6l0,0H27.4C23.2,98,19.8,94.6,19.8,90.4
				L19.8,90.4z"/>
			<path id="Path_10298" class="st5" d="M34.8,94.1c-5.2-0.1-10.3-0.9-15.3-2.4c-1.3-0.4-2-1.9-1.6-3.2c0.4-1.3,1.9-2,3.2-1.6
				c0.2,0.1,14.7,4.7,23.8,0.1c1.3-0.6,2.8-0.1,3.4,1.1c0.6,1.3,0.1,2.8-1.1,3.4l0,0C43.3,93.4,39,94.2,34.8,94.1L34.8,94.1z"/>
			<path id="Path_10299" class="st16" d="M34.8,90c-5.2-0.1-10.3-0.9-15.3-2.4c-1.3-0.4-2-1.9-1.6-3.2c0.4-1.3,1.9-2,3.2-1.6
				c0.2,0.1,14.7,4.7,23.8,0.1c1.3-0.6,2.8-0.1,3.4,1.1c0.6,1.3,0.1,2.8-1.1,3.4l0,0C43.3,89.2,39,90.1,34.8,90L34.8,90z"/>
			<path id="Path_10300" class="st5" d="M34.8,85.9c-5.2-0.1-10.3-0.9-15.3-2.4c-1.3-0.4-2-1.9-1.6-3.2c0.4-1.3,1.9-2,3.2-1.6
				c0.2,0.1,14.7,4.7,23.8,0.1c1.3-0.6,2.8-0.1,3.4,1.1c0.6,1.3,0.1,2.8-1.1,3.4l0,0C43.3,85.1,39,86,34.8,85.9L34.8,85.9z"/>
		</g>
		<g id="Group_62363" transform="translate(572.984 428.046)">
			<path id="Path_10301" class="st10" d="M53,107.5c0,0,10.9,4.8,13.4,5.5s10.6-0.5,6.6-5.5s-7.5-2.3-14.9-6.1S53,107.5,53,107.5
				L53,107.5z"/>
			<path id="Path_10302" class="st25" d="M25.4,79.8c0,0-20.8-4.6-24.9,7.2s16.1,17.2,19.9,18.1s12.4,1.6,14.3,2.2S44,108.5,45,109
				s11.5,2.9,11.5,2.9l7.8-10.7l-8.1-6.9l-3.5-12.7L25.4,79.8z"/>
			<path id="Path_10303" class="st10" d="M41.1,31c0,0,16.9-0.9,25.1,11s14.5,22.7,3.3,33s-27,5.2-27,5.2l-20.9,1.3
				c0,0-21.6-1.5-16.4-21.7S23,31.4,41.1,31L41.1,31z"/>
			<path id="Rectangle_2224" class="st5" d="M24.5,54.4h32.1c2.2,0,4.1,1.8,4.1,4.1V79c0,2.2-1.8,4.1-4.1,4.1l0,0H24.5
				c-2.2,0-4.1-1.8-4.1-4.1V58.5C20.4,56.2,22.3,54.4,24.5,54.4z"/>
			<path id="Path_10304" class="st10" d="M30.3,110c0,0-10.9,4.8-13.4,5.5S6.3,115,10.3,110s7.5-2.3,14.8-6.1S30.3,110,30.3,110z"/>
			<path id="Path_10305" class="st9" d="M52.7,66.1C52.6,66.1,52.6,66,52.7,66.1l-0.1-0.2c9-7.9,14.5-7,14.8-6.9
				c0.1,0,0.1,0.1,0.1,0.2c0,0.1-0.1,0.1-0.2,0.1l0,0C67.3,59.2,61.7,58.3,52.7,66.1C52.8,66.1,52.7,66.1,52.7,66.1z"/>
			<path id="Path_10306" class="st9" d="M28,66.1C27.9,66.1,27.9,66.1,28,66.1c-5.7-5.7-14.4-7.6-14.5-7.6s-0.1-0.1-0.1-0.2
				s0.1-0.1,0.2-0.1l0,0c0.1,0,8.8,1.9,14.5,7.7C28.1,66,28.1,66.1,28,66.1C28.1,66.1,28.1,66.1,28,66.1L28,66.1L28,66.1z"/>
			<path id="Path_10307" class="st9" d="M55.6,56.3C55.5,56.3,55.5,56.3,55.6,56.3l-1.5-6.8c0-0.1,0-0.1,0.1-0.2
				c0.1,0,0.1,0,0.2,0.1l1.4,6.7C55.8,56.3,55.7,56.3,55.6,56.3C55.7,56.3,55.7,56.3,55.6,56.3C55.7,56.3,55.7,56.3,55.6,56.3z"/>
			<path id="Path_10308" class="st9" d="M24,57.7L24,57.7c-0.1,0-0.1-0.1-0.1-0.1l0,0l0.6-7.3c0-0.1,0.1-0.1,0.1-0.1
				c0.1,0,0.1,0.1,0.1,0.1l0,0l-0.6,7.3C24.1,57.6,24.1,57.7,24,57.7L24,57.7z"/>
			<path id="Path_10309" class="st12" d="M22.6,20.8c0,0-1.3-0.7-1.6,0c-0.9,1.9,1.3,2.6,2.4,2.5L22.6,20.8z"/>
			<path id="Path_10310" class="st9" d="M49.1,90.8L49.1,90.8c-1-0.2-3.5-1-5.7-1.7c-1.2-0.4-2.3-0.8-2.9-0.9
				c-1.6-0.5-8.3-1.1-8.4-1.1c-0.1,0-12.7-2.5-14-2.8c-0.1,0-0.1-0.1-0.1-0.2s0.1-0.1,0.2-0.1c1.4,0.3,13.9,2.8,14,2.8
				c0.3,0,6.8,0.6,8.4,1.1c0.6,0.2,1.6,0.5,2.9,0.9c2.1,0.7,4.7,1.5,5.7,1.7c0.1,0,0.1,0.1,0.1,0.2C49.2,90.8,49.1,90.8,49.1,90.8
				L49.1,90.8z"/>
			<path id="Path_10311" class="st8" d="M42.8,30.9c-2.1-4.3-3.2-8.9-3.3-13.7c0-1.6-0.1-3.4-0.3-5.5C39,6.2,34.3,1.9,28.8,2.1
				c-5.5,0.2-9.9,4.9-9.7,10.4c0,1.4,0.4,2.8,1,4.1c0.1,0.1,0.1,0.2,0.2,0.3l0,0c1.5,3,4.6,13.9,11.1,12.1l0.9,4.4
				C36,34.2,39.8,33.3,42.8,30.9L42.8,30.9z"/>
			<path id="Path_10312" class="st9" d="M23.7,19.3c-0.2-0.4,0-0.8,0.3-1s0.8,0,1,0.3s0,0.8-0.3,1l0,0
				C24.3,19.8,23.9,19.6,23.7,19.3z"/>
			<path id="Path_10313" class="st9" d="M32.4,17.1c-0.2-0.4,0-0.8,0.3-1c0.4-0.2,0.8,0,1,0.3s0,0.8-0.3,1l0,0
				C33,17.6,32.5,17.4,32.4,17.1z"/>
			<path id="Path_10314" class="st9" d="M29.4,25.1c-0.6,0-1.1-0.2-1.6-0.4c-0.1,0-0.1-0.1-0.1-0.2s0.1-0.1,0.2-0.1
				c2.6,1.4,4.6-1.4,4.7-1.5s0.2-0.1,0.2,0c0.1,0.1,0.1,0.2,0,0.2C32.9,23.1,31.5,25.1,29.4,25.1z"/>
			<path id="Path_10315" class="st5" d="M39.3,8.1l0.5,7.2L38,15.7l-4.8-7.4L39.3,8.1z"/>
			<path id="Path_10316" class="st8" d="M37.7,15.7c0-0.4,0.1-0.7,0.4-1c0.6-0.8,1.6-1.2,2.6-1c1.7,0.6,0.9,4.6-2.1,4.2
				C38.6,17.9,37.7,17.6,37.7,15.7z"/>
			<path id="Path_10317" class="st12" d="M29.1,22.2c-0.2,0-0.4,0-0.6-0.1c-0.2,0-0.4-0.2-0.5-0.3c-0.1-0.2,0-0.5,0.1-0.8
				c0.3-1,0.3-2.1-0.1-3.1c0-0.1,0-0.2,0.1-0.2s0.2,0,0.2,0.1l0,0c0.4,1,0.4,2.2,0.1,3.3c-0.1,0.3-0.1,0.4-0.1,0.5
				c0.1,0.1,0.2,0.2,0.3,0.2c0.6,0.2,1.4,0,1.8-0.6c0.1-0.1,0.2-0.1,0.2,0c0.1,0,0.1,0.1,0,0.2C30.2,21.9,29.7,22.2,29.1,22.2z"/>
			<path id="Path_10318" class="st9" d="M31,15.8c-0.3,0-0.5-0.2-0.5-0.5c0-0.2,0.1-0.3,0.2-0.4c1.1-0.6,2.4-0.8,3.6-0.3
				c0.2,0.1,0.3,0.4,0.2,0.7c-0.1,0.2-0.4,0.3-0.6,0.2c-0.9-0.3-1.9-0.2-2.7,0.3C31.1,15.7,31.1,15.8,31,15.8z"/>
			<path id="Path_10319" class="st9" d="M22.1,19.1c-0.3,0-0.5-0.2-0.5-0.5c0-0.1,0-0.2,0.1-0.3c0.6-0.9,1.6-1.5,2.7-1.8
				c0.3,0,0.5,0.1,0.6,0.4c0,0.3-0.1,0.5-0.4,0.5c-0.8,0.2-1.5,0.7-2,1.4C22.4,19,22.3,19.1,22.1,19.1L22.1,19.1z"/>
			<path id="Path_10320" class="st5" d="M38.6,6.1c0.5-0.8,0.3-1.9-0.5-2.4c-0.1-0.1-0.2-0.1-0.3-0.2c-0.1,0-0.3-0.1-0.4-0.2
				c-0.2-0.1-0.3-0.3-0.3-0.5l-0.4-1.2c0-0.3-0.3-0.5-0.6-0.4c-0.7-0.2-1.4,0-2,0.3c-0.7-0.5-1.6-0.8-2.5-0.9
				c-0.3,0-0.6,0.1-0.8,0.1c-1.1,0-2.1-1-3.2-0.6c-0.3,0.1-0.5,0.3-0.8,0.4c-0.8,0.3-1.6,0.6-2.4,0.7c-0.8,0.2-1.5,0.8-1.8,1.6
				c0,0.2-0.1,0.4-0.1,0.5c-0.1,0.1-0.2,0.2-0.4,0.3c-0.9,0.3-1.7,0.7-2.5,1.2c-0.8,0.6-0.9,1.7-0.3,2.4l0,0c-0.6,0.2-1,0.6-1.3,1.1
				c-0.3,0.5-0.3,1.2,0,1.7c0.1,0.1,0.1,0.2,0.1,0.3c0,0.2-0.2,0.4-0.4,0.5c-0.8,0.7-1,1.9-0.5,2.8c0.1,0.2,0.3,0.4,0.3,0.6
				c0,0.2,0.1,0.4,0.1,0.6c0.1,0.5,0.5,1,1,1.1c0.7,0,1.3-0.2,1.8-0.7c0,0.2,0.3,0.4,0.6,0.4c1.6,0,3-1,3.4-2.6
				c0.9,0.1,2,0.1,2.4-0.7c0.1-0.2,0.1-0.4,0.2-0.6l0.4-1.9c0.3-0.1,0.5,0.2,0.6,0.5c0,0.3,0.1,0.5,0.2,0.8c0.3,0.6,1.2,0.6,1.8,0.5
				c0.4,0,0.8-0.1,1.1-0.3c0.3-0.2,0.6-0.5,0.6-0.9c0.5,0.5,1.2,0.7,1.9,0.6c1.7-0.2,3.2-0.8,4.7-1.7c0.5-0.3,0.9-0.5,1-1.1
				C39.4,7.3,39.1,6.6,38.6,6.1L38.6,6.1z"/>
			<path id="Path_10321" class="st3" d="M56.3,78.8c0,0,14.2-8.4,21.9,0.8s-6,16.4-9.3,19.3c-3,2.9-6.9,4.9-11.1,5.5
				c-4.1,0.5-5.3,0.9-10,2.5s-8.6,3-9.1,3.3s-8.1,3-8.1,3s-7.8-7.8-8-10.2c0,0,7.7-6.8,9.8-8.8s12.7-4.5,14.5-7S56.3,78.8,56.3,78.8
				L56.3,78.8z"/>
			<circle id="Ellipse_183" class="st10" cx="40.5" cy="68.7" r="1.4"/>
		</g>
	</g>
</g>
</svg>
