<?xml version="1.0" encoding="utf-8"?>
<!-- Generator: Adobe Illustrator 27.2.0, SVG Export Plug-In . SVG Version: 6.00 Build 0)  -->
<svg version="1.1" id="圖層_1" xmlns="http://www.w3.org/2000/svg" xmlns:xlink="http://www.w3.org/1999/xlink" x="0px" y="0px"
	 viewBox="0 0 192 192" style="enable-background:new 0 0 192 192;" xml:space="preserve">
<style type="text/css">
	.st0{fill:url(#SVGID_1_);}
	.st1{clip-path:url(#SVGID_00000132784246497484198300000017451613684684975765_);}
	.st2{fill:#E5EBFB;}
	.st3{fill:#CADDEF;}
	.st4{fill:#5B9BE0;}
	.st5{fill:url(#SVGID_00000023995323528119425670000009029211601342453393_);}
	.st6{fill:#7DBBEA;}
	.st7{fill:none;}
	.st8{fill:#185EAA;}
	.st9{fill:#1E76D5;}
	.st10{fill:#FFFFFF;}
</style>
<g>
	
		<linearGradient id="SVGID_1_" gradientUnits="userSpaceOnUse" x1="96" y1="191.89" x2="96" y2="-0.11" gradientTransform="matrix(1 0 0 -1 0 191.89)">
		<stop  offset="0" style="stop-color:#4B91DD"/>
		<stop  offset="1" style="stop-color:#4B91DD;stop-opacity:0.1"/>
	</linearGradient>
	<path class="st0" d="M192,96c0,30.6-14.3,57.8-36.5,75.4c-8.7,6.9-18.7,12.3-29.5,15.9c-0.8,0.3-1.6,0.5-2.5,0.8
		c-1.1,0.3-2.2,0.6-3.3,0.9c-7.7,2-15.8,3.1-24.2,3.1c-12.3,0-24.1-2.3-34.9-6.5c-2.9-1.1-5.8-2.4-8.6-3.8
		c-7.7-3.9-14.8-8.8-21.2-14.6c-1.2-1.1-2.4-2.2-3.5-3.4c-0.6-0.7-1.3-1.3-1.9-2C9.8,144.5,0,121.4,0,96C0,43,43,0,96,0
		S192,43,192,96z"/>
	<g>
		<defs>
			<path id="SVGID_00000171703614300375985980000004055541673432009861_" d="M192,96c0,30.6-14.3,57.8-36.5,75.4
				c-8.7,6.9-18.7,12.3-29.5,15.9c-0.8,0.3-1.6,0.5-2.5,0.8c-1.1,0.3-2.2,0.6-3.3,0.9c-7.7,2-15.8,3.1-24.2,3.1
				c-12.3,0-24.1-2.3-34.9-6.5c-2.9-1.1-5.8-2.4-8.6-3.8c-7.7-3.9-14.8-8.8-21.2-14.6c-1.2-1.1-2.4-2.2-3.5-3.4
				c-0.6-0.7-1.3-1.3-1.9-2C9.8,144.5,0,121.4,0,96C0,43,43,0,96,0S192,43,192,96z"/>
		</defs>
		<clipPath id="SVGID_00000178904122105650682170000001059263195745922948_">
			<use xlink:href="#SVGID_00000171703614300375985980000004055541673432009861_"  style="overflow:visible;"/>
		</clipPath>
		<g style="clip-path:url(#SVGID_00000178904122105650682170000001059263195745922948_);">
			<g>
				<path class="st2" d="M140.5,142.3H61.1c-6.3,0-11.3-5.1-11.3-10.3v-73c0-5.7,3.8-9.5,8.5-9.5h79.4c4.7,0,8.5,3.8,8.5,9.5v78.7
					C146.2,139.7,143.7,142.3,140.5,142.3z"/>
				<g>
					<g>
						<path class="st3" d="M65.9,98.6c3,0,5.4-1.1,5.4-2.5c0-1.4-2.4-2.5-5.4-2.5c-3,0-5.4,1.1-5.4,2.5
							C60.5,97.4,62.9,98.6,65.9,98.6z"/>
						<path class="st3" d="M130.1,98.6c3,0,5.4-1.1,5.4-2.5c0-1.4-2.4-2.5-5.4-2.5c-3,0-5.4,1.1-5.4,2.5
							C124.7,97.4,127.1,98.6,130.1,98.6z"/>
					</g>
					<g>
						<path class="st4" d="M106.8,92.2c0.5,0,0.9,0.2,1.3,0.5c0.9,0.7,1,2,0.2,2.9c-0.2,0.2-4.1,4.7-9.9,4.9
							c-3.7,0.1-7.1-1.5-10.4-4.8c-0.8-0.8-0.8-2.1,0-2.9c0.8-0.8,2.1-0.8,2.9,0c2.4,2.4,4.8,3.6,7.3,3.5c3.9-0.1,6.9-3.4,6.9-3.4
							C105.6,92.4,106.2,92.2,106.8,92.2L106.8,92.2z"/>
						<path class="st4" d="M80,86.6c2.3,0,4.1-1.8,4.1-4.1c0-2.3-1.9-4.1-4.1-4.1s-4.1,1.8-4.1,4.1C75.8,84.8,77.7,86.6,80,86.6z"/>
						<path class="st4" d="M115.7,86.6c2.3,0,4.1-1.8,4.1-4.1c0-2.3-1.9-4.1-4.1-4.1c-2.3,0-4.1,1.8-4.1,4.1
							C111.6,84.8,113.4,86.6,115.7,86.6z"/>
					</g>
				</g>
			</g>
			<g>
				
					<linearGradient id="SVGID_00000165947550860901398790000006070790162041691024_" gradientUnits="userSpaceOnUse" x1="78.1575" y1="207.6153" x2="78.1575" y2="118.7452">
					<stop  offset="0" style="stop-color:#A3CBEF;stop-opacity:0.5"/>
					<stop  offset="1" style="stop-color:#A3CBEF"/>
				</linearGradient>
				<path style="fill:url(#SVGID_00000165947550860901398790000006070790162041691024_);" d="M129.2,118.7h-5.7H122H38.5
					c-6.3,0-11.3,5.1-11.3,11.3v69c0,4.7,3.8,8.5,8.5,8.5H115c4.7,0,8.5-3.8,8.5-11.5v-72h5.7V118.7z"/>
				<path class="st6" d="M104.2,145.3H46.4c-3.1,0-5.7-2.5-5.7-5.7v0c0-3.1,2.5-5.7,5.7-5.7h57.9c3.1,0,5.7,2.5,5.7,5.7v0
					C109.9,142.8,107.4,145.3,104.2,145.3z"/>
				<path class="st6" d="M81.5,166.9H46.4c-3.1,0-5.7-2.5-5.7-5.7v0c0-3.1,2.5-5.7,5.7-5.7h35.1c3.1,0,5.7,2.5,5.7,5.7v0
					C87.2,164.3,84.7,166.9,81.5,166.9z"/>
			</g>
			<rect x="60.5" y="78.4" class="st7" width="75" height="22"/>
			<path class="st8" d="M134.9,124.4c0-3.1-2.5-5.7-5.7-5.7c-3.1,0-5.7,2.5-5.7,5.7v6.5v11.3h11.3h5.7c-3.1,0-5.7-2.5-5.7-5.7"/>
			<g>
				<circle class="st9" cx="144.2" cy="58.9" r="22.7"/>
				<g>
					<path class="st10" d="M143.1,66.7l-7.6-7.6c-0.9-0.9-0.9-2.5,0-3.4v0c0.9-0.9,2.5-0.9,3.4,0l7.6,7.6L143.1,66.7z"/>
					<path class="st10" d="M154.5,55.3l-11.4,11.4l-3.4-3.4L151,51.9c0.9-0.9,2.5-0.9,3.4,0v0C155.4,52.9,155.4,54.4,154.5,55.3z"/>
				</g>
			</g>
		</g>
	</g>
</g>
</svg>
