<svg id="圖層_1" data-name="圖層 1" xmlns="http://www.w3.org/2000/svg" xmlns:xlink="http://www.w3.org/1999/xlink" viewBox="0 0 45 30"><defs><style>.cls-1{fill:none;}.cls-2{clip-path:url(#clip-path);}.cls-3{fill:#d11431;}.cls-4{fill:#edb400;}.cls-5{clip-path:url(#clip-path-2);}.cls-6{fill:#9d0025;}.cls-7{fill:#c1b020;}.cls-8{fill:#fff;}.cls-9{fill:#3d8e6d;}.cls-10{fill:#3057bb;}.cls-11{fill:#cacaca;}.cls-12{fill:#c0b420;}.cls-13{fill:#ca3e4b;}.cls-14{fill:#de6ba8;}.cls-15{fill:#f7d591;}.cls-16{fill:#2f2aec;}.cls-17{clip-path:url(#clip-path-3);}</style><clipPath id="clip-path"><rect class="cls-1" width="45" height="30"/></clipPath><clipPath id="clip-path-2"><rect class="cls-1" width="51.45" height="30"/></clipPath><clipPath id="clip-path-3"><rect class="cls-1" x="14.24" y="15.96" width="1.36" height="1.62"/></clipPath></defs><g class="cls-2"><rect class="cls-3" width="45" height="30"/><rect class="cls-4" y="7.46" width="45" height="15.02"/><g class="cls-5"><path class="cls-6" d="M10,13.3s-.06,0-.06,0-.05-.06-.05-.06H9.86l0-.1a.08.08,0,0,1,0-.11c0-.05,0-.05,0-.1H10l.06-.06h.11s0,0,.1,0h.41c.06,0,.11,0,.11,0s.1,0,.1.06H11c.05,0,.05,0,.05.1s0,0,0,0v.06l0,.05v0l-.05.06,0,0a1.4,1.4,0,0,0-.53-.1,1.57,1.57,0,0,0-.41.1Z"/><path d="M11,13.3h0a2.37,2.37,0,0,0-.53,0,3.6,3.6,0,0,0-.41,0c-.11,0-.11-.1-.11-.1l-.1,0c0-.05-.05-.11,0-.16s0-.05,0-.1H10l.06-.06h.11l0,0h.58s.1,0,.1.1H11c.05,0,.05,0,.05.1l0,0h0v.06l0,.1-.05.06,0,0Zm-.53-.1c.16,0,.37.06.47.06H11l.1-.11,0-.11,0,0c0-.05,0-.05-.05-.1H10.9a.45.45,0,0,1-.15-.06.2.2,0,0,0-.11,0h-.41v0h-.1a.21.21,0,0,1-.11.06H9.86s0,0,0,.1v.11l0,.1c.05,0,.1.06.1.06s.32-.06.47-.06Z"/><path class="cls-7" d="M10.38,12.89a.26.26,0,0,1,0-.16c.11,0,.11.06.11.16s0,.15-.11.15a.22.22,0,0,1,0-.15Z"/><path d="M10.43,13a.22.22,0,0,1,0-.15c0-.21.16-.21.16,0s0,.15-.11.15Zm0-.31a.26.26,0,0,0,0,.16c0,.15.16.15.16,0s0-.16-.11-.16Z"/><path class="cls-7" d="M10.43,12.89c0-.1,0-.16.06-.16V13c-.06,0-.06-.05-.06-.1Z"/><path d="M10.49,13c-.06,0-.06-.1-.06-.15s0-.16.06-.16a.26.26,0,0,1,0,.16.5.5,0,0,1,0,.15Z"/><path class="cls-7" d="M10.43,12.73c0-.05,0-.05.06-.05a0,0,0,0,1,0,.05.05.05,0,0,1,0,.06c-.06,0-.06,0-.06-.06Z"/><polygon class="cls-7" points="10.49 12.68 10.49 12.73 10.44 12.73 10.44 12.68 10.44 12.68 10.44 12.63 10.44 12.63 10.44 12.58 10.44 12.58 10.44 12.58 10.49 12.58 10.49 12.58 10.54 12.58 10.54 12.63 10.49 12.63 10.49 12.68 10.49 12.68"/><polygon class="cls-1" points="10.49 12.68 10.49 12.73 10.44 12.73 10.44 12.68 10.44 12.68 10.44 12.63 10.44 12.63 10.44 12.58 10.44 12.58 10.44 12.58 10.49 12.58 10.49 12.58 10.54 12.58 10.54 12.63 10.49 12.63 10.49 12.68 10.49 12.68 10.49 12.68"/><polygon class="cls-7" points="10.54 12.68 10.54 12.73 10.38 12.73 10.38 12.68 10.44 12.68 10.44 12.63 10.44 12.63 10.44 12.58 10.44 12.58 10.44 12.58 10.49 12.58 10.49 12.58 10.54 12.58 10.54 12.63 10.49 12.63 10.49 12.68 10.54 12.68"/><polygon class="cls-1" points="10.54 12.68 10.54 12.73 10.38 12.73 10.38 12.68 10.44 12.68 10.44 12.63 10.44 12.63 10.44 12.58 10.44 12.58 10.44 12.58 10.49 12.58 10.49 12.58 10.54 12.58 10.54 12.63 10.49 12.63 10.49 12.68 10.54 12.68 10.54 12.68"/><path d="M10.49,12.79c-.06,0-.11,0-.11-.06a0,0,0,0,1,0-.05v.05c0,.06.11.06.11,0l0-.05s0,0,0,.05a.05.05,0,0,1,0,.06Z"/><path class="cls-7" d="M10.49,13.26h-.32V13.1l0-.06c-.06-.1-.11-.21-.17-.15s0-.06.06-.06.21.06.31.21v.06h.26V13c.16-.15.26-.25.37-.21v.06c0-.06-.11,0-.16.15l-.05.06v.16Z"/><path d="M10.75,13.26h-.58l0-.22c-.06-.1-.11-.15-.17-.15h0c.06,0,.17.1.17.15l0,.22h.58V13c.05,0,.15-.15.21-.15h0c-.06,0-.11,0-.16.15l-.05.22Zm-.42-.16c-.1-.21-.2-.27-.31-.27h0v0c.11,0,.21.1.31.25l.16.06Zm.26-.06c.11-.15.21-.25.31-.25v0h0c-.1,0-.2.11-.26.21Z"/><path d="M10.64,13.1c.11-.16.26-.27.32-.21h0c-.06-.06-.21,0-.32.21Zm-.36,0c-.11-.16-.26-.27-.32-.21h0c.06-.06.21,0,.32.21Z"/><path class="cls-7" d="M10,13.41V13.3a2.31,2.31,0,0,0,.47,0,1.61,1.61,0,0,0,.41,0v.11H10Z"/><path d="M10.07,13.46,10,13.41h0V13.3c.11,0,.26,0,.47,0s.31,0,.47,0l-.06.11h0V13.3H10c0,.06,0,.06.05.11h0a1.15,1.15,0,0,0,.36-.05.83.83,0,0,0,.32.05h-.32a.7.7,0,0,0-.36.05Z"/><path class="cls-7" d="M10.49,13.51h.36l.05,0-.05-.05h-.78l-.05.05a.18.18,0,0,0,.11,0Z"/><path d="M10.49,13.57a2.12,2.12,0,0,1-.36-.06.18.18,0,0,1-.11,0,1.16,1.16,0,0,1,.83-.05.07.07,0,0,1,0,.1c-.1,0-.26.06-.36.06Zm0-.16h-.42c-.05.05,0,.1.06.1h.72v0a.79.79,0,0,0-.36-.05Z"/><path class="cls-7" d="M11,13.26H10.8c-.05,0-.05-.06-.05-.06h-.21a.22.22,0,0,1-.11,0,0,0,0,0,1,0,0h-.15c0,.06-.06,0-.06,0l0,.06A.17.17,0,0,1,10,13.2v.06h0v0a1.51,1.51,0,0,1,.47,0,1.27,1.27,0,0,1,.41,0l.06,0Z"/><path d="M10.9,13.3a1.27,1.27,0,0,0-.41,0,1.51,1.51,0,0,0-.47,0v0h0V13.2l.11.06h0c0-.06,0-.06,0-.06h.21a0,0,0,0,0,0,0c.06,0,.06,0,.11,0h.21l.05.06.1-.06v.06h-.05c-.1,0-.1-.06-.1-.06s0,.06-.05.06a.17.17,0,0,1-.11-.06h-.26l-.05.06a.21.21,0,0,1-.11-.06s0,0,0,.06h.36a1.27,1.27,0,0,1,.41,0Z"/><path class="cls-7" d="M10.49,13.1h0v.05s0,0,0,0,.05,0,.05,0h.05s0,0,.06,0,.05,0,.05,0h0V13.1l.05.05c-.05,0-.05,0-.05,0s.05.06.1.06,0-.06.05-.06h0a.06.06,0,0,0,.06.06V13.2h.1l-.1.1h0c-.06,0-.06,0-.06,0h-.05s-.1,0-.1-.06a.05.05,0,0,1-.05.06c-.06,0-.06,0-.11-.06l-.05.06,0-.06c-.06,0-.06.06-.11.06s-.05-.06-.05-.06-.05.06-.1.06a.06.06,0,0,1-.06-.06c0,.06,0,.06,0,.06H10v0H9.91v-.1h0a.16.16,0,0,0,.11.06V13.2h0l.05.06a.06.06,0,0,0,.06-.06v0l0-.05v.05h0s.06,0,.06,0,.1,0,.1,0h0s0,0,.05,0,0,0,0,0V13.1Z"/><path d="M11,13.3h0v0s0-.06,0-.06l0,.06h0l-.06-.06c-.05.06-.15.06-.15,0h.15l.06.06V13.2h0c.05,0,0,.06,0,.1Zm-.94,0H9.91s0-.1-.05-.1h.05s0,.06.05.06H9.91V13.2l.11.06V13.2h0v.06h.05c.06,0,.1,0,.1-.06s.11.06.16,0,.1.06.1,0,.11.06.16,0,.16.06.16,0,.05.06.1.06h0s-.1,0-.1-.06-.11.06-.16,0-.1.06-.16,0a.05.05,0,0,1-.1,0c0,.06-.1.06-.16,0a.15.15,0,0,1,0,.1Zm.05,0L10,13.2h.11l0-.1c.06.16.11.1.16.05h0c0,.11-.16,0-.16,0a.11.11,0,0,1-.1.11Z"/><path class="cls-7" d="M10.49,13.3H10a1.51,1.51,0,0,1,.47,0,1.91,1.91,0,0,1,.47,0h-.47Z"/><path d="M11,13.3H10.9a3.24,3.24,0,0,0-.88,0h.05a3.32,3.32,0,0,1,.89,0Zm0,0a1.91,1.91,0,0,0-.47,0,.94.94,0,0,0-.36,0,.94.94,0,0,1,.36,0,1.91,1.91,0,0,1,.47,0Z"/><path class="cls-8" d="M10.28,13.3h.05v.06a.05.05,0,0,1-.05-.06Z"/><path class="cls-1" d="M10.28,13.3h.05v.06A.05.05,0,0,1,10.28,13.3Z"/><path class="cls-6" d="M10.49,13.36h-.06s0,0,0-.06h.16v.06Z"/><path class="cls-1" d="M10.49,13.36h-.06s0,0,0-.06h.16v.06Z"/><path class="cls-9" d="M10.17,13.36h0V13.3h.1v.06h-.06Z"/><path class="cls-1" d="M10.17,13.36h0V13.3h.1v.06h-.06Z"/><polygon class="cls-6" points="10.02 13.41 10.02 13.36 10.07 13.36 10.02 13.41 10.02 13.41"/><polygon class="cls-1" points="10.02 13.41 10.02 13.36 10.07 13.36 10.02 13.41 10.02 13.41 10.02 13.41"/><path class="cls-8" d="M10.59,13.3h.05c0,.06,0,.06-.05.06V13.3Z"/><path class="cls-1" d="M10.59,13.3h.05c0,.06,0,.06-.05.06Z"/><path class="cls-9" d="M10.75,13.36h.05V13.3h-.05c-.05,0-.05,0-.05.06h.05Z"/><path class="cls-1" d="M10.75,13.36h.05V13.3h-.05c-.05,0-.05,0-.05.06h.05Z"/><rect class="cls-6" x="10.85" y="13.36" width="0.05" height="0.05"/><polygon class="cls-1" points="10.9 13.41 10.9 13.36 10.85 13.36 10.85 13.41 10.9 13.41 10.9 13.41"/><path class="cls-6" d="M10.49,13.51a1.05,1.05,0,0,1-.42,0c.1,0,.26-.05.42-.05s.26.05.36.05a.9.9,0,0,1-.36,0Z"/><path d="M10.49,13.51h0a1.05,1.05,0,0,1-.42,0,2,2,0,0,1,.78,0,.79.79,0,0,1-.36,0Zm0-.1a2.51,2.51,0,0,0-.36.05s.2,0,.36,0a.79.79,0,0,0,.36,0c-.1,0-.26-.05-.36-.05Z"/><path class="cls-7" d="M10.9,13.2c.06,0,0,0,0,0v0Z"/><path class="cls-1" d="M10.9,13.2c.06,0,0,0,0,0v0Z"/><path class="cls-7" d="M10.64,13.15V13.1c-.05,0-.05,0-.05.05h.05Z"/><path class="cls-1" d="M10.64,13.15V13.1c-.05,0-.05,0-.05.05h.05Z"/><path class="cls-7" d="M10.33,13.15c-.05-.05,0-.05,0-.05v.05Z"/><path class="cls-1" d="M10.33,13.15c-.05-.05,0-.05,0-.05v.05Z"/><polygon class="cls-7" points="10.49 12.99 10.44 12.99 10.44 13.1 10.49 13.1 10.49 13.1 10.54 12.99 10.49 12.99"/><polygon class="cls-1" points="10.49 12.99 10.44 12.99 10.44 13.1 10.49 13.1 10.49 13.1 10.54 12.99 10.49 12.99 10.49 12.99"/><polygon class="cls-7" points="10.33 13.1 10.38 13.15 10.44 13.1 10.44 13.1 10.44 13.1 10.38 13.04 10.33 13.1"/><polygon class="cls-1" points="10.33 13.1 10.38 13.15 10.44 13.1 10.44 13.1 10.44 13.1 10.38 13.04 10.33 13.1 10.33 13.1"/><polygon class="cls-7" points="10.59 13.1 10.54 13.15 10.49 13.1 10.49 13.1 10.49 13.1 10.54 13.04 10.59 13.1"/><polygon class="cls-1" points="10.59 13.1 10.54 13.15 10.49 13.1 10.49 13.1 10.49 13.1 10.54 13.04 10.59 13.1 10.59 13.1"/><polygon class="cls-7" points="10.13 12.99 10.13 13.04 10.13 13.1 10.13 13.1 10.17 13.1 10.17 13.04 10.13 12.99"/><polygon class="cls-1" points="10.13 12.99 10.13 13.04 10.13 13.1 10.13 13.1 10.17 13.1 10.17 13.04 10.13 12.99 10.13 12.99"/><polygon class="cls-7" points="10.02 13.15 10.07 13.2 10.13 13.15 10.13 13.1 10.13 13.1 10.07 13.1 10.02 13.15"/><polygon class="cls-1" points="10.02 13.15 10.07 13.2 10.13 13.15 10.13 13.1 10.13 13.1 10.07 13.1 10.02 13.15 10.02 13.15"/><polygon class="cls-7" points="10.28 13.1 10.23 13.15 10.17 13.15 10.17 13.1 10.17 13.1 10.23 13.1 10.28 13.1"/><polygon class="cls-1" points="10.28 13.1 10.23 13.15 10.17 13.15 10.17 13.1 10.17 13.1 10.23 13.1 10.28 13.1 10.28 13.1"/><polygon class="cls-7" points="9.96 13.15 9.96 13.2 9.86 13.2 9.86 13.2 9.86 13.2 9.91 13.15 9.96 13.15"/><polygon class="cls-1" points="9.96 13.15 9.96 13.2 9.86 13.2 9.86 13.2 9.86 13.2 9.91 13.15 9.96 13.15 9.96 13.15"/><path class="cls-7" d="M10.13,13.1h0v.05s0,0,0-.05Z"/><path class="cls-1" d="M10.13,13.1h0v.05S10.13,13.15,10.13,13.1Z"/><polygon class="cls-7" points="10.8 12.99 10.85 13.04 10.8 13.1 10.75 13.1 10.75 13.1 10.75 13.04 10.8 12.99"/><polygon class="cls-1" points="10.8 12.99 10.85 13.04 10.8 13.1 10.75 13.1 10.75 13.1 10.75 13.04 10.8 12.99 10.8 12.99"/><polygon class="cls-7" points="10.85 13.15 10.85 13.2 10.75 13.15 10.75 13.1 10.8 13.1 10.85 13.1 10.85 13.15"/><polygon class="cls-1" points="10.85 13.15 10.85 13.2 10.75 13.15 10.75 13.1 10.8 13.1 10.85 13.1 10.85 13.15 10.85 13.15"/><polygon class="cls-7" points="10.64 13.1 10.7 13.15 10.75 13.15 10.75 13.1 10.75 13.1 10.7 13.1 10.64 13.1"/><polygon class="cls-1" points="10.64 13.1 10.7 13.15 10.75 13.15 10.75 13.1 10.75 13.1 10.7 13.1 10.64 13.1 10.64 13.1"/><polygon class="cls-7" points="10.96 13.15 10.96 13.2 11.06 13.2 11.06 13.2 11.06 13.2 10.96 13.15 10.96 13.15"/><polygon class="cls-1" points="10.96 13.15 10.96 13.2 11.06 13.2 11.06 13.2 11.06 13.2 10.96 13.15 10.96 13.15 10.96 13.15"/><path class="cls-7" d="M10.43,13.1a.06.06,0,0,1,.06-.06v.06h-.06Z"/><path class="cls-1" d="M10.43,13.1a.06.06,0,0,1,.06-.06v.06h-.06Z"/><path class="cls-7" d="M10.75,13.1h.05c0,.05,0,.05-.05.05V13.1Z"/><path class="cls-1" d="M10.75,13.1h.05c0,.05,0,.05-.05.05Z"/><path class="cls-7" d="M9.86,13.2a0,0,0,0,1,0,0H9.76l.05-.05v0a0,0,0,0,1,0,.05v0Z"/><path class="cls-1" d="M9.86,13.2a0,0,0,0,1,0,0H9.76l.05-.05v0a0,0,0,0,1,0,.05v0Z"/><path class="cls-7" d="M11.06,13.2l0,0h.06l-.06-.05a0,0,0,0,0,0,.05v0Z"/><path class="cls-1" d="M11.06,13.2l0,0h.06l-.06-.05a0,0,0,0,0,0,.05v0Z"/><rect class="cls-7" x="9.81" y="13.51" width="1.3" height="0.37"/><path d="M11.17,13.88H9.81v-.37h1.3l.06.37Zm-.06-.37H9.81v.37h1.3v-.37Z"/><path class="cls-7" d="M9.91,14.14l.05-.05h1V14c0-.06,0-.11,0-.11H9.91C10,14,10,14,10,14l-.11.1Z"/><path d="M11,14.14H10l1-.05L10.9,14c0-.06.06-.06.06-.11V14a0,0,0,0,0,0,.05v.05Zm-1,0V14H9.91l.05-.05L9.91,14H10l.37-.05L10,14C10,14,10,14,10,14a.14.14,0,0,1-.06.1Z"/><path class="cls-7" d="M10,14.09h1a0,0,0,0,1,0,.05s0,0,0,0H10c-.05,0-.05,0-.05,0a0,0,0,0,1,.05-.05Z"/><path d="M11,14.19H10c-.05,0-.05,0-.05,0a0,0,0,0,1,.05-.05h1a.17.17,0,0,1,.1.05s-.05,0-.1,0Zm-1,0v0h1l0,0Z"/><path class="cls-7" d="M10,13.88h1s0,0,0,0H9.91s0,0,.05,0Z"/><path d="M11,14H10a0,0,0,0,1-.05-.05s0,0,.05,0h1s.1,0,.1,0A.17.17,0,0,1,11,14Zm-1-.1,1,0h0l-1,0Z"/><path class="cls-10" d="M11.37,19.72a.3.3,0,0,1-.2,0c-.06,0-.16-.05-.21-.05a2,2,0,0,0-.26.05.44.44,0,0,1-.27,0,.3.3,0,0,1-.2,0c-.06,0-.1-.05-.21-.05a2,2,0,0,0-.26.05.28.28,0,0,1-.21,0v.16a.28.28,0,0,0,.21-.05c.05-.06.15-.06.26-.06s.15,0,.21.06a.3.3,0,0,0,.2.05.44.44,0,0,0,.27-.05c.05-.06.15-.06.26-.06a.3.3,0,0,1,.21.06.3.3,0,0,0,.2.05v-.16Z"/><path d="M11.37,19.88h0a.3.3,0,0,1-.2-.05.63.63,0,0,0-.47,0,.75.75,0,0,1-.47,0,.63.63,0,0,0-.47,0,.34.34,0,0,1-.21.05l-.06-.16a.44.44,0,0,0,.27,0,.75.75,0,0,1,.47,0,.75.75,0,0,0,.47,0,.75.75,0,0,1,.47,0,.3.3,0,0,0,.2,0v.16ZM10,19.67H9.76a.45.45,0,0,1-.21.1v.11a.34.34,0,0,0,.21-.05.63.63,0,0,1,.47,0,.75.75,0,0,0,.47,0,.63.63,0,0,1,.47,0c.05,0,.1.05.2.05v-.16c0,.05-.15,0-.2,0a.75.75,0,0,0-.47,0,.41.41,0,0,1-.47,0Z"/><path class="cls-11" d="M11.37,19.88a.3.3,0,0,1-.2-.05.3.3,0,0,0-.21-.06c-.11,0-.21,0-.26.06a.44.44,0,0,1-.27.05.3.3,0,0,1-.2-.05c-.06-.06-.1-.06-.21-.06s-.21,0-.26.06a.28.28,0,0,1-.21.05V20c.1,0,.15-.06.21-.06a.39.39,0,0,1,.26-.05c.11,0,.15,0,.21.05s.15.06.2.06A2.31,2.31,0,0,0,10.7,20a.39.39,0,0,1,.26-.05.34.34,0,0,1,.21.05c.05,0,.15.06.2.06v-.16Z"/><path d="M11.37,20h0a.26.26,0,0,1-.2-.06.75.75,0,0,0-.47,0,.64.64,0,0,1-.47,0,.75.75,0,0,0-.47,0c-.06,0-.16.06-.21.06l-.06-.16a.44.44,0,0,0,.27-.05.63.63,0,0,1,.47,0,.75.75,0,0,0,.47,0,.63.63,0,0,1,.47,0,.3.3,0,0,0,.2.05V20ZM10,19.77a1.71,1.71,0,0,0-.26.06.34.34,0,0,1-.21.05V20A.27.27,0,0,1,9.76,20a.4.4,0,0,1,.47,0,.63.63,0,0,0,.47,0,.4.4,0,0,1,.47,0h.2v-.1a.3.3,0,0,1-.2-.05.63.63,0,0,0-.47,0,.75.75,0,0,1-.47,0c-.06,0-.16-.06-.21-.06Z"/><path class="cls-10" d="M11.37,20s-.15-.06-.2-.06a.34.34,0,0,0-.21-.05.39.39,0,0,0-.26.05,2.31,2.31,0,0,1-.27.06s-.15-.06-.2-.06-.1-.05-.21-.05a.39.39,0,0,0-.26.05c-.06,0-.11.06-.21.06v.15a.3.3,0,0,0,.21-.1h.47a.38.38,0,0,0,.2.1.44.44,0,0,0,.27-.1h.47a.38.38,0,0,0,.2.1V20Z"/><path d="M11.37,20.19h0s-.15-.05-.2-.05a.75.75,0,0,0-.47,0,.75.75,0,0,1-.47,0,.75.75,0,0,0-.47,0c-.06,0-.16.05-.21.05L9.49,20A.53.53,0,0,1,9.76,20a.4.4,0,0,1,.47,0,.63.63,0,0,0,.47,0,.4.4,0,0,1,.47,0h.2v.21ZM10,19.93a.39.39,0,0,0-.26.05c-.06,0-.16.06-.21.06v.15c0-.05.15-.05.21-.1a.75.75,0,0,1,.47,0,.41.41,0,0,0,.47,0,.75.75,0,0,1,.47,0c.05.05.1.05.2.05V20s-.15-.06-.2-.06a.75.75,0,0,0-.47,0,.64.64,0,0,1-.47,0,.34.34,0,0,0-.21-.05Z"/><path class="cls-11" d="M11.37,20.3a.26.26,0,0,1-.2-.06c-.06,0-.16,0-.21,0a2,2,0,0,0-.26,0,.38.38,0,0,1-.27.06.26.26,0,0,1-.2-.06c-.06,0-.1,0-.21,0a2,2,0,0,0-.26,0c-.06.06-.11.06-.21.06v-.11a.3.3,0,0,0,.21-.1h.47a.38.38,0,0,0,.2.1.44.44,0,0,0,.27-.1h.47a.38.38,0,0,0,.2.1v.11Z"/><path d="M11.37,20.3h-.2a.38.38,0,0,0-.47,0,.75.75,0,0,1-.47,0,.37.37,0,0,0-.47,0H9.55l-.06-.11c.11-.05.21-.05.27-.1a.75.75,0,0,1,.47,0,.41.41,0,0,0,.47,0,.75.75,0,0,1,.47,0,.3.3,0,0,0,.2.05v.16ZM10,20.09a.39.39,0,0,0-.26.05c-.06,0-.16.05-.21.05v.11a.3.3,0,0,0,.21-.06.75.75,0,0,1,.47,0,.63.63,0,0,0,.47,0,.75.75,0,0,1,.47,0c.05.06.1.06.2.06v-.11s-.15-.05-.2-.05a.75.75,0,0,0-.47,0,.75.75,0,0,1-.47,0,.34.34,0,0,0-.21-.05Z"/><path class="cls-10" d="M11.37,20.45a.3.3,0,0,1-.2-.05c-.06,0-.16,0-.21,0a2,2,0,0,0-.26,0,.44.44,0,0,1-.27.05.3.3,0,0,1-.2-.05c-.06,0-.1,0-.21,0a2,2,0,0,0-.26,0,.28.28,0,0,1-.21.05V20.3c.1,0,.15,0,.21-.06a2,2,0,0,1,.26,0c.11,0,.15,0,.21,0a.26.26,0,0,0,.2.06.38.38,0,0,0,.27-.06,2,2,0,0,1,.26,0s.15,0,.21,0a.26.26,0,0,0,.2.06v.15Z"/><path d="M11.37,20.45h0a.3.3,0,0,1-.2-.05.75.75,0,0,0-.47,0,.38.38,0,0,1-.47,0,.75.75,0,0,0-.47,0,.34.34,0,0,1-.21.05l-.06-.15a.38.38,0,0,0,.27-.06.75.75,0,0,1,.47,0,.63.63,0,0,0,.47,0,.75.75,0,0,1,.47,0,.26.26,0,0,0,.2.06v.15ZM10,20.19a.35.35,0,0,0-.26.11H9.55v.15s.15-.05.21-.05a.4.4,0,0,1,.47,0,.75.75,0,0,0,.47,0,.4.4,0,0,1,.47,0c.05,0,.1.05.2.05V20.3h-.2a.37.37,0,0,0-.47,0,.75.75,0,0,1-.47,0,.39.39,0,0,0-.21-.11Z"/><path class="cls-7" d="M9.91,19.15a0,0,0,0,1,.05.05.22.22,0,0,1-.15.16h1.36A.22.22,0,0,1,11,19.2v-.05H9.91Z"/><path d="M11.17,19.36H9.81s.1-.1.1-.16H10a.14.14,0,0,1-.15.16h1.25c-.05-.06-.1-.1-.1-.16l-.68-.05H11c0,.11.1.21.21.21Z"/><path class="cls-7" d="M10,19h1s0,.06,0,.06,0,0,0,0H10c-.05,0-.05,0-.05,0s0-.06.05-.06Z"/><path d="M11,19.15H10c-.05,0-.05,0-.05,0s0-.06.05-.06h1s.1,0,.1.06-.05,0-.1,0ZM10,19v.11h1a0,0,0,0,0,0,0L10,19Z"/><rect class="cls-7" x="9.81" y="19.36" width="1.36" height="0.32"/><path d="M11.17,19.67H9.81l-.05-.31h1.41v.31Zm0-.31H9.81v.31h1.36v-.31Z"/><path class="cls-6" d="M9.7,17.85a.7.7,0,0,0-.25.15c0,.05,0,.11.15.11a.34.34,0,0,1,.1.26.37.37,0,0,0,.11-.26.35.35,0,0,0-.11-.26Z"/><path d="M9.7,18.37h0v-.05c0-.06,0-.11-.1-.17s-.15-.1-.15-.15.15-.15.25-.21a.68.68,0,0,1,.11.32c0,.1,0,.21-.11.26Zm0-.52a.44.44,0,0,0-.16.15c0,.05,0,.11.11.11a.35.35,0,0,1,.1.21h0a.27.27,0,0,0,.11-.21.27.27,0,0,0-.16-.26Z"/><rect class="cls-11" x="9.96" y="14.24" width="0.99" height="4.75"/><path d="M10.8,19l-.05-4.75h.05V19Zm-.1,0-.06-4.75h.06V19Z"/><path d="M11,19H10V14.24h1V19Zm0-4.75H10V19h1V14.24Z"/><path class="cls-6" d="M12,16a2.54,2.54,0,0,0-1-.16,1.24,1.24,0,0,0-.47.06c-.58.1-1,.31-1,.51h0s-.2-.47-.2-.51c0-.22.41-.47,1.09-.58.21,0,.37-.05.58-.05a3.62,3.62,0,0,1,1,.16V16Z"/><path d="M9.49,16.43h0c0-.1-.2-.47-.2-.51v-.11a2,2,0,0,1,1.09-.47,2.93,2.93,0,0,1,1.57.11V16c-.26-.06-.58-.1-1-.16-.16,0-.32.06-.47.06-.47.1-.84.2-.94.41-.06,0-.06.05-.06.1ZM11,15.34a2.09,2.09,0,0,0-.58.05c-.47.06-.93.21-1,.42a.17.17,0,0,0-.05.11s.1.25.2.46v-.1a1.72,1.72,0,0,1,1-.36,1.24,1.24,0,0,1,.47-.06A2.54,2.54,0,0,1,12,16l0-.57a3.54,3.54,0,0,0-.94-.11Z"/><path class="cls-6" d="M10,16.64c-.26-.05-.47-.1-.47-.21s.11-.2.27-.31.15.05.2.05v.47Z"/><path d="M10,16.64h0c-.26,0-.47-.1-.47-.21s.06-.2.21-.31H10v.52Zm-.15-.47c-.21.06-.32.16-.32.26s.21.16.47.21v-.47Z"/><path class="cls-6" d="M11,16.28a.62.62,0,0,1,.36.1h0c0,.05-.15.21-.36.37v-.47Z"/><path d="M11,16.75v-.47a.62.62,0,0,1,.36.1c0,.11-.21.26-.36.37Zm0-.47v.42c.26-.16.36-.27.36-.32a.76.76,0,0,0-.36-.1Z"/><path class="cls-6" d="M9.39,17.53c-.05-.05.21-.21.57-.36a4.81,4.81,0,0,0,.53-.21c.47-.21.88-.47.83-.58h0l0,.47c.06.11-.31.37-.78.58a3.1,3.1,0,0,1-.63.26c-.26.1-.51.26-.47.31l-.1-.47Z"/><path d="M9.45,18.05V18h0l-.06-.47c-.05-.1.26-.26.57-.36a2,2,0,0,0,.47-.21,2.18,2.18,0,0,0,.89-.53v-.05h0v.05a1.39,1.39,0,0,1,0,.42c0,.16-.36.42-.78.63l-.63.21a1,1,0,0,0-.47.31h0v.05Zm1.87-1.62c0,.11-.42.37-.83.53a4.81,4.81,0,0,1-.53.21c-.36.15-.57.31-.57.36l.1.47c0-.1.27-.26.47-.31s.47-.21.63-.26a1.69,1.69,0,0,0,.78-.53s0-.36,0-.47Z"/><path class="cls-7" d="M9.91,15.81c.11-.05.22-.11.16-.21a.1.1,0,0,0-.16,0l-.21.05.16.37c.05,0,.05-.06.05-.06H10l-.05-.15Zm-.05-.21h.05a0,0,0,0,1,.05.05s0,0-.05.11h0l-.05-.16Z"/><path class="cls-7" d="M10.28,15.49h-.11l.11.37.26,0h0v-.05a.2.2,0,0,1-.16.05l-.1-.32Z"/><path class="cls-7" d="M10.8,15.81c0-.16.16-.26.16-.42H10.9a.75.75,0,0,1-.1.31.72.72,0,0,0-.16-.25h-.1c.05.1.16.25.21.36Z"/><path class="cls-7" d="M11.37,15.49v0a.14.14,0,0,1-.1-.06c-.1,0-.16.06-.16.1s.21.16.16.21,0,.11,0,.11a.12.12,0,0,1-.11-.11h0a.22.22,0,0,0,0,.11h.11c.1,0,.2,0,.2-.11s-.2-.1-.2-.21a.19.19,0,0,1,.1,0c.05,0,.05,0,.1,0Z"/><path class="cls-6" d="M19.36,13.15l-.06,0h-.15a.07.07,0,0,1-.11,0s0,.06-.05.06h-.16l0-.06h-.06v-.1h0c0-.06.06-.11.16-.11H19c0-.05.11-.05.21-.05a.2.2,0,0,1,.16.05.18.18,0,0,1,.15-.05c.11,0,.21,0,.21.05h.11c.1,0,.15,0,.15.11h0a.17.17,0,0,1-.05.1h0l-.05.06h-.16s0-.06,0-.06a.06.06,0,0,1-.1,0h-.16l-.05,0Z"/><path d="M19.83,13.3h0l-.06,0h-.05s0-.06-.1-.06,0,.06-.05.06l-.06-.06H19.2l-.05.06h0s0-.06-.11-.06,0,.06-.05.06h0L19,13.2h.22s0,0,.1,0l.05,0h.21c.05,0,.1,0,.1.06h0l.05-.06.06.06L20,13.1c0-.06-.05-.11-.15-.11h0c.1,0,.15,0,.15.11v.1l-.15.1Zm-1-.1h-.06v-.1c-.05-.06.06-.11.16-.11h.05c.16-.05.36-.1.42,0,.05-.1.26-.1.36,0a.43.43,0,0,0-.36,0A.47.47,0,0,0,19,13h-.1c-.1,0-.16,0-.16.11l.06.1Z"/><path class="cls-7" d="M19.26,12.89a.09.09,0,0,1,.1-.1c.05,0,.05,0,.05.1s0,.15-.05.15-.1,0-.1-.15Z"/><path d="M19.36,13c-.06,0-.1,0-.1-.15s.2-.1.2,0-.05.15-.1.15Zm0-.25c-.06,0-.06,0-.06.1s.11.15.11,0,0-.1-.05-.1Z"/><path class="cls-7" d="M19.3,12.89c0-.06,0-.1.06-.1a.14.14,0,0,1,.05.1c0,.1-.05.1-.05.1s-.06,0-.06-.1Z"/><path class="cls-1" d="M19.3,12.89c0-.06,0-.1.06-.1a.14.14,0,0,1,.05.1c0,.1-.05.1-.05.1S19.3,13,19.3,12.89Z"/><path class="cls-7" d="M18.94,13.41a.22.22,0,0,0-.05-.11,2.12,2.12,0,0,0,.47,0,2,2,0,0,0,.47,0,.16.16,0,0,1-.06.11h-.83Z"/><path d="M18.94,13.46v-.05h0a.17.17,0,0,1-.05-.11c.1,0,.31,0,.47,0s.36,0,.47,0l-.06.11h0l.06-.11h-.94c0,.06.05.06.05.11h0a1.39,1.39,0,0,0,.42-.05.67.67,0,0,0,.31.05h-.31a1.05,1.05,0,0,0-.42.05Z"/><path class="cls-7" d="M19.36,13.51h.36a0,0,0,0,0,.05,0v-.05h-.83v.05a0,0,0,0,0,0,0Z"/><path d="M19.36,13.57a2.54,2.54,0,0,1-.37-.06s-.1,0,0,0a1.14,1.14,0,0,1,.83-.05c0,.05,0,.1-.05.1a2.59,2.59,0,0,1-.36.06Zm0-.16h-.42c0,.05,0,.1,0,.1h.73l.05,0a1,1,0,0,0-.41-.05Z"/><path class="cls-8" d="M19.72,13v-.05a0,0,0,0,1,.05.05Z"/><path class="cls-1" d="M19.72,13v-.05a0,0,0,0,1,.05.05Z"/><path class="cls-1" d="M19.72,12.89v0Zm-.1-.06s0,0,.05,0v0h-.05Zm-.11,0h.11l-.05,0Zm-.05,0h.05v0C19.46,12.83,19.46,12.79,19.46,12.79Z"/><path d="M20,13.15h0V13.1a.18.18,0,0,0-.26-.16c.05,0,.05,0,.11,0s.15.1.15.21v.05Z"/><path d="M19.67,13h0c0-.1-.16-.16-.21-.1.05-.1.26,0,.26.1Z"/><path class="cls-1" d="M20,13H20v.06A.06.06,0,0,1,20,13Zm0,0c0-.05,0-.05.06-.05V13H20Zm-.05-.1Zm-.1-.06h.1a.05.05,0,1,1-.1,0Zm-.06.06v-.06c.06,0,.06,0,.06.06Z"/><path class="cls-7" d="M19.83,13.26h-.11s0-.06,0-.06h-.26l-.05,0-.06,0h-.15a.07.07,0,0,1-.11,0s0,.06-.05.06l0-.06-.05.06h0v0a1.83,1.83,0,0,1,.47,0,1.72,1.72,0,0,1,.47,0v0Z"/><path d="M19.83,13.3a1.72,1.72,0,0,0-.47,0,1.83,1.83,0,0,0-.47,0l.05,0h0V13.2l0,.06h0L19,13.2h.26l.06,0,.05,0h.26s0,.06,0,.06l.05-.06v.06h-.05s0-.06,0-.06-.05.06-.1.06a.06.06,0,0,1-.06-.06H19.2l-.05.06s0-.06-.11-.06v.06h.32a1.91,1.91,0,0,1,.47,0Z"/><path class="cls-8" d="M18.94,13c0-.05,0-.05,0-.05V13h0Z"/><path class="cls-1" d="M18.94,13c0-.05,0-.05,0-.05V13h0Z"/><path class="cls-1" d="M18.94,12.89l0-.06v.06h0Zm.1-.06v0c.06,0,.06,0,.06,0Zm.06,0h0v0S19.1,12.79,19.1,12.79Zm.1,0h.06s0,0-.06,0Z"/><path d="M18.73,13.15h0a0,0,0,0,0-.05-.05.24.24,0,0,1,.31-.21c-.16,0-.26,0-.26.21v.05Z"/><path d="M19,13H19a.19.19,0,0,1,.31-.1c-.15-.06-.26,0-.26.1Z"/><path class="cls-1" d="M18.68,13h0v0Zm0,0v-.05a0,0,0,0,1,.05.05Zm.05-.1h0Zm.06-.06h.1a.06.06,0,0,1-.06.06S18.79,12.89,18.79,12.83Zm.1.06c0-.06,0-.06.05-.06v.06h-.05Z"/><path class="cls-7" d="M19.36,13.1h0v.05a0,0,0,0,0,.05,0c.05,0,.1,0,.1,0h0s0,0,.06,0,.05,0,.05,0h0l.05-.05v.1l0,.06.05-.06h.06v.06l.05-.06h.05a.14.14,0,0,1-.05.1h-.05l-.06,0h-.05a.14.14,0,0,1-.1-.06c0,.06,0,.06-.05.06s-.06,0-.06-.06-.05.06-.1.06l-.05-.06a.06.06,0,0,0-.06.06s-.1-.06-.1-.06a.05.05,0,0,1-.05.06s0,0,0-.06-.06.06-.11.06h0l-.05,0h-.06a.16.16,0,0,1,0-.1h0l.06.06V13.2h.05s0,.06,0,.06L19,13.2v-.1l.06.05h0s0,0,0,0a0,0,0,0,0,.05,0h0s.06,0,.1,0,.06,0,.06,0,0-.05-.06-.05Z"/><path d="M19.83,13.3h0l.05,0,.05-.06a.14.14,0,0,1-.1.06h0l-.06-.06a.05.05,0,0,1-.1,0h.16v.06l.05-.06h.05a.14.14,0,0,1-.05.1Zm-.94,0h-.06a.16.16,0,0,1,0-.1h0l0,.06h0c0-.06,0-.06,0-.06l.1.06V13.2h.05l-.05.06h.05s.1,0,.1-.06.16.06.16,0,.1.06.16,0a.08.08,0,0,0,.15,0c.06.06.11.06.11,0a.14.14,0,0,0,.1.06h0s0,0-.1-.06-.11.06-.11,0a.08.08,0,0,1-.15,0c-.06.06-.1.06-.16,0a.05.05,0,0,1-.1,0c-.06.06-.06.1-.11.1Zm.1,0,0-.06H19v-.1c.06.16.16.1.16.05h0s-.16,0-.16,0a.22.22,0,0,1-.05.11Z"/><path class="cls-7" d="M19.36,13.3h-.47a1.65,1.65,0,0,1,.47,0,1.72,1.72,0,0,1,.47,0h-.47Z"/><path d="M19.83,13.3h0a3.7,3.7,0,0,0-.94,0H19a3,3,0,0,1,.84,0Zm0,0a1.72,1.72,0,0,0-.47,0,1.2,1.2,0,0,0-.37,0,1,1,0,0,1,.37,0,1.72,1.72,0,0,1,.47,0Z"/><path class="cls-8" d="M19.2,13.3h.06a.06.06,0,0,1-.06.06V13.3Z"/><path class="cls-1" d="M19.2,13.3h.06a.06.06,0,0,1-.06.06Z"/><path class="cls-6" d="M19.36,13.36H19.3V13.3h.11v.06Z"/><path class="cls-1" d="M19.36,13.36H19.3V13.3h.11v.06Z"/><path class="cls-9" d="M19.1,13.36H19L19,13.3h.06v.06Z"/><path class="cls-1" d="M19.1,13.36H19L19,13.3h.06v.06Z"/><rect class="cls-6" x="18.89" y="13.36" width="0.05" height="0.05"/><polygon class="cls-1" points="18.89 13.41 18.89 13.36 18.94 13.36 18.94 13.41 18.89 13.41 18.89 13.41"/><path class="cls-8" d="M19.46,13.3h.05v.06a.05.05,0,0,1-.05-.06Z"/><path class="cls-1" d="M19.46,13.3h.05v.06A.05.05,0,0,1,19.46,13.3Z"/><path class="cls-9" d="M19.62,13.36h.1V13.3h-.1a.05.05,0,0,0-.05.06Z"/><path class="cls-1" d="M19.62,13.36h.1V13.3h-.1a.05.05,0,0,0-.05.06Z"/><polygon class="cls-6" points="19.83 13.41 19.77 13.36 19.72 13.36 19.77 13.41 19.83 13.41"/><polygon class="cls-1" points="19.83 13.41 19.77 13.36 19.72 13.36 19.77 13.41 19.83 13.41 19.83 13.41"/><path class="cls-6" d="M19.36,13.51a.83.83,0,0,1-.37,0c.11,0,.21-.05.37-.05s.26.05.36.05a.79.79,0,0,1-.36,0Z"/><path d="M19.36,13.51h0a.83.83,0,0,1-.37,0,1.8,1.8,0,0,1,.73,0,.79.79,0,0,1-.36,0Zm0-.1c-.16,0-.26.05-.37.05a.83.83,0,0,0,.37,0,.79.79,0,0,0,.36,0c-.1,0-.21-.05-.36-.05Z"/><path class="cls-7" d="M19.83,13.2v0l-.06,0h.06Z"/><path class="cls-1" d="M19.83,13.2v0l-.06,0h.06Z"/><path class="cls-7" d="M18.89,13.2v0l.05,0h-.05Z"/><path class="cls-1" d="M18.89,13.2v0l.05,0h-.05Z"/><polygon class="cls-7" points="19.36 12.99 19.3 12.99 19.36 13.1 19.36 13.1 19.36 13.1 19.41 12.99 19.36 12.99"/><polygon class="cls-1" points="19.36 12.99 19.3 12.99 19.36 13.1 19.36 13.1 19.36 13.1 19.41 12.99 19.36 12.99 19.36 12.99"/><polygon class="cls-7" points="19.26 13.1 19.26 13.15 19.36 13.1 19.36 13.1 19.36 13.1 19.26 13.04 19.26 13.1"/><polygon class="cls-1" points="19.26 13.1 19.26 13.15 19.36 13.1 19.36 13.1 19.36 13.1 19.26 13.04 19.26 13.1 19.26 13.1"/><polygon class="cls-7" points="19.46 13.1 19.46 13.15 19.36 13.1 19.36 13.1 19.36 13.1 19.46 13.04 19.46 13.1"/><polygon class="cls-1" points="19.46 13.1 19.46 13.15 19.36 13.1 19.36 13.1 19.36 13.1 19.46 13.04 19.46 13.1 19.46 13.1"/><polygon class="cls-7" points="19.04 12.99 18.99 13.04 19.04 13.1 19.04 13.1 19.04 13.1 19.09 13.04 19.04 12.99"/><polygon class="cls-1" points="19.04 12.99 18.99 13.04 19.04 13.1 19.04 13.1 19.04 13.1 19.09 13.04 19.04 12.99 19.04 12.99"/><polygon class="cls-7" points="18.94 13.15 18.99 13.2 19.04 13.15 19.04 13.1 19.04 13.1 18.94 13.1 18.94 13.15"/><polygon class="cls-1" points="18.94 13.15 18.99 13.2 19.04 13.15 19.04 13.1 19.04 13.1 18.94 13.1 18.94 13.15 18.94 13.15"/><polygon class="cls-7" points="19.15 13.1 19.15 13.15 19.04 13.15 19.04 13.1 19.04 13.1 19.15 13.1 19.15 13.1"/><polygon class="cls-1" points="19.15 13.1 19.15 13.15 19.04 13.15 19.04 13.1 19.04 13.1 19.15 13.1 19.15 13.1 19.15 13.1"/><polygon class="cls-7" points="18.89 13.15 18.83 13.2 18.79 13.2 18.79 13.2 18.79 13.2 18.83 13.15 18.89 13.15"/><polygon class="cls-1" points="18.89 13.15 18.83 13.2 18.79 13.2 18.79 13.2 18.79 13.2 18.83 13.15 18.89 13.15 18.89 13.15"/><path class="cls-7" d="M19,13.1h.11c0,.05,0,.05-.06.05A0,0,0,0,1,19,13.1Z"/><path class="cls-1" d="M19,13.1h.11c0,.05,0,.05-.06.05A0,0,0,0,1,19,13.1Z"/><polygon class="cls-7" points="19.72 12.99 19.72 13.04 19.67 13.1 19.67 13.1 19.67 13.1 19.62 13.04 19.72 12.99"/><polygon class="cls-1" points="19.72 12.99 19.72 13.04 19.67 13.1 19.67 13.1 19.67 13.1 19.62 13.04 19.72 12.99 19.72 12.99"/><polygon class="cls-7" points="19.77 13.15 19.72 13.2 19.67 13.15 19.67 13.1 19.67 13.1 19.77 13.1 19.77 13.15"/><polygon class="cls-1" points="19.77 13.15 19.72 13.2 19.67 13.15 19.67 13.1 19.67 13.1 19.77 13.1 19.77 13.15 19.77 13.15"/><polygon class="cls-7" points="19.57 13.1 19.57 13.15 19.67 13.15 19.67 13.1 19.67 13.1 19.57 13.1 19.57 13.1"/><polygon class="cls-1" points="19.57 13.1 19.57 13.15 19.67 13.15 19.67 13.1 19.67 13.1 19.57 13.1 19.57 13.1 19.57 13.1"/><polygon class="cls-7" points="19.83 13.15 19.83 13.2 19.93 13.2 19.93 13.2 19.93 13.2 19.88 13.15 19.83 13.15"/><polygon class="cls-1" points="19.83 13.15 19.83 13.2 19.93 13.2 19.93 13.2 19.93 13.2 19.88 13.15 19.83 13.15 19.83 13.15"/><path class="cls-7" d="M19.3,13.1a.06.06,0,0,1,.06-.06l.05.06H19.3Z"/><path class="cls-1" d="M19.3,13.1a.06.06,0,0,1,.06-.06l.05.06H19.3Z"/><path class="cls-7" d="M19.62,13.1h.1a0,0,0,1,1-.1,0Z"/><path class="cls-1" d="M19.62,13.1h.1a0,0,0,1,1-.1,0Z"/><path class="cls-7" d="M19.3,12.79a.06.06,0,0,1,.06-.06c.05,0,.05.06.05.06s0,0-.05,0-.06,0-.06,0Z"/><polygon class="cls-7" points="19.41 12.79 19.41 12.79 19.3 12.79 19.3 12.79 19.3 12.79 19.3 12.68 19.3 12.68 19.3 12.68 19.3 12.68 19.3 12.63 19.36 12.63 19.36 12.68 19.41 12.68 19.41 12.68 19.36 12.68 19.36 12.79 19.41 12.79 19.41 12.79"/><polygon class="cls-1" points="19.41 12.79 19.41 12.79 19.3 12.79 19.3 12.79 19.3 12.79 19.3 12.68 19.3 12.68 19.3 12.68 19.3 12.68 19.3 12.63 19.36 12.63 19.36 12.68 19.41 12.68 19.41 12.68 19.36 12.68 19.36 12.79 19.41 12.79 19.41 12.79"/><polygon class="cls-7" points="19.41 12.79 19.41 12.79 19.3 12.79 19.3 12.79 19.3 12.79 19.3 12.68 19.3 12.68 19.3 12.68 19.3 12.68 19.3 12.63 19.36 12.63 19.36 12.68 19.41 12.68 19.41 12.68 19.36 12.68 19.36 12.79 19.41 12.79"/><path d="M19.36,12.83c-.06,0-.06,0-.06,0v0s.11,0,.11,0l-.05-.06c.05,0,.05.06.05.06s0,0-.05,0Z"/><path class="cls-7" d="M18.73,13.2l-.05,0h0V13.1a0,0,0,0,1,.05.05v0a.05.05,0,0,1,.06,0Z"/><path class="cls-1" d="M18.73,13.2l-.05,0h0V13.1a0,0,0,0,1,.05.05v0a.05.05,0,0,1,.06,0Z"/><path class="cls-7" d="M19.93,13.2a0,0,0,0,0,.05,0H20A.05.05,0,0,0,20,13.1v0a0,0,0,0,0-.05.05v0Z"/><path class="cls-1" d="M19.93,13.2a0,0,0,0,0,.05,0H20A.05.05,0,0,0,20,13.1v0a0,0,0,0,0-.05.05v0Z"/><rect class="cls-7" x="18.68" y="13.51" width="1.36" height="0.37"/><path d="M20,13.88H18.68v-.37H20v.37Zm0-.37H18.68v.37H20v-.37Z"/><path class="cls-7" d="M19.88,14.14v-.05h-1c-.06,0-.06,0-.06.05s.06-.05.06-.1,0-.11-.06-.11h1.05c-.05.05-.05.05-.05.11a.15.15,0,0,0,.05.1Z"/><path d="M18.83,14.14h0v-.05a.05.05,0,0,0,.06-.05c0-.06,0-.06-.06-.11h1.05l-1,.05v.11h.94V14a0,0,0,0,0,.05.05l-1,.05Z"/><path class="cls-7" d="M18.89,14.09h1l.05.05a0,0,0,0,1-.05,0h-1c-.06,0-.1,0-.1,0a.14.14,0,0,1,.1-.05Z"/><path d="M19.88,14.19h-1c-.06,0-.1,0-.1,0a.14.14,0,0,1,.1-.05h1a0,0,0,0,1,.05.05s0,0-.05,0Zm-1,0v0h1l.05,0Z"/><path class="cls-7" d="M18.89,13.88h1a0,0,0,0,1,.05,0H18.79s0,0,.1,0Z"/><path d="M19.88,14h-1a.14.14,0,0,1-.1-.05s0,0,.1,0h1c.05,0,.05,0,.05,0a0,0,0,0,1-.05.05Zm-1-.1,1,0h.05l-1,0Z"/><path class="cls-10" d="M18.42,19.72a.48.48,0,0,0,.26,0c.05,0,.11-.05.21-.05a.6.6,0,0,1,.21.05.48.48,0,0,0,.26,0,.5.5,0,0,0,.26,0c.05,0,.1-.05.21-.05s.15.05.21.05a.47.47,0,0,0,.26,0v.16a.47.47,0,0,1-.26-.05c-.06-.06-.11-.06-.21-.06s-.16,0-.21.06a.5.5,0,0,1-.26.05.48.48,0,0,1-.26-.05c0-.06-.11-.06-.21-.06s-.16,0-.21.06a.48.48,0,0,1-.26.05v-.16Z"/><path d="M20.3,19.88h0a.47.47,0,0,1-.26-.05.51.51,0,0,0-.42,0,.92.92,0,0,1-.52,0,.51.51,0,0,0-.42,0,.48.48,0,0,1-.26.05v-.16a.48.48,0,0,0,.26,0,.75.75,0,0,1,.47,0,.75.75,0,0,0,.47,0,.61.61,0,0,1,.42,0,.47.47,0,0,0,.26,0v.16Zm-1.41-.21h-.21a.56.56,0,0,1-.26.1l0,.11a.41.41,0,0,0,.21-.05.63.63,0,0,1,.47,0,.75.75,0,0,0,.47,0,.51.51,0,0,1,.42,0c.1,0,.15.05.26.05v-.16c-.11.05-.16,0-.26,0a.61.61,0,0,0-.42,0,.49.49,0,0,1-.52,0Z"/><path class="cls-11" d="M18.42,19.88a.48.48,0,0,0,.26-.05c.05-.06.11-.06.21-.06s.21,0,.21.06a.48.48,0,0,0,.26.05.5.5,0,0,0,.26-.05c.05-.06.1-.06.21-.06s.15,0,.21.06a.47.47,0,0,0,.26.05V20c-.11,0-.16-.06-.26-.06a.28.28,0,0,0-.21-.05c-.11,0-.16,0-.21.05s-.16.06-.26.06S19.2,20,19.1,20s-.11-.05-.21-.05-.16,0-.21.05-.16.06-.26.06v-.16Z"/><path d="M20.3,20h0c-.11,0-.16-.06-.26-.06a.61.61,0,0,0-.42,0,.77.77,0,0,1-.52,0,.61.61,0,0,0-.42,0,.42.42,0,0,1-.26.06v-.16a.48.48,0,0,0,.26-.05.63.63,0,0,1,.47,0,.75.75,0,0,0,.47,0,.51.51,0,0,1,.42,0,.47.47,0,0,0,.26.05V20Zm-1.41-.27c-.1,0-.16.06-.21.06a.48.48,0,0,1-.26.05l0,.16c.05-.06.11-.06.21-.06a.4.4,0,0,1,.47,0,.63.63,0,0,0,.47,0A.33.33,0,0,1,20,20h.26v-.1a.47.47,0,0,1-.26-.05.51.51,0,0,0-.42,0,.92.92,0,0,1-.52,0,.52.52,0,0,0-.21-.06Z"/><path class="cls-10" d="M18.42,20c.1,0,.16-.06.26-.06s.11-.05.21-.05.21,0,.21.05.16.06.26.06.15-.06.26-.06.1-.05.21-.05A.28.28,0,0,1,20,20c.1,0,.15.06.26.06v.15a.52.52,0,0,1-.26-.1h-.42c-.11.05-.16.1-.26.1a.56.56,0,0,1-.26-.1h-.42a.56.56,0,0,1-.26.1V20Z"/><path d="M20.3,20.19h0c-.11,0-.16-.05-.26-.05a.61.61,0,0,0-.42,0,.92.92,0,0,1-.52,0,.61.61,0,0,0-.42,0c-.1,0-.16.05-.26.05V20a.42.42,0,0,1,.26-.06.4.4,0,0,1,.47,0,.63.63,0,0,0,.47,0A.33.33,0,0,1,20,20h.26v.21Zm-1.41-.26c-.1,0-.16,0-.21.05s-.16.06-.26.06l0,.15c.05-.05.11-.05.21-.1a.75.75,0,0,1,.47,0,.4.4,0,0,0,.47,0,.61.61,0,0,1,.42,0,.47.47,0,0,0,.26.05V20c-.11,0-.16-.06-.26-.06a.61.61,0,0,0-.42,0,.77.77,0,0,1-.52,0,.6.6,0,0,0-.21-.05Z"/><path class="cls-11" d="M18.42,20.3a.42.42,0,0,0,.26-.06c.05,0,.11,0,.21,0a.6.6,0,0,1,.21,0,.42.42,0,0,0,.26.06.43.43,0,0,0,.26-.06c.05,0,.1,0,.21,0s.15,0,.21,0a.4.4,0,0,0,.26.06v-.11a.52.52,0,0,1-.26-.1h-.42c-.11.05-.16.1-.26.1a.56.56,0,0,1-.26-.1h-.42a.56.56,0,0,1-.26.1v.11Z"/><path d="M20.3,20.3H20a.31.31,0,0,0-.42,0,.92.92,0,0,1-.52,0,.31.31,0,0,0-.42,0h-.26v-.11c.1-.05.16-.05.26-.1a.75.75,0,0,1,.47,0,.4.4,0,0,0,.47,0,.61.61,0,0,1,.42,0,.47.47,0,0,0,.26.05v.16Zm-1.41-.21c-.1,0-.16,0-.21.05s-.16.05-.26.05l0,.11a.35.35,0,0,0,.21-.06.75.75,0,0,1,.47,0,.63.63,0,0,0,.47,0,.61.61,0,0,1,.42,0,.4.4,0,0,0,.26.06v-.11c-.11,0-.16-.05-.26-.05a.61.61,0,0,0-.42,0,.92.92,0,0,1-.52,0c0-.05-.11-.05-.21-.05Z"/><path class="cls-10" d="M18.42,20.45a.48.48,0,0,0,.26-.05c.05,0,.11,0,.21,0a.6.6,0,0,1,.21,0,.48.48,0,0,0,.26.05.5.5,0,0,0,.26-.05c.05,0,.1,0,.21,0s.15,0,.21,0a.47.47,0,0,0,.26.05V20.3a.4.4,0,0,1-.26-.06c-.06,0-.11,0-.21,0s-.16,0-.21,0a.43.43,0,0,1-.26.06.42.42,0,0,1-.26-.06.6.6,0,0,0-.21,0c-.1,0-.16,0-.21,0a.42.42,0,0,1-.26.06v.15Z"/><path d="M20.3,20.45h0A.47.47,0,0,1,20,20.4a.61.61,0,0,0-.42,0,.45.45,0,0,1-.52,0,.61.61,0,0,0-.42,0,.48.48,0,0,1-.26.05V20.3a.42.42,0,0,0,.26-.06.75.75,0,0,1,.47,0,.63.63,0,0,0,.47,0,.61.61,0,0,1,.42,0,.4.4,0,0,0,.26.06v.15Zm-1.41-.26a.26.26,0,0,0-.21.11h-.26l0,.15c.05,0,.11-.05.21-.05a.4.4,0,0,1,.47,0,.75.75,0,0,0,.47,0,.33.33,0,0,1,.42,0c.1,0,.15.05.26.05V20.3H20a.31.31,0,0,0-.42,0,.92.92,0,0,1-.52,0c0-.06-.11-.11-.21-.11Z"/><path class="cls-7" d="M19.88,19.15v.05a.16.16,0,0,0,.16.16H18.68a.15.15,0,0,0,.15-.16v-.05h1.05Z"/><path d="M20,19.36H18.68a.15.15,0,0,0,.15-.16h.06c-.06.06-.1.16-.21.16h1.25c0-.06-.05-.1-.05-.16l-.68-.05h.68c0,.11.05.21.16.21Z"/><path class="cls-7" d="M18.89,19h1l.05.06a0,0,0,0,1-.05,0h-1c-.06,0-.1,0-.1,0a.14.14,0,0,1,.1-.06Z"/><path d="M19.88,19.15h-1c-.06,0-.1,0-.1,0s0-.06.1-.06h1c.05,0,.05,0,.05.06s0,0-.05,0Zm-1-.11v.11h1a0,0,0,0,0,.05,0l-1-.06Z"/><rect class="cls-7" x="18.68" y="19.36" width="1.36" height="0.32"/><path d="M20,19.67H18.68v-.31H20v.31Zm0-.31H18.68v.31H20v-.31Z"/><path class="cls-6" d="M20.14,17.85a.35.35,0,0,1,.21.15.12.12,0,0,1-.11.11c-.1.1-.15.21-.1.26a.3.3,0,0,1-.16-.26.29.29,0,0,1,.16-.26Z"/><path d="M20.14,18.37a.3.3,0,0,1-.16-.26.49.49,0,0,1,.16-.32c.1.06.26.16.21.21s0,.11-.11.11-.1.15-.1.21v.05Zm0-.52a.39.39,0,0,0-.1.26c0,.1,0,.15.1.21h0c0-.06,0-.17.1-.21a.12.12,0,0,0,.11-.11.35.35,0,0,0-.21-.15Z"/><rect class="cls-11" x="18.89" y="14.24" width="0.94" height="4.75"/><path d="M19.72,19l0-4.75h0V19Zm-.1,0-.05-4.75h.05V19Z"/><path d="M19.83,19h-.94V14.24h.94V19Zm0-4.75h-.94V19h.94V14.24Z"/><path class="cls-6" d="M17.9,16a2.51,2.51,0,0,1,1-.16,1.1,1.1,0,0,1,.41.06c.63.1,1.05.31,1.05.51h0s.21-.47.21-.51c0-.22-.47-.47-1.1-.58-.2,0-.42-.05-.57-.05a3.55,3.55,0,0,0-1,.16V16Z"/><path d="M20.35,16.43H20.3v-.1a1.77,1.77,0,0,0-1-.41c-.15,0-.31-.06-.41-.06a9.77,9.77,0,0,0-1,.16l0-.57a2.77,2.77,0,0,1,1-.16,2.16,2.16,0,0,1,.57.05,2,2,0,0,1,1.05.47.17.17,0,0,1,0,.11,4.42,4.42,0,0,0-.21.51Zm-1.46-.57a1.1,1.1,0,0,1,.41.06,1.58,1.58,0,0,1,1,.36s.05,0,.05.1c0-.21.16-.46.21-.46a.22.22,0,0,1,0-.11,1.69,1.69,0,0,0-1.05-.42,3.62,3.62,0,0,0-1.56.06V16a2.51,2.51,0,0,1,1-.16Z"/><path class="cls-6" d="M19.83,16.64c.31-.05.47-.1.52-.21s-.11-.2-.26-.31a2.43,2.43,0,0,1-.26.05v.47Z"/><path d="M19.83,16.64v-.47a.39.39,0,0,1,.21-.05c.2.11.31.21.31.31s-.21.21-.52.21Zm.26-.52a.5.5,0,0,1-.26.05l.05.47c.26-.05.42-.1.42-.21s-.06-.2-.21-.31Z"/><path class="cls-6" d="M18.89,16.28a.54.54,0,0,0-.37.1h0c-.05.05.11.21.37.37v-.47Z"/><path d="M18.89,16.75h0c-.21-.11-.42-.26-.42-.37a1.93,1.93,0,0,1,.42-.15v.52Zm0-.47a.54.54,0,0,0-.37.1c-.05.05.06.16.37.32v-.42Z"/><path class="cls-6" d="M20.45,17.53a1.58,1.58,0,0,0-.62-.36,2.18,2.18,0,0,1-.47-.21c-.53-.21-.89-.47-.84-.58h0c-.05,0-.05.47-.05.47s.26.37.73.58a5.68,5.68,0,0,0,.63.26,1,1,0,0,1,.52.31l.1-.47Z"/><path d="M20.35,18h0a1.25,1.25,0,0,0-.52-.31c-.11-.05-.47-.16-.63-.21a2.2,2.2,0,0,1-.78-.58c0-.15,0-.52.1-.52.06.16.37.37.84.58a2.18,2.18,0,0,0,.47.21c.31.1.68.26.62.36l-.1.47Zm-1.88-1.57v.42c0,.16.36.42.73.58.16.05.52.21.63.26a1,1,0,0,1,.52.31l.1-.47c0-.05-.21-.21-.62-.36L19.36,17a3.15,3.15,0,0,1-.89-.58Z"/><path class="cls-7" d="M18.47,15.81a3.76,3.76,0,0,0,.16-.42h-.05c-.06.1-.06.21-.11.31,0-.1-.1-.15-.15-.25s-.06,0-.06,0h-.11a1.28,1.28,0,0,1,.27.32Z"/><path class="cls-7" d="M18.89,15.39h-.1l-.06.42H19v-.05h-.16l.06-.37Z"/><path class="cls-7" d="M19.3,15.49h.11v0L19,15.39v.1h.16l-.05.32h.11l0-.32Z"/><path class="cls-7" d="M19.41,15.86h.1l.06-.16h0l.05.06.05.16h.1a.93.93,0,0,0-.1-.22s.16,0,.16,0,0-.05-.06-.1-.05-.06-.1-.06h-.16l-.1.37Zm.21-.31c.05,0,.1,0,.1,0h0c0,.1,0,.1-.15.1l.05-.15Z"/><path class="cls-7" d="M20.14,16c0,.06-.05.06-.05.16h.1l0-.42h0l-.36.22v0h.05c.05,0,.05,0,.1,0l.16,0Zm-.16-.1.16,0v.11L20,15.86Z"/><path d="M13.57,12.11a.14.14,0,0,1-.16-.16c0-.1.26-.1.26,0s-.05.16-.1.16Zm0-.26c-.11,0-.16.05-.16.1a.13.13,0,0,0,.26,0,.11.11,0,0,0-.1-.1Z"/><path class="cls-6" d="M14.87,10.9a2.69,2.69,0,0,1,1,.16,3,3,0,0,0,.52.16h.37a1.59,1.59,0,0,1,.62.15,1.1,1.1,0,0,1,.48.27l-.11.1V12l-.26.31-.11.1-.31.27H16.9l0,.16-2-.27-1.93.27,0-.16h-.16l-.31-.27-.16-.1L12,12v-.21l-.1-.1a1.4,1.4,0,0,1,.46-.27,1.92,1.92,0,0,1,.63-.15h.42c.21-.05.36-.11.52-.16a2.45,2.45,0,0,1,.94-.16Z"/><path d="M16.85,12.79h0l-2-.27-1.93.27-.11-.16h-.1l-.47-.37L12,12v-.21l-.1-.1a3.66,3.66,0,0,1,.46-.32,3.38,3.38,0,0,1,.63-.1h.42a2.5,2.5,0,0,0,.47-.16,3.19,3.19,0,0,1,2,0,3,3,0,0,0,.52.16h.37a3.19,3.19,0,0,1,.68.1,3.83,3.83,0,0,1,.42.32l-.06.1-.05.21-.37.41-.31.27H16.9l0,.16ZM13,11.22a1.68,1.68,0,0,0-.63.15,1.4,1.4,0,0,0-.46.27l.1.1.05.21.37.41.31.27h.16l0,.16,1.93-.27,2,.27,0-.16h.16l.42-.37.26-.31v-.21l.11-.1a1.1,1.1,0,0,0-.48-.27,1.35,1.35,0,0,0-.57-.15h-.42a3,3,0,0,1-.52-.16,3.94,3.94,0,0,0-1.93,0c-.16,0-.31.11-.52.16Z"/><path class="cls-7" d="M14.92,13.51A8.58,8.58,0,0,1,13,13.3s0,0,0-.1l0,0a6.17,6.17,0,0,1,1.88-.26,5.82,5.82,0,0,1,1.83.26,0,0,0,0,1,.05,0c0,.06,0,.06-.05.1a8.09,8.09,0,0,1-1.83.21Z"/><path d="M14.92,13.51h0A8.58,8.58,0,0,1,13,13.3a.14.14,0,0,1,0-.1s0,0,0-.1a8.58,8.58,0,0,1,1.88-.21,8.46,8.46,0,0,1,1.83.21c.05.05.05.05.05.1s0,.1-.05.1a8.46,8.46,0,0,1-1.83.21Zm0-.62a6.46,6.46,0,0,0-1.88.26v.11a6.53,6.53,0,0,0,1.88.25,6.42,6.42,0,0,0,1.83-.25c.05,0,.05,0,.05-.06a0,0,0,0,0-.05,0,6.06,6.06,0,0,0-1.83-.26Z"/><path class="cls-6" d="M14.92,13.41a8,8,0,0,1-1.72-.21A8.32,8.32,0,0,1,14.92,13a7.81,7.81,0,0,1,1.67.16,7.5,7.5,0,0,1-1.67.21Z"/><path class="cls-1" d="M14,13.36v0Zm.05,0v0Zm.05,0v0Z"/><path class="cls-1" d="M13.67,13.3v0Zm.05,0v0Z"/><path class="cls-1" d="M15.34,13.41v0Zm-.16,0v0Zm-.1,0v0Z"/><path class="cls-7" d="M14.92,12.89a5.72,5.72,0,0,0-1.88.26v-.21a.28.28,0,0,0-.21-.15,10.46,10.46,0,0,1,2.09-.21,10.33,10.33,0,0,1,2,.21s-.11,0-.16.15-.05.16,0,.21a6.17,6.17,0,0,0-1.88-.26Z"/><path d="M16.8,13.15a6.67,6.67,0,0,0-1.88-.26,6.17,6.17,0,0,0-1.88.26c0-.05,0-.05,0-.21s-.1-.11-.16-.11h0c.06,0,.06,0,.06,0a7.44,7.44,0,0,1,2-.21,8,8,0,0,1,2,.21c-.06,0-.11,0-.16.15s-.05.16,0,.21Zm-3.91-.36s.1,0,.15.15.06.21,0,.21a6.17,6.17,0,0,1,1.88-.26,8.46,8.46,0,0,1,1.83.21.4.4,0,0,1,.05-.16c.05-.15.1-.15.16-.15a11.23,11.23,0,0,0-2-.21,10.56,10.56,0,0,0-2,.21Z"/><path class="cls-7" d="M14.92,12.58a10.46,10.46,0,0,0-2.09.21s0,0,0,0,0-.11,0-.11a7.51,7.51,0,0,1,2.09-.26,7.73,7.73,0,0,1,2.09.26v.11s0,0-.05,0a10.33,10.33,0,0,0-2-.21Z"/><path d="M17,12.83h0a8.44,8.44,0,0,0-2-.25,8.55,8.55,0,0,0-2.09.25l0,0,0-.11h0a7.51,7.51,0,0,1,2.09-.26,8.06,8.06,0,0,1,2.09.26v.11s0,0-.05,0Zm-2-.36a7.73,7.73,0,0,0-2.09.21l0,.11h0a8.21,8.21,0,0,1,2.09-.21,8,8,0,0,1,2,.21H17v-.11a8.21,8.21,0,0,0-2.09-.21Z"/><path d="M14.92,13.41h0a5.67,5.67,0,0,1-1.72-.21A8.51,8.51,0,0,1,14.92,13a7.5,7.5,0,0,1,1.67.21,5.3,5.3,0,0,1-1.67.21Zm0-.37a8.76,8.76,0,0,0-1.72.16,8.51,8.51,0,0,0,1.72.21,7.91,7.91,0,0,0,1.67-.21A8.16,8.16,0,0,0,14.92,13Z"/><path class="cls-8" d="M14.3,12.73c0-.05,0-.05.1-.05s0,0,0,.05,0,.06,0,.06-.1,0-.1-.06Z"/><path class="cls-1" d="M14.3,12.73c0-.05,0-.05.1-.05s0,0,0,.05,0,.06,0,.06-.1,0-.1-.06Z"/><path class="cls-6" d="M14.92,12.79h-.21c-.05,0-.05,0-.05-.06s0-.05.05-.05h.42a0,0,0,0,1,0,.05.05.05,0,0,1,0,.06Z"/><path d="M15.13,12.79h-.42c-.05,0-.1,0-.1-.06s.05-.05.1-.05h.42a0,0,0,0,1,0,.05.05.05,0,0,1,0,.06Zm-.42-.11c-.05,0-.05,0-.05.05s0,.06.05.06h.42v-.11Z"/><path class="cls-9" d="M13.93,12.83l-.16.06s0-.06,0-.1,0-.06,0-.06h.11l.16-.05c.05,0,.05.05.1.11l-.05,0Z"/><path d="M13.77,12.89a.12.12,0,0,1-.1-.1l.1-.06h0l.27-.05a.11.11,0,0,1,.1.11l-.05,0h0l-.32.06Zm0-.1s0,0,0,0v0h.32l.05,0h-.05v-.06l-.32.06Z"/><path class="cls-8" d="M13.36,12.89c0-.06,0-.1.05-.1s.05,0,.05.1h-.1Z"/><path class="cls-1" d="M13.36,12.89c0-.06,0-.1.05-.1s.05,0,.05.1h-.1Z"/><polygon class="cls-6" points="12.94 12.99 12.99 12.89 13.2 12.89 13.04 12.99 12.94 12.99"/><polygon points="13.04 13.04 12.89 12.99 12.99 12.89 13.2 12.89 13.04 13.04 13.04 13.04"/><path class="cls-9" d="M15.86,12.83l.16.06c.05,0,.05-.06.1-.1l-.05-.06h-.15l-.16-.05c-.06,0-.06.05-.06.11s0,0,.06,0Z"/><path d="M16,12.89l-.26-.06-.11,0a.11.11,0,0,1,.11-.11l.31.05.05.06a.12.12,0,0,1-.1.1Zm-.26-.16c-.06,0-.06,0-.06.06l.06,0H16c.05,0,.05,0,.05,0h0l-.31-.06Z"/><path class="cls-8" d="M15.34,12.73c0-.05,0-.05.05-.05s.1,0,.1.05,0,.06-.1.06-.05,0-.05-.06Z"/><path class="cls-1" d="M15.34,12.73c0-.05,0-.05.05-.05s.1,0,.1.05,0,.06-.1.06-.05,0-.05-.06Z"/><path class="cls-8" d="M16.33,12.89a.14.14,0,0,1,.05-.1.11.11,0,0,1,.11.1h-.16Z"/><path class="cls-1" d="M16.33,12.89a.14.14,0,0,1,.05-.1.11.11,0,0,1,.11.1h-.16Z"/><polygon class="cls-6" points="16.91 12.99 16.8 12.89 16.59 12.89 16.8 12.99 16.91 12.99"/><polygon points="16.8 13.04 16.59 12.89 16.8 12.89 16.91 12.99 16.8 13.04 16.8 13.04"/><path d="M13.1,13.26V13.2A9.49,9.49,0,0,1,14.92,13a9.06,9.06,0,0,1,1.78.21A9.33,9.33,0,0,0,14.92,13a6.31,6.31,0,0,0-1.82.22Z"/><path class="cls-7" d="M13.41,11.43l.1.1.11-.21a.46.46,0,0,1-.21-.42v-.05c0-.26.31-.47.73-.47a.83.83,0,0,1,.52.16v-.11a.89.89,0,0,0-.52-.15c-.47,0-.84.26-.84.57v.05a.61.61,0,0,0,.16.42l-.05.11Z"/><path d="M13.51,11.53l-.1-.1.05-.11a.65.65,0,0,1-.21-.42.83.83,0,0,1,.89-.62,2.2,2.2,0,0,1,.57.1c-.05.11-.05.11-.05.16a.83.83,0,0,0-.52-.16.71.71,0,0,0-.73.47.41.41,0,0,0,.26.42l-.16.26Zm.63-1.25a.79.79,0,0,0-.84.57.52.52,0,0,0,.21.47l0,.11,0,.05.11-.16a.46.46,0,0,1-.21-.42c0-.31.31-.52.73-.52a.83.83,0,0,1,.52.16v-.11a1,1,0,0,0-.52-.15Z"/><path class="cls-7" d="M13.41,11.43a.53.53,0,0,1-.26-.42.61.61,0,0,1,.36-.52.4.4,0,0,0-.21.36v.05a.61.61,0,0,0,.16.42l-.05.11Z"/><path d="M13.46,11.43h-.05a.53.53,0,0,1-.26-.42.61.61,0,0,1,.36-.52.54.54,0,0,0-.21.36.52.52,0,0,0,.21.47l0,.11Zm0-.94a.56.56,0,0,0-.31.52.47.47,0,0,0,.21.42l.05-.11a.65.65,0,0,1-.21-.42.59.59,0,0,1,.26-.41Z"/><path class="cls-7" d="M12.05,11.64a.5.5,0,0,1-.15-.37A.58.58,0,0,1,12,11a1.26,1.26,0,0,1,1-.42.76.76,0,0,1,.36.05l-.05.06h-.31a.93.93,0,0,0-.89.41.22.22,0,0,0-.05.16.56.56,0,0,0,.21.37L12,11.9,12,11.85l.1-.21Z"/><path d="M12,11.9,12,11.85l.1-.21a.5.5,0,0,1-.15-.37A.58.58,0,0,1,12,11a1.12,1.12,0,0,1,1-.42h.36c0,.05,0,.11-.05.11h-.31a.93.93,0,0,0-.89.41c0,.06-.05.11-.05.16a.56.56,0,0,0,.21.37L12,11.9Zm.94-1.31a1.05,1.05,0,0,0-.94.47.41.41,0,0,0-.1.21.5.5,0,0,0,.15.37l-.1.21H12l.16-.21a.47.47,0,0,1-.16-.37.33.33,0,0,1,.05-.21,1,1,0,0,1,.89-.36h.31l.05-.06a.76.76,0,0,0-.36-.05Z"/><path class="cls-7" d="M12.21,10.8A1.18,1.18,0,0,0,12,11a.58.58,0,0,0,0,.26.5.5,0,0,0,.15.37l-.1.15a.58.58,0,0,1-.16-.36.68.68,0,0,1,.42-.63Z"/><path d="M12,11.85v-.06a.58.58,0,0,1-.16-.36.68.68,0,0,1,.42-.63.36.36,0,0,0-.21.26.41.41,0,0,0-.1.21.5.5,0,0,0,.15.37l-.1.21ZM12,11a.78.78,0,0,0-.21.47.72.72,0,0,0,.16.36l.1-.15a.5.5,0,0,1-.15-.37A.58.58,0,0,1,12,11,0,0,0,0,0,12,11Z"/><path class="cls-7" d="M14.92,10.23c.11,0,.16,0,.21.15v.32h0v.05a1,1,0,0,0,.11.47l-.32.31-.36-.31a1.1,1.1,0,0,0,.1-.47V10.7h0v-.32a.29.29,0,0,1,.26-.15Z"/><path d="M14.92,11.58l-.36-.31a1.67,1.67,0,0,0,0-.52l.05-.05h-.05a.72.72,0,0,0,.05-.32.25.25,0,0,1,.47,0v.37a1,1,0,0,0,.11.47l-.32.36Zm0-1.3c-.1,0-.21.05-.21.1a.72.72,0,0,0-.05.32v.05c0,.21-.05.36-.05.52l.31.26.32-.31c-.11-.11-.11-.26-.11-.47V10.7h0v-.32a.21.21,0,0,0-.21-.1Z"/><path class="cls-7" d="M14.92,10.33l.11.1v.27h0v.05a1.1,1.1,0,0,0,.1.47l-.21.21-.21-.21c0-.11.06-.26.06-.47V10.7h0v-.27c.05,0,.05-.1.15-.1Z"/><path d="M14.92,11.43l-.26-.21a1.39,1.39,0,0,0,.05-.47l.06-.05h-.06a.61.61,0,0,0,.06-.32.15.15,0,0,1,.26,0v.37a1.35,1.35,0,0,0,.1.47l-.21.21Zm0-1.1c-.1,0-.1.05-.1.1a.44.44,0,0,0-.05.27v.05c0,.15-.06.36-.06.47l.21.21.21-.21a.74.74,0,0,1-.1-.47V10.7h0a.44.44,0,0,0,0-.27s-.06-.1-.06-.1Z"/><path class="cls-7" d="M16.38,11.43l-.1.1-.11-.21a.61.61,0,0,0,.21-.42v-.05c0-.26-.31-.47-.73-.47a.77.77,0,0,0-.52.16v-.11a.82.82,0,0,1,.52-.15c.47,0,.84.26.84.57v.05a.49.49,0,0,1-.21.42l.1.11Z"/><path d="M16.28,11.53l-.11-.21a.61.61,0,0,0,.21-.42c0-.31-.31-.52-.73-.52a.87.87,0,0,0-.52.16v-.11a.82.82,0,0,1,.52-.15c.47,0,.84.26.84.57a.65.65,0,0,1-.16.47l.05.11-.1.1Zm-.63-1.15c.42,0,.73.21.73.47a.5.5,0,0,1-.21.47l.11.16.1-.05-.1-.11a.49.49,0,0,0,.21-.42c0-.36-.37-.62-.84-.62a.93.93,0,0,0-.52.15v.11a.77.77,0,0,1,.52-.16Z"/><path class="cls-7" d="M16.38,11.43a.63.63,0,0,0,.21-.42.56.56,0,0,0-.31-.52.54.54,0,0,1,.21.36v.05a.49.49,0,0,1-.21.42l.1.11Z"/><path d="M16.38,11.43l-.1-.11a.49.49,0,0,0,.21-.42.55.55,0,0,0-.21-.41.61.61,0,0,1,.36.52.53.53,0,0,1-.26.42Zm-.1-.94a.4.4,0,0,1,.21.36.65.65,0,0,1-.16.47l.05.11a.47.47,0,0,0,.21-.42.62.62,0,0,0-.31-.52Z"/><path class="cls-7" d="M17.74,11.64a.47.47,0,0,0,.16-.37,2.43,2.43,0,0,1,0-.26,1.29,1.29,0,0,0-1-.42.79.79,0,0,0-.36.05s0,.06.05.06h.31a.92.92,0,0,1,.89.41c0,.06.05.11.05.16a.5.5,0,0,1-.15.37l.1.26.11-.05-.11-.21Z"/><path d="M17.74,11.9l-.1-.26a.81.81,0,0,0,.1-.37v-.16c-.1-.26-.52-.41-.89-.41a.67.67,0,0,0-.31.05.17.17,0,0,1-.05-.11.79.79,0,0,1,.36-.05c.47,0,.89.16,1,.42a.58.58,0,0,1,0,.26.47.47,0,0,1-.16.37l.11.15-.11.11Zm-.89-1.2a.92.92,0,0,1,.89.41c.05,0,.05.11.05.16a.5.5,0,0,1-.15.37l.15.21.06-.06-.11-.15a.44.44,0,0,0,.11-.37v-.21a1.23,1.23,0,0,0-1-.47.79.79,0,0,0-.36.05l.05.06Z"/><path class="cls-7" d="M17.58,10.8a1.27,1.27,0,0,1,.27.21,2.43,2.43,0,0,0,0,.26.47.47,0,0,1-.16.37l.11.15a.56.56,0,0,0,.15-.36.67.67,0,0,0-.42-.63Z"/><path d="M17.85,11.85l-.11-.21a.44.44,0,0,0,.11-.37v-.21a.68.68,0,0,0-.27-.26h0c.06,0,.11,0,.16.1a.65.65,0,0,1,.26.53.56.56,0,0,1-.15.36v.06Zm0-.84h0a.58.58,0,0,1,0,.26.47.47,0,0,1-.16.37l.11.15a.56.56,0,0,0,.1-.36.58.58,0,0,0-.1-.42Z"/><path class="cls-8" d="M14.77,11.27s.05-.1.15-.1a.11.11,0,0,1,.11.1c0,.05,0,.16-.11.16a.17.17,0,0,1-.15-.16Z"/><path d="M14.92,11.43a.17.17,0,0,1-.15-.16c0-.1.26-.1.26,0s0,.16-.11.16Zm0-.21c-.1,0-.1,0-.1,0s.16.16.16,0-.06,0-.06,0Z"/><path class="cls-8" d="M14.77,11.06c0-.05.05-.1.15-.1a.11.11,0,0,1,.11.1s0,.16-.11.16a.17.17,0,0,1-.15-.16Z"/><path d="M14.92,11.22a.17.17,0,0,1-.15-.16c0-.1.26-.1.26,0s0,.16-.11.16Zm0-.21c-.1,0-.1,0-.1.05a.08.08,0,1,0,.16,0c0-.05-.06-.05-.06-.05Z"/><path class="cls-8" d="M14.82,10.85s0-.1.1-.1.06.05.06.1-.06.05-.06.05-.1,0-.1-.05Z"/><path d="M14.92,11c-.1,0-.1-.06-.1-.11s.21-.1.21,0-.11.11-.11.11Z"/><path class="cls-8" d="M14.82,10.64c0-.05,0-.05.1-.05s.06,0,.06.05a.06.06,0,0,1-.06.06c-.05,0-.1,0-.1-.06Z"/><path class="cls-1" d="M14.82,10.64c0-.05,0-.05.1-.05s.06,0,.06.05a.06.06,0,0,1-.06.06c-.05,0-.1,0-.1-.06Z"/><path class="cls-8" d="M14.82,10.49c0-.06,0-.06.1-.06v.06h-.1Z"/><path class="cls-1" d="M14.82,10.49c0-.06,0-.06.1-.06v.06h-.1Z"/><path class="cls-7" d="M14.92,12H15v.1a.28.28,0,0,0,.26.27.32.32,0,0,0,.31-.17v-.1s0,.1,0,.1.16.21.26.21.31-.1.31-.25v-.06l.11-.1,0,.16s0,0,0,.1.1.26.31.26a.36.36,0,0,0,.21-.11l.05-.1v.1c0,.11,0,.22.16.22a.33.33,0,0,0,.21-.11.82.82,0,0,0,.21-.21v.1s-.11.22-.21.27-.21,0-.26,0a.16.16,0,0,1-.16-.16.35.35,0,0,1-.21.06.55.55,0,0,1-.42-.22.39.39,0,0,1-.31.11.45.45,0,0,1-.31-.15.39.39,0,0,1-.31.15.46.46,0,0,1-.32-.21.54.54,0,0,1-.36.21.47.47,0,0,1-.32-.15.31.31,0,0,1-.31.15.39.39,0,0,1-.31-.11.44.44,0,0,1-.37.22c-.1,0-.15,0-.21-.06s-.1.16-.21.16a.31.31,0,0,1-.2,0c-.16-.05-.27-.27-.27-.27v-.1a.78.78,0,0,0,.22.21.48.48,0,0,0,.25.11c.11,0,.11-.11.11-.22v-.1l.1.1c0,.06.11.11.21.11a.25.25,0,0,0,.26-.26c0-.06,0-.1,0-.1l.11-.16.1.1c-.05,0-.05.06-.05.06a.28.28,0,0,0,.31.25.23.23,0,0,0,.26-.21c.05,0,.05-.1.05-.1l.06.1c0,.11.1.17.26.17a.25.25,0,0,0,.26-.27V12Z"/><path d="M17,12.68H17a.14.14,0,0,1-.16-.16.43.43,0,0,1-.63-.16c-.1.22-.47.16-.62,0a.43.43,0,0,1-.63-.1.48.48,0,0,1-.68.1.46.46,0,0,1-.62,0,.37.37,0,0,1-.58.16c0,.11-.1.16-.21.16a.37.37,0,0,1-.25,0c-.11-.05-.22-.27-.22-.27v-.1c.06,0,.11.1.22.21a1.38,1.38,0,0,1,.25.11.28.28,0,0,0,.11-.22v-.1l.1.1a.28.28,0,0,0,.47-.15c0-.06,0-.1,0-.1l0-.16.16.1c0,.21.1.31.26.31a.23.23,0,0,0,.26-.21c0-.1,0-.15.05-.15h0a.17.17,0,0,0,.06.11.27.27,0,0,0,.52-.06V12H15v.1a.28.28,0,0,0,.26.27.3.3,0,0,0,.31-.21V12s0,.05,0,.11a.28.28,0,0,0,.26.25.28.28,0,0,0,.31-.25v-.06a.27.27,0,0,1-.31.31.41.41,0,0,1-.31-.21v0c-.1.36-.63.21-.63-.06,0-.05.06-.1.06-.1h-.16s0,.05,0,.1a.33.33,0,0,1-.31.31.23.23,0,0,1-.26-.21.13.13,0,0,1-.06-.1v.06a.32.32,0,0,1-.31.25.28.28,0,0,1-.31-.25l0-.16-.06.16v.1a.29.29,0,0,1-.52.15l-.05-.1v.1c0,.11,0,.22-.11.22a.32.32,0,0,1-.25-.11.78.78,0,0,1-.22-.21v.1a1.19,1.19,0,0,0,.27.27.52.52,0,0,0,.2,0c.11,0,.16-.1.21-.16a.47.47,0,0,0,.58-.16.47.47,0,0,0,.62,0,.49.49,0,0,0,.68-.06.44.44,0,0,0,.63.06.43.43,0,0,0,.62,0,.55.55,0,0,0,.63.16.22.22,0,0,0,.16.16H17s.16,0,.21,0a3.06,3.06,0,0,0,.21-.27v-.1c0,.06-.11.1-.21.21a.33.33,0,0,1-.21.11c-.11,0-.16-.11-.16-.22v-.1l-.05.1a.36.36,0,0,1-.21.11c-.21,0-.31-.11-.31-.26V12l-.11.1.11-.1,0,.16s0,0,0,.1.36.31.52.15l.05-.1v.1c0,.11,0,.16.16.22l.21-.11a.82.82,0,0,0,.21-.21v.1s-.11.22-.21.27a.33.33,0,0,1-.21,0Z"/><path class="cls-8" d="M16.9,12.32a.07.07,0,0,0,0-.11c0-.06-.1,0-.1,0v.1c.05,0,.1,0,.1,0Z"/><path d="M16.85,12.36H16.8s-.05-.1,0-.1,0-.11.05-.11l0,.06c.06,0,.06,0,0,.11s0,0,0,0Z"/><path class="cls-8" d="M15.65,12.05c0-.05,0-.1-.05-.1s0,.05-.11.1a.14.14,0,0,0,.06.1.1.1,0,0,0,.1-.1Z"/><path d="M15.55,12.15h0a.14.14,0,0,1-.06-.1c0-.1.06-.1.06-.1s.1.05.1.1a.1.1,0,0,1-.1.1Z"/><path class="cls-8" d="M14.19,12.05c0-.05,0-.1.05-.1s.06.05.06.1,0,.1-.06.1-.05,0-.05-.1Z"/><path d="M14.24,12.15a.1.1,0,0,1-.1-.1.17.17,0,0,1,0-.1h.05c.06,0,.06.05.06.1s0,.1-.06.1Z"/><path class="cls-8" d="M12.89,12.32c0-.06,0-.11,0-.11s.05,0,.1,0,0,.1,0,.1-.1,0-.1,0Z"/><path class="cls-1" d="M12.89,12.32c0-.06,0-.11,0-.11s.05,0,.1,0,0,.1,0,.1-.1,0-.1,0Z"/><path class="cls-7" d="M13.46,11.43a.27.27,0,0,1,.11.21l0-.06h.05v.21a.18.18,0,0,1-.05.11s0-.05-.11-.05,0,.05,0,.1l-.1-.1a.17.17,0,0,0-.06-.11.17.17,0,0,0-.05-.1h.11c0-.06.05-.11.1-.21Z"/><path d="M13.46,12h0l-.1-.1a.21.21,0,0,1-.06-.11l-.05-.1h.16c-.05-.06,0-.11.05-.21a.27.27,0,0,1,.11.21l.1-.06c.05,0,0,.06,0,.06v.15a.18.18,0,0,1-.05.11h0c-.11,0-.11,0-.11,0Zm-.16-.31h-.05l.05.1c.06,0,.06,0,.06.11s.05.05.1.05a0,0,0,0,1,0-.05c.06,0,.11,0,.11.05s0-.05.05-.11v-.21l-.05.06h0c0-.06-.06-.11-.11-.21a.39.39,0,0,0-.05.21v0l-.11,0Z"/><path class="cls-7" d="M13.46,12.05V12c-.05-.05,0-.05,0-.05a.17.17,0,0,0-.1,0,.22.22,0,0,0-.16-.05h0V12a.28.28,0,0,0-.16.1c0,.06.16.1.21.06v.1h.05c0-.06.11-.06.11-.06s.1-.1.1-.1Z"/><path d="M13.2,12.21h0v-.06a.25.25,0,0,1-.21-.1.28.28,0,0,1,.16-.1h0a.28.28,0,0,0-.16.1c0,.06.11.06.21.06h0v.1l.05-.06.11,0c.05,0,.1-.06.1-.06a0,0,0,0,1-.05-.05c0-.05,0-.05.05-.05a.17.17,0,0,1-.1,0H13.2l0-.05h.21a.15.15,0,0,0,.1.05v.15a.14.14,0,0,1-.05.1.53.53,0,0,0-.16.06Z"/><path class="cls-7" d="M13.67,12.05V12l-.05,0,.05-.05a.55.55,0,0,1,.16-.11h.05v.11c.1,0,.16,0,.21.05s-.11.1-.16.1v.05c.05,0,.05.06.05.06h-.1s-.11,0-.11-.06Z"/><path d="M14,12.11h-.21c-.1-.06-.1-.06-.15-.06a.15.15,0,0,0,.05-.1l-.05,0a.18.18,0,0,0,.05-.11.6.6,0,0,0,.16,0h.05v0h-.05s-.06,0-.11.11a.17.17,0,0,0-.1.05,0,0,0,0,1,.05,0v.1h.21l.1.06h0l-.05-.06H14v.06Zm-.05-.06,0-.05c.1-.05.16-.05.21-.1s-.11-.05-.21-.05h0c.1,0,.16,0,.21.05s-.11.1-.16.1v.05Z"/><path class="cls-6" d="M13.41,12s.05-.1.16-.1a.11.11,0,0,1,.1.1c0,.1-.05.16-.1.16a.14.14,0,0,1-.16-.16Z"/><path d="M13.57,12.11a.14.14,0,0,1-.16-.16c0-.1.26-.1.26,0s-.05.16-.1.16Zm0-.26c-.11,0-.16.05-.16.1a.13.13,0,0,0,.26,0,.11.11,0,0,0-.1-.1Z"/><path class="cls-7" d="M14.92,11.27a.36.36,0,0,1,.11.21l.05-.05h.05v.1a.6.6,0,0,0-.05.16.15.15,0,0,0-.05.1.17.17,0,0,0-.11,0c-.05,0-.1,0-.1,0l-.11-.1v-.16l-.05-.1h.05a.19.19,0,0,0,.11.05.21.21,0,0,1,.1-.21Z"/><path d="M15,11.79h0a.1.1,0,0,0-.16,0l-.11-.1v-.11l-.05-.15h0l.05.1a.18.18,0,0,0,.06.16.17.17,0,0,0,.05.1s.1,0,.21,0v-.05a.17.17,0,0,0,.05-.11.18.18,0,0,0,.05-.15h0v.1c0,.05-.05.11-.05.16a.15.15,0,0,0-.05.1Zm.05-.31H15a.36.36,0,0,0-.11-.21.21.21,0,0,0-.1.21l-.16-.05h.05a.18.18,0,0,1,.11.05c-.05-.05,0-.16.1-.26.06.1.11.15.11.21h.1l-.05.05Z"/><path class="cls-7" d="M14.82,12c-.05,0-.05,0-.05-.1s0-.06.05-.06a.18.18,0,0,0-.11,0,.3.3,0,0,0-.2-.05l-.06,0a.05.05,0,0,0,.06,0v.05c-.11,0-.21,0-.21.11s.1.1.21.1V12l-.06.05h.06a.3.3,0,0,0,.2-.05.19.19,0,0,1,.11-.05Z"/><path d="M14.45,12.05V12c0-.05-.15-.05-.21-.15a.39.39,0,0,1,.27-.11h0a.25.25,0,0,0-.21.11.26.26,0,0,0,.21.1h0l-.06.1h.06c.05,0,.15-.05.2-.05s.11-.05.11-.05-.05,0-.05-.1,0-.06.05-.06h0a.22.22,0,0,1-.11,0,.25.25,0,0,0-.15-.05l-.11,0h.06a.3.3,0,0,0,.2,0,.19.19,0,0,0,.11.05.22.22,0,0,1-.05.11c0,.05.05.05.05.1a.18.18,0,0,1-.11.05.18.18,0,0,1-.15.05Z"/><path class="cls-7" d="M15,12v-.16s0,0,.1,0,.11-.05.16-.05l.05,0v.1a.39.39,0,0,1,.21.11.45.45,0,0,1-.21.1v.1h-.05s-.16,0-.16-.05L15,12Z"/><path d="M15.34,12.05h-.05s-.16,0-.16-.05A.22.22,0,0,1,15,12s0,0,0-.1,0-.06,0-.06,0,0,.15-.1.11,0,.11,0h.1v.1a.39.39,0,0,1,.21.11.22.22,0,0,1-.21.1h0c.05,0,.11,0,.21-.1-.1-.06-.16-.11-.21-.11h-.05l.05-.05h-.05s-.16,0-.16.05a.17.17,0,0,0-.1,0V12h0a.15.15,0,0,1,.1.05l.11.05Z"/><path class="cls-7" d="M16.38,11.43c-.1.05-.15.1-.15.21l-.06-.06h-.05v.06a.18.18,0,0,0,.05.15v.11a.18.18,0,0,0,.11-.05l.1.1a.15.15,0,0,1,.05-.1.17.17,0,0,0,.06-.11.17.17,0,0,1,.05-.1h-.11c0-.06-.05-.11-.05-.21Z"/><path d="M16.38,12h0c-.05,0-.05,0-.1,0h-.11v-.11c-.05,0-.05,0-.05-.1v-.11h.05l.06.06c0-.11.05-.16.15-.21a.47.47,0,0,1,.05.26l.06,0-.06,0c0-.11-.05-.16-.05-.26a1.24,1.24,0,0,0-.15.21h-.06c-.05-.06-.05,0-.05,0s.05.1.05.15v.11c.06-.05.06-.05.11-.05s0,.05.1.05a0,0,0,0,1,.05-.05.17.17,0,0,1,.06-.11v0s0,.11-.06.11a.15.15,0,0,0-.05.1Z"/><path class="cls-7" d="M16.33,12.05a0,0,0,0,0,.05-.05V12a.18.18,0,0,1,.11,0c0-.05.1-.05.1-.05h.11v.05l-.06,0c.06,0,.16.05.16.1a.16.16,0,0,1-.21.06v.1h-.05c0-.06-.05-.06-.11-.06l-.1-.1Z"/><path d="M16.59,12.21h-.05l-.11-.06-.1-.1.05-.05V12s.05,0,.11-.1h.21l-.06.1c.06,0,.16.05.16.1s-.1.1-.16.1l-.05.06Zm-.26-.16c.05,0,.05.06.1.06a.25.25,0,0,0,.16,0v0c.11,0,.16,0,.21-.06s-.1-.1-.16-.1h-.05l.05,0h-.15a.18.18,0,0,0-.11,0V12a0,0,0,0,1-.05.05Z"/><path class="cls-7" d="M16.17,12.05V11.9l-.05-.05c-.05-.06-.1-.11-.16-.11h0v.11a.36.36,0,0,0-.22.05.3.3,0,0,0,.22.1l-.06.05v.06h.06a.17.17,0,0,0,.15-.06Z"/><path d="M15.86,12.11v-.06l-.16-.15a.36.36,0,0,1,.22-.05v0a.36.36,0,0,0-.22.05c.06,0,.16,0,.22.1h0l-.06.05h.21a.17.17,0,0,0,.1-.05,0,0,0,0,1-.05-.05l.05,0-.05-.05c-.05-.06-.16-.06-.16-.11h0c.06,0,.11,0,.16,0a.19.19,0,0,1,.05.11v.15a.14.14,0,0,0-.1.06h-.21Z"/><path class="cls-6" d="M16.12,12s.05-.1.16-.1a.11.11,0,0,1,.1.1c0,.1-.05.16-.1.16a.14.14,0,0,1-.16-.16Z"/><path d="M16.28,12.11a.14.14,0,0,1-.16-.16c0-.1.26-.1.26,0s-.05.16-.1.16Zm0-.26c-.11,0-.11.05-.11.1a.11.11,0,1,0,.21,0,.11.11,0,0,0-.1-.1Z"/><path class="cls-6" d="M17.58,12.26a.09.09,0,0,0-.15,0c-.06.06-.06.1,0,.1a.05.05,0,0,0,.1,0s.11-.1,0-.1Z"/><path d="M17.48,12.42h-.05a.13.13,0,0,1,0-.16s.05,0,.1,0l0,0c.06.06,0,.1,0,.1a.05.05,0,0,1-.05.06Z"/><path class="cls-7" d="M17.43,12.32v-.06a.09.09,0,0,1,.15,0h0a.37.37,0,0,1,.16-.15.48.48,0,0,1,.21-.06c0-.1-.1-.15-.21-.15s-.1,0-.1,0v0a.19.19,0,0,0-.16.1.26.26,0,0,0,0,.21s0-.06-.05-.06-.11-.1-.16-.1L17.22,12v.05h0c-.11,0-.16,0-.21.06a.72.72,0,0,0,.1.15h-.05v.06h.05a2,2,0,0,0,.21,0,.2.2,0,0,1,.11,0Z"/><path d="M17.27,12.36h-.16l-.05,0,.05-.11c-.05,0-.1-.06-.15-.1a.27.27,0,0,1,.21-.06h0l0-.05c0-.05.05,0,.1.05l.11.06s0,0,.05,0a.09.09,0,0,1,0-.15c.05-.1.1-.1.1-.1l.06,0s.05,0,.1,0,.21,0,.21.15-.16,0-.21.06a.37.37,0,0,0-.16.15h-.15v.06a.22.22,0,0,1-.11,0Zm-.1-.25H17s0,.1.1.1v.11h.16v0h.16c-.06-.06,0-.06,0-.06l.05,0-.05-.06s-.11-.1-.16-.1a0,0,0,0,1-.05-.05v.11Zm.36.1,0,0h0s.06-.15.16-.15a.18.18,0,0,1,.16-.06c.05-.1-.21-.2-.26-.1l-.06,0-.1.1v.21Z"/><path class="cls-7" d="M12.42,12.32a.06.06,0,0,0-.06-.06.09.09,0,0,0-.15,0h0a.31.31,0,0,0-.16-.15.22.22,0,0,0-.15-.06.13.13,0,0,1,.15-.15.19.19,0,0,1,.16,0v0s.11,0,.11.1a.32.32,0,0,1,0,.21s0-.06,0-.06.11-.1.16-.1a.19.19,0,0,1,.11-.05v.05h0s.16,0,.2.06l-.15.15h.05v.06h-.05s-.1,0-.16,0a.19.19,0,0,1-.1,0Z"/><path d="M12.52,12.36h-.1s-.06-.1-.06-.1h-.15a.31.31,0,0,0-.16-.15.17.17,0,0,0-.15-.06h0c.1,0,.15,0,.21.06a.53.53,0,0,1,.1.15s0,0,.11,0h0V12l-.11-.1v0c-.1,0-.26,0-.31.05,0-.1.21-.15.31-.05v0s.11,0,.11.1a.19.19,0,0,1,0,.11h0c.06,0,.11-.06.16-.06l.11-.1V12h0c-.05,0-.05.05-.11.05s-.1.06-.16.1l0,.06,0,0c.06,0,.06,0,.06.06h.1v0h.21l-.05,0Zm.21-.1h-.05l.15-.15h-.2v-.06h0c.1,0,.16,0,.2.06l-.15.15Z"/><path class="cls-6" d="M12.21,12.26a.09.09,0,0,1,.15,0c.06.06.06.1.06.1s-.1.06-.16,0,0-.1,0-.1Z"/><path d="M12.36,12.42s-.1,0-.1-.06,0,0,0-.1.11,0,.15,0,.06.06.06.1a.06.06,0,0,1-.06.06Z"/><path class="cls-6" d="M14.77,11.85c0-.06.05-.11.15-.11a.11.11,0,0,1,.11.11c0,.1,0,.1-.11.1s-.15,0-.15-.1Z"/><path d="M14.92,12a.13.13,0,0,1-.15-.15c0-.11.26-.11.26,0s0,.15-.11.15Zm0-.26c-.1,0-.15,0-.15.11s.26.1.26,0a.11.11,0,0,0-.11-.11Z"/><path class="cls-10" d="M14.61,10a.29.29,0,0,1,.31-.26.23.23,0,0,1,.21.26c0,.1-.1.26-.21.26a.35.35,0,0,1-.31-.26Z"/><path d="M14.92,10.28a.35.35,0,0,1-.31-.26.29.29,0,0,1,.31-.26.27.27,0,0,1,.26.26.33.33,0,0,1-.26.26Zm0-.52a.24.24,0,1,0,0,.47.23.23,0,0,0,.21-.21.23.23,0,0,0-.21-.26Z"/><path class="cls-7" d="M14.82,9.29v.16h-.11v.1h.11V10h-.16a.05.05,0,0,0-.05.06l.05.05h.47V10H15V9.55h.15v-.1H15V9.29Z"/><path d="M15.13,10.12h-.47a.15.15,0,0,1-.05-.1l.05-.06v.11h.47V10L15,10V9.55h.15v-.1H15V9.29h-.16v.16h-.11v.1h.11V10h0V9.55h-.11l-.05-.1h.16V9.29H15v.16h.15v.1H15V10h.15c0,.06,0,.11,0,.11v0Z"/><path class="cls-11" d="M14.92,20.56A5.08,5.08,0,0,1,12.73,20a1.53,1.53,0,0,1-.83-1.25v-2h6v2A1.48,1.48,0,0,1,17.11,20a5,5,0,0,1-2.19.52Z"/><path d="M14.92,20.56a5.39,5.39,0,0,1-2.19-.47,1.49,1.49,0,0,1-.83-1.3v-2l6-.05.05,2a1.48,1.48,0,0,1-.84,1.3,5.39,5.39,0,0,1-2.19.47Zm3-3.76h-6l0,2A1.47,1.47,0,0,0,12.73,20a5,5,0,0,0,4.38,0,1.48,1.48,0,0,0,.79-1.25v-2Z"/><rect class="cls-11" x="14.92" y="13.46" width="2.98" height="3.34"/><path d="M18,16.8h-3V13.46h3L18,16.8Zm-.05-3.34-3,0V16.8l3-.05V13.46Z"/><path class="cls-6" d="M14.92,18.79a1.51,1.51,0,0,1-3,0v-2h3v2Z"/><path class="cls-7" d="M12.58,19.93c.1.05.21.16.36.16V16.75h-.36Z"/><path d="M12.94,20.14h0L12.63,20h-.05V16.75l.36-.05v3.44Zm0-3.39h-.36v3.18l.05.05c.1,0,.2.11.31.11V16.75Z"/><path class="cls-7" d="M11.9,18.73a1.59,1.59,0,0,0,.36.94V16.75H11.9Z"/><path d="M12.26,19.67h0a1.35,1.35,0,0,1-.36-.94v-2h.36v2.92Zm0-2.92H11.9l0,2a1.59,1.59,0,0,0,.31.94V16.75Z"/><path class="cls-12" d="M13.25,20.19h.32V16.75h-.32Z"/><path d="M13.41,20.19h-.16V16.75l.32-.05,0,3.49Zm.16-3.44h-.32v3.44h.32V16.75Z"/><path class="cls-7" d="M13.88,20.09a1.41,1.41,0,0,0,.36-.11V16.75h-.36Z"/><path d="M13.88,20.14V16.75l.36-.05L14.3,20a2.31,2.31,0,0,0-.42.16Zm.36-3.39h-.36l0,3.34a.58.58,0,0,0,.31-.16V16.75Z"/><rect class="cls-6" x="11.9" y="13.46" width="3.02" height="3.34"/><path d="M14.92,16.8h-3V13.46h3V16.8Zm0-3.34-3,0,0,3.29,3-.05V13.46Z"/><path class="cls-7" d="M14.61,19.67a1.87,1.87,0,0,0,.31-.78V16.75h-.36Z"/><path d="M14.56,19.67V16.75l.36-.05v2.19a1.51,1.51,0,0,1-.31.78Zm.36-2.92h-.36l0,2.87a2,2,0,0,0,.31-.73V16.75Z"/><path d="M13.41,20.19a1.46,1.46,0,0,1-1.51-1.4v-2l3-.05v2a1.46,1.46,0,0,1-1.51,1.4Zm1.51-3.39h-3l0,2a1.49,1.49,0,0,0,3,0v-2Z"/><path class="cls-6" d="M17.9,16.8v2a1.46,1.46,0,0,1-1.52,1.4,1.44,1.44,0,0,1-1.46-1.4v-2Z"/><path d="M16.38,20.19a1.41,1.41,0,0,1-1.46-1.4v-2l3-.05.05,2a1.51,1.51,0,0,1-1.57,1.4ZM17.9,16.8h-3v2a1.44,1.44,0,0,0,1.46,1.4,1.46,1.46,0,0,0,1.52-1.4v-2Z"/><path class="cls-7" d="M15.45,18.32h0c0,.05,0,.05-.06.05s-.05,0-.05-.05h-.1c0,.1,0,.1.1.15v.26h.11v-.26s.1,0,.1-.1h.26v-.05Zm1.35,0v.05h-.26v.05l.26.31-.05.06-.26-.32h-.06V19h-.05v-.52h-.05l-.26.32L16,18.73l.32-.31v-.05H16v-.05Zm.16,0v.05h.26c.05.05.1.05.1.1v.26h.11v-.26c.1,0,.1,0,.1-.15h-.05a0,0,0,0,1-.05.05c-.06,0-.11,0-.11-.05H17Zm-.42,1.35a.56.56,0,0,0,.26-.1v.1c-.05,0-.16,0-.21.1a.25.25,0,0,1-.21.11c-.05,0-.1-.05-.15-.11a.92.92,0,0,1-.27-.1l.06-.1a.39.39,0,0,0,.26.1.11.11,0,0,1,.1-.1v-.42h.05v.42a.11.11,0,0,1,.11.1Zm-.68-.16,0,.11-.21-.21c0,.05-.11,0-.15-.05s-.11-.1,0-.21h0a.68.68,0,0,1-.11-.32h.11a.66.66,0,0,0,.1.32s0,0,0,0l.26-.32.1.06-.31.31a.1.1,0,0,1,0,.16.63.63,0,0,1,.21.15Zm-.37-.25c.06-.06.06-.06.11-.06v.1c0,.06,0,.06-.11,0s0,0,0,0Zm-.15-.32h-.1v-.26l.1-.05v.31Zm.11-.31h.1v.26l-.1.05v-.31Zm.36.83c0,.11.15.11.26.16l.05-.11a.56.56,0,0,1-.26-.1l0,.05Zm-.05.11.31.15-.11.05c-.1,0-.15-.05-.26-.1l.06-.1Zm.1-.63.1,0,.21-.16-.05-.1-.26.21Zm0-.05-.05-.06.16-.2.1.05-.21.21Zm1.09.62.11.11c0-.05.1-.16.21-.21s.1,0,.15-.05.06-.1,0-.21h0a.61.61,0,0,0,.06-.32h-.11a.72.72,0,0,1-.05.32c-.05,0-.05,0-.05,0L17,18.83l-.11.06.26.31a.1.1,0,0,0,0,.16.63.63,0,0,1-.21.15Zm.42-.25a.14.14,0,0,0-.1-.06c0,.06,0,.1,0,.1s.05.06.1,0v0Zm.11-.32h.1v-.26l-.1-.05v.31Zm-.11-.31h-.1v.26l.1.05v-.31Zm-.31.83a.84.84,0,0,1-.31.16v-.11a.26.26,0,0,0,.2-.1l.11.05Zm0,.11-.31.15.05.05a.41.41,0,0,0,.26-.1v-.1Zm-.16-.63-.1,0-.16-.16.06-.1.2.21Zm.11-.05,0-.06-.21-.2-.05.05.21.21Zm-1.25-.52v.1h.31v-.1Zm1.3,0,0,.1h-.26l-.05-.1Zm-.73,1.35a0,0,0,0,1,.05,0c.05,0,.11,0,.11,0s-.06.05-.11.05a0,0,0,0,1-.05-.05Zm.1-.46.11-.06v-.26h-.11v.32Zm-.05,0-.15-.06v-.26h.15v.32Z"/><path class="cls-7" d="M15.24,18.32c0-.11,0-.11.1-.17v-.3h.11v.3c0,.06.1.06.1.11h.26v.06h-.36c0-.06,0-.06-.06-.06s-.05,0-.05.06Zm.72,0v-.06h.32L16,17.9l.06,0,.31.36h0v-.47h.1v.41l.06.06.31-.36.05,0-.31.36h.26v.06Zm1.36,0c0-.06.05-.06.11-.06v.06h.1c0-.11-.05-.11-.1-.17v-.3h-.11v.3c0,.06-.05.06-.1.11H17v.06Zm-1.87-.95.41.42.06-.05-.37-.42v-.05h.31v-.1h-.31c0-.06-.06-.11-.16-.11a.16.16,0,0,0-.15.16c0,.05,0,.15.1.15v.32h.11v-.32Zm2,0v.32h-.11v-.32h0l-.36.42-.11-.1.42-.42H17v-.1h.26a.25.25,0,0,1,.21-.11c.05,0,.1.05.1.16s0,.15-.1.15Zm-1,0v.21h-.1v-.21s0-.05-.1-.1H16v-.1h.27c.05-.06.1-.11.15-.11s.16.05.16.11h.26v.1h-.26a.11.11,0,0,1-.11.1Zm-1.09.21-.1.06v.26l.1.05v-.37Zm.11,0,.1.06v.26l-.1.05v-.37Zm1.87,0-.1.06v.26l.1.05v-.37Zm.11,0,.1.06v.26l-.1.05v-.37Zm-1.57.11.1-.05.21.15-.1.11-.21-.21Zm-.1,0-.06.05.22.21L16,18l-.26-.21Zm1.14-.1-.1-.06-.16.21.06.11.2-.26Zm.11.05,0,.1L16.9,18,16.8,18l.21-.26Zm-1.25.57v-.05h.31v.05Zm-.42-1s0,0,.05,0,.06,0,.06,0,0,.05-.06.05-.05,0-.05-.05Zm.73.05v.1h-.31v-.1Zm0-.1v-.11h-.31v.11Zm1,1.09,0-.05h-.26l-.05.05Zm.26-1s.05,0,.11,0a.05.05,0,1,1,0,.1c-.06,0-.11,0-.11-.05Zm-1,0a0,0,0,0,1,.05,0c.05,0,.11,0,.11,0s-.06.05-.11.05a0,0,0,0,1-.05-.05Zm.37.05.05.1H17l0-.1Zm0-.1.05-.11H17l0,.11Zm-.37.31h-.1v.31h.1v-.31Zm.1,0h.11v.31h-.11v-.31Z"/><path class="cls-7" d="M16.38,19.88c-.05,0-.1-.05-.15-.11s-.11-.05-.21-.05h0l-.06.05h0a.43.43,0,0,1-.26-.1l.06-.1c-.06-.06-.11-.06-.16-.11s.1.05.16.11h.05l0-.06a.17.17,0,0,0-.1-.05h0l-.11-.1a.1.1,0,0,0,0-.16l.27-.31-.06-.06-.26.32h0v0a0,0,0,0,1,0,0l.26-.32.1.06-.26.31c.06.06,0,.1,0,.16a.28.28,0,0,0,.16.1l0-.05c.1.05.16.05.26.1v.11a.23.23,0,0,0,.16.05c0-.05,0-.1,0-.1v-.42h.1l.06.42.1.1c.05,0,.11-.05.21-.1l.05.1a.88.88,0,0,1-.26.1.25.25,0,0,1-.21.11ZM16,19.67l.05,0a.22.22,0,0,1,.16.05c.05.11.31.11.31,0s.21-.05.26-.1v-.05c-.1,0-.16.05-.26.05s-.05-.05-.11-.1v-.42h-.05v.42c-.05.05-.1.05-.1.1s-.11,0-.16-.05H16l-.06.05Zm-.26-.1v.1c.05,0,.1,0,.2.1l.06-.05h0l-.06,0a.19.19,0,0,1-.15-.05h0a0,0,0,0,1-.05-.05Zm.1-.06a.18.18,0,0,0,.16.06,0,0,0,0,0,.05.05l.05-.11a.56.56,0,0,1-.26-.1l0,.05,0,.05Zm-.31-.1h-.1a.17.17,0,0,1-.06-.15c-.05,0,0-.06,0-.11s-.05-.11-.05-.21h-.1v-.26l.1-.05v-.16c-.05,0-.1,0-.1-.15s0-.11.1-.17v-.3h.11v.3c0,.06.1.06.1.11h.26l0,.11h-.31a.12.12,0,0,1-.1.1v.16h.1v.26l-.06.05a.19.19,0,0,0,.06.16c-.06-.06-.1-.11-.1-.16h0v-.11l-.11.06v.05h0c.05.1.05.16.11.21a.16.16,0,0,0-.06.11s0,.1.06.1,0,.05.1.05Zm-.21-.78-.1.05,0,.26h.05v-.31Zm.11.1v.21l.1-.05v-.26h-.1v.1Zm0-.88h-.11v.3c-.05.06-.1.11-.1.17s0,.1.1.15v.16l.11.05v-.21s.1,0,.1-.1h.26v-.11h-.26c0-.05-.06-.05-.1-.05v-.36Zm1,1.19h-.11l-.05-.25.05.2h.05v-.52h.06V19Zm.26-.25-.11-.11.11.11.05-.06-.26-.31h.05l.26.31-.1.06Zm-.68,0L16,18.73l.06-.1-.06.1.11.06.26-.32h0l-.26.32Zm.16-.37L16,18.37v-.11h0l.06.11h.26l-.05.05Zm.52-.05h.05v-.11h0v.11Zm-.52-.11L16,17.9l.06,0,.1.1-.1-.1-.06,0,.32.36Zm.26-.05v-.06l.26-.3.1,0L16.8,18l.05-.05-.1,0-.26.36Zm-.11-.06h-.05v-.41l.1,0v0h-.1l.05.41Zm-.52-.36-.26-.26.26.26.06-.1-.37-.37v-.05l.37.42-.06.1Zm-.52-.1v-.32c-.05,0-.1-.1-.1-.15a.16.16,0,0,1,.31,0h.31v.1h0l0-.1h-.26c-.06-.11-.31-.11-.31,0s0,.1.1.15v.32h.11v-.32h0v.32Z"/><path class="cls-7" d="M16.8,19.77l-.05-.05c.05,0,.15,0,.21-.1l-.06-.11a.24.24,0,0,1-.2.11h0v-.11c.05-.05.15-.05.2-.1l.11.05c0-.05,0-.05.1-.1a.1.1,0,0,1,0-.16l-.26-.26,0-.11.32.32s0,0,.05,0a.22.22,0,0,0,.05-.16h-.1v-.31h.1v-.16l-.1-.1H17v-.11h.26c0-.05.05-.05.1-.11V18l-.1-.05v-.26l.1-.06.05.27h.06v.3c.1.06.15.11.15.17a.13.13,0,0,1-.15.15v.16h.1v.31h-.1c0,.1,0,.16-.06.21a.16.16,0,0,1,.06.11.17.17,0,0,1-.06.15c-.05,0-.1.05-.15.05a.26.26,0,0,0-.16.11h0v.1a.41.41,0,0,1-.26.1Zm.21-.2v.05c-.11.05-.21.05-.26.1l.05.05a.88.88,0,0,1,.26-.1v-.1Zm-.11-.16a.26.26,0,0,1-.2.1v.11l.31-.16-.11-.05Zm0-.58,0,.11.26.26v.16a.63.63,0,0,1-.21.15l.11.06h0l.16-.16a.18.18,0,0,0,.15-.05s.06-.06.06-.1a.16.16,0,0,0-.06-.11s.06-.11.06-.21v-.11l-.11.06h0v.05a.43.43,0,0,1-.05.21h-.05l-.32-.32Zm.53-.1v.21h.1v-.31h-.1v.1Zm-.21-.36c.05.05.1.05.1.1l.05.21h.06v-.21c.1,0,.1-.1.1-.15s0-.11-.1-.11v-.36h-.06V18h-.05l.05.2c-.05.06-.1.06-.15.11H17l.05.11ZM16,19l-.1-.05.21-.26.1.1L16,19Zm.11-.31-.21.26H16l.21-.16-.1-.1Zm-.26.21-.05-.11.16-.2H16l-.21.31Zm.11-.31-.16.2.05.06.21-.26ZM15.45,18v-.37l.1.06v.26l-.1.05Zm0-.31v.26h.1v-.26Zm-.11.31-.1-.05v-.26l.1-.06V18ZM17,17.79l-.11-.05.16-.16-.16.16.11.05.36-.42h0l-.36.42Zm.36-.1v-.11l.05.11h.06v-.32c.1-.05.1-.1.1-.15s-.21-.16-.31,0H17l.05.1H17v-.1h.26c.05-.16.36-.11.36,0a.16.16,0,0,1-.15.15v.32Zm-.89-.11h-.1v-.21s0-.05-.1-.1H16v-.1h.27c.05-.11.26-.11.36,0h.21v.1h-.26a.11.11,0,0,1-.11.1v.21Zm-.2-.31c.05.05.05.1.15.1v.21h.05v-.21c.06-.05.11-.05.11-.1h.26v-.1h-.26c-.05-.11-.26-.11-.26,0H16l.06.1Z"/><path class="cls-7" d="M16.43,19.26v-.32h.16v.26l-.16.06Zm0-.32.06.32.05-.06v-.26Zm-.05.32h-.15v-.32h.1l.05.32ZM16.8,19l-.16-.21.06-.1.2.21-.1.1Zm.21-.1-.26-.26.1-.05.21.2,0,.11Zm0-.47h-.26l-.05-.1h.36l0,.1Zm0-.1H16.7l.05.1H17l0-.1Zm-1,.1h-.31v-.1h.31v.1Zm0-.1h-.31v.1h.31v-.1Zm1-.11H16.7l.05-.11H17l0,.11Zm0-.05h-.26l-.05.05h.36l0-.05Zm-.94.05h-.31v-.11h.31v.11Zm0-.11-.31.06v.05h.31v-.11ZM15.92,18l-.22-.21.06-.1L16,18l-.1.05Zm1,0L16.8,18l.21-.26,0,.1L16.9,18Zm.11-.31L16.8,18l.1.05.16-.21,0-.1Zm.42.26v-.37l.1.06v.26l-.1.05Zm0-.31v.26h.1v-.26Zm-1.36.26-.21-.21.1-.11.21.21-.1.11Zm.63,0-.06-.11.16-.21.1.06-.2.26Zm.1-.26-.16.15.06.11.2-.26Zm.21-.27h-.26l-.05-.1h.36l0,.1Zm0-.1H16.7l.05.1H17l0-.1Zm-1,.1h-.31v-.1h.31v.1Zm0-.1h-.31v.1h.31v-.1Zm1-.1H16.7l.05-.11H17l0,.11Zm0-.11h-.26l-.05.11h.36l0-.11Zm-.94.11h-.31v-.11h.31v.11Zm0-.11h-.31v.11h.31v-.11Z"/><path class="cls-7" d="M16.43,17.79v-.31h.11l.05.31Zm0-.31v.31h.11v-.31Zm-.05.31h-.15v-.31h.1l.05.31Z"/><path class="cls-9" d="M16.23,18.32a.17.17,0,0,1,.15-.17c.11,0,.21.06.21.17s-.1.15-.21.15a.16.16,0,0,1-.15-.15Z"/><path class="cls-13" d="M16.43,14.3v-.06h-.15c0-.05-.11-.05-.11-.1l-.1-.05c-.11-.05-.15,0-.15,0l.1.1a.15.15,0,0,0,.1.05.29.29,0,0,0,.21.06Z"/><path d="M16.43,14.3h-.26a1,1,0,0,1-.15-.11.18.18,0,0,0-.1,0A.1.1,0,0,1,16,14c.05.05.1.05.1.1a.36.36,0,0,1,.16.1h.21l-.06.06Zm-.1-.06c.05,0,.05,0,.1.06v-.06h-.15a.12.12,0,0,1-.11-.1l-.1-.05H16c0,.05.06.05.06.05s.1.1.1.1h.21Z"/><path class="cls-14" d="M16.9,14.14v.31l0,0h0v.11l.11.1v.05H16.9a.15.15,0,0,0-.1-.05l.05.05v.11a.05.05,0,0,1-.05-.06,0,0,0,0,0-.05-.05v.26a0,0,0,0,0-.05-.05l-.06,0,.06,0a.52.52,0,0,0,.1.31c.05.06.1.21.31.16s.11-.26.11-.42-.11-.26-.11-.26a1.13,1.13,0,0,1,.06-.21v-.21c0-.1,0-.1,0-.15l.05-.05v-.11l.05.11v.1s0-.1.05-.1.11-.11.16-.11h0s0,.11-.05.11-.11.15-.11.15l.06,0h.1l-.1.1-.06.11a.55.55,0,0,1-.1.16c-.05.05-.05.26-.05.26s.15.31.15.36,0,.21-.1.26-.21.1-.21.1,0,.06,0,.16v.16s.1,0,.1,0l.06.06h0s-.06.1-.06.1a.72.72,0,0,0-.1.15c0,.06,0,.06,0,.11s.05,0,0,0h0l-.05.05-.06-.05v0h-.1v-.1h0a.05.05,0,0,1-.05-.06s.05-.05,0-.05h.05c0-.05,0,0,.05,0a0,0,0,0,0,0-.05V16l0,0-.05-.06a.22.22,0,0,1,.05.1c-.05,0-.05.06-.05.06V16a.22.22,0,0,0-.05-.1V16s.05.06,0,.06L16.7,16l-.06,0a.18.18,0,0,0-.05-.11V15.7l.05,0h-.21a.18.18,0,0,0,.06.16V16a.06.06,0,0,1-.06.06h-.2L16.17,16a.05.05,0,0,1-.05.06c.05.05,0,.05,0,.05h-.05C16,16,16,16.07,16,16h0V16H16s0,0,0,0-.06-.06,0-.06H16s0,0-.06,0v-.05A.06.06,0,0,0,16,15.7h.05v.11h.21V15.7h0l-.05.06V15.6l-.06.05v-.16s.06-.1.11-.1h.31s-.21-.1-.21-.15-.1-.06-.15-.11-.06-.1-.06-.1h0a.15.15,0,0,1-.1.05.17.17,0,0,1-.05.1V15s0,.1-.06.1l-.1.11v-.06l.06-.1-.11.1H15.7v.11h-.1a0,0,0,0,1,0,0s0-.06,0-.06a.05.05,0,0,0,0,.06.06.06,0,0,1-.06-.06s.06,0,0,0a.05.05,0,0,1,.06-.05h0a.05.05,0,0,1-.06-.05l.06,0s0-.06,0-.06,0,.06.05.06.11,0,.11,0,.1-.06.1-.06l.1-.05,0,0-.06-.05s-.1-.06-.16-.06l-.1-.05h.05s0-.05,0,0h.06l-.11-.05h-.1a0,0,0,0,1,0,0h0a.22.22,0,0,0,0-.11h-.1v0h0l-.06-.05a.07.07,0,0,1,.1,0s0,0,0-.11h-.06l.06-.05s0,0,0,0,.06.1.06.1,0-.1,0-.1a0,0,0,0,1,0-.05l.05.05h0a0,0,0,0,1,0,0v.11a.18.18,0,0,0,.11,0l.1.1.1.06a.05.05,0,0,1,.06.05l.05-.05c.05,0,.16.05.21,0l0-.06s-.1,0-.1,0a.17.17,0,0,1,.1-.05c.05,0,.1,0,.1,0a.19.19,0,0,0-.05-.16c-.05,0-.1,0-.1-.05s-.05-.05,0-.05h0c.05,0,.1,0,.1-.06a.05.05,0,0,0,.06-.05h.1a.19.19,0,0,1,.16.11.72.72,0,0,0,.15.1Z"/><path d="M17,16.38l-.06-.05h0l-.1,0,.05-.05-.05-.06v-.05h.05v.05l.05.06-.05.05h0l.05,0,0,0,.06.1v-.05H17v-.1c0-.06,0-.16,0-.21s.05,0,.05-.06l.06,0h-.06l-.1-.11a.23.23,0,0,1-.05-.16c0-.1.05-.16.1-.16s.16,0,.16-.1c.15-.05.1-.21.1-.26a1,1,0,0,0-.1-.26v-.1s0-.21,0-.26.1-.06.1-.11.05-.1.11-.16.05-.05.05-.1l.05,0s-.05,0-.1.11v0l-.06.05-.05,0a.56.56,0,0,0-.1.32.17.17,0,0,1,.05.1,1,1,0,0,1,.1.26.48.48,0,0,1-.1.32c-.05,0-.1,0-.16,0s-.1.06-.1.16v.16h0l.05,0,.06.06s0,0-.06.1v.05a.15.15,0,0,0-.05.1v.11l.05,0-.15.05Zm-.11-.26H16.8v-.05c.1.05.1,0,.1,0V16l0,0v0h0c-.05,0-.05,0-.05-.1l.1.1c.06.06.06.06,0,.11s0,.05,0,.05Zm-.78-.05H16L16,16V16L16,16c0-.06,0-.06,0-.1l-.06-.06H16v0l.11-.11.05.06c0,.05.05.05.11.05h.05V15.7h0l0,.06c0,.05,0,.05-.05.05s-.11,0-.16,0V15.7l-.05.06h0v.1H16V16h0l.06,0V16l.05.05V16h.1l-.05.05Zm.36-.05h-.05a.21.21,0,0,0,.11-.06v-.1a.35.35,0,0,1-.06-.21c.06-.05.06-.05.11,0h.1l-.05,0v.11c.05,0,.05,0,.05.11s.06,0,.06,0l.05.06h0L16.7,16l-.06,0a.19.19,0,0,1-.05-.11V15.7l.05,0h-.15c-.06,0,0,.16,0,.16V16Zm-.2-.26V15.6l-.06.1h0v-.21a.13.13,0,0,1,.11-.1h.31a.73.73,0,0,0-.21-.1l-.15-.16c0-.05-.06-.1-.06-.1s-.1.05-.1.1l-.05,0v-.1c0,.05-.06.05-.06.1l-.1.06h0v-.11s0,0,0,0H15.7v.11h0l0,0a.06.06,0,0,1,.06-.06c.1,0,.1-.1.1-.1h.06v.1c-.06,0,0,0,0,0L16,15v.1a0,0,0,0,0,.05-.05,0,0,0,0,0,.05-.05h.05c.06,0,.06.05.11.1s0,.11.1.11a1.83,1.83,0,0,0,.21.15h-.31c-.05,0-.05.06-.11.1v.16l.06-.05h0v.16Zm.83-.37c-.16,0-.21-.1-.26-.21s-.1-.2-.16-.31v0h0v0h.11v-.1l-.05-.11c.05,0,.1,0,.1.05l.05.06v-.11l-.05-.05s.05,0,.1,0a.05.05,0,0,0,.06.05.05.05,0,0,1-.06-.05s0,0,0,0,0-.11-.05-.11h0l.05,0h0v-.05l0,.1,0-.15v-.16h0v.31h0l0,0v0s0,.06,0,.06.06.05.06.1v.05H16.9a0,0,0,0,1,0-.05v.16a.05.05,0,0,1-.05-.06,0,0,0,0,1-.05-.05.22.22,0,0,0,.05.11.5.5,0,0,1-.05.15l-.05-.05h0a.71.71,0,0,0,.1.31.25.25,0,0,0,.31.16.18.18,0,0,0,.11-.05.91.91,0,0,0,0-.37c0-.1-.11-.26-.11-.26s0-.1.06-.1v-.11a.22.22,0,0,1,0-.21.15.15,0,0,0,0-.1V14a.19.19,0,0,0,.05-.11.18.18,0,0,1,.05.11h.05c.06-.11.11-.11.11-.11h.05a.15.15,0,0,1-.1.05c-.11.11-.11.16-.11.16h0V14L17.27,14v.11a.18.18,0,0,0-.05.15.56.56,0,0,0,0,.21s0,.06,0,.11v.1a.71.71,0,0,0,0,.26.47.47,0,0,1,0,.37c0,.05,0,.05-.11.1Zm-1.41-.1-.16,0v-.11h0l.06-.05L15.49,15l.06,0h0l0-.06.05.06h.11a.14.14,0,0,1,.1-.06.22.22,0,0,1,.1-.05l0,0-.06-.05s-.1-.06-.16-.06h-.1l.05-.05h0l-.1-.05h.21l-.11.05a.18.18,0,0,0,.11.05.14.14,0,0,1,.1.06l.06.05,0,0a.14.14,0,0,1-.1.05l-.1.06s-.11,0-.11,0l-.05,0,0,0a0,0,0,0,0,0,.05h0l0,.05v0h0v.06l.05,0Zm-.05-.73h0l0-.11h-.1l-.06,0v-.05l.06,0h0l-.06-.06.1-.1.06,0h0v-.1l.1.05h.11l-.06,0c0,.05,0,.05,0,.11s0,0,.11,0a.15.15,0,0,0,.1.05.58.58,0,0,1,.1.11h.32l0-.06h0l-.05-.1h.1c.05,0,.1,0,.1,0s0-.11-.05-.11-.1,0-.1-.1L16.23,14c.05,0,.05-.06.1-.06h.1l.06-.05h.1a.19.19,0,0,1,.16.11c.05,0,.15.1.15.1s-.1-.05-.15-.1a.75.75,0,0,1-.16-.11h-.1V14c-.06.06-.06.06-.11.06h-.1c0,.1,0,.1.1.1s.11.1.05.16-.05,0-.1,0h0l0,.1a.05.05,0,0,1,0,.06.17.17,0,0,1-.11.05H16c-.06-.05-.1-.05-.16-.11s0,0-.1,0-.11-.05-.11-.1v-.11l0,0h-.1s0,.1,0,.1h0v-.05l-.1.05,0,.06-.1,0,.06.05h.1l0,.11a0,0,0,0,0,.05.05Zm1.77-.37a1,1,0,0,1,.11-.15l.05-.11a.27.27,0,0,1-.05.16l-.05.05h.05a.17.17,0,0,1-.11,0Z"/><path d="M16.49,14V14a.14.14,0,0,1,.1.06l.05.05a0,0,0,0,1-.05-.05h-.1Z"/><path class="cls-1" d="M16.49,14V14a.14.14,0,0,1,.1.06l.05.05a0,0,0,0,1-.05-.05h-.1Z"/><polygon class="cls-1" points="16.85 14.4 16.8 14.35 16.8 14.3 16.85 14.4"/><path class="cls-13" d="M15.6,14.09l.05.05h0v-.05c0-.11,0-.11,0-.11V14a0,0,0,0,1-.05.05Z"/><path class="cls-1" d="M15.6,14.09l.05.05h0v-.05c0-.11,0-.11,0-.11V14A0,0,0,0,1,15.6,14.09Z"/><path class="cls-13" d="M15.45,14.14h-.16a3980657295328.63,3980657295328.63,0,0,1,.1.1l.06-.05v0Z"/><path class="cls-1" d="M15.45,14.14h-.16a3980657295328.63,3980657295328.63,0,0,1,.1.1l.06-.05Z"/><path class="cls-13" d="M15.39,14.35l-.05.05c-.05,0,0,0,0,0h.11v0l-.06-.05Z"/><path d="M15.29,14.45a.15.15,0,0,1,.05-.1h.05l.06.05h0l-.06-.05h0l-.05.05v0s.05,0,.11,0h-.16Z"/><polygon points="16.28 14.35 16.28 14.3 16.33 14.35 16.28 14.35"/><polygon class="cls-1" points="16.28 14.35 16.28 14.3 16.33 14.35 16.28 14.35 16.28 14.35"/><polygon points="16.33 14.35 16.33 14.3 16.38 14.35 16.33 14.35"/><polygon class="cls-1" points="16.33 14.35 16.33 14.3 16.38 14.35 16.33 14.35 16.33 14.35"/><polygon points="16.28 14.14 16.33 14.14 16.28 14.19 16.28 14.14"/><polygon class="cls-1" points="16.28 14.14 16.33 14.14 16.28 14.19 16.28 14.14 16.28 14.14"/><path d="M16.23,15h-.06l.11,0s0-.06,0-.06v-.15l0,.05a.18.18,0,0,1-.11,0h-.05a.17.17,0,0,0,.05-.1h0l-.15.05-.06,0h0a.14.14,0,0,1,.06-.1h.05l.1-.06h-.05a0,0,0,0,1,.05-.05h-.05l-.1-.05h0a.05.05,0,0,0-.06.05s0-.05,0-.1l.06-.05v.05H16s0,0,.06,0h0l.1.05v-.05h.05v.21a.18.18,0,0,0,.11-.05l0-.06c.05.06,0,.06.05.11v0h.11l-.06,0h.06v-.05h0v.1a0,0,0,0,1,.05.05l.05-.05v0c.05,0,0,0,0,0a.22.22,0,0,1-.05.11l-.05-.11v0h-.06l-.05.05h0s-.05.06-.1.06a0,0,0,0,1-.05,0Z"/><path class="cls-13" d="M15.55,15a.06.06,0,0,0-.06-.06s-.1.06-.1.06h.06s0,0,0,0l.06,0Z"/><path class="cls-1" d="M15.55,15a.06.06,0,0,0-.06-.06s-.1.06-.1.06h.06s0,0,0,0l.06,0Z"/><path class="cls-13" d="M15.49,15.13h0a.16.16,0,0,0-.06.11l.06-.06s0,.06,0,.06v-.06c.06,0,0,0,0,0Z"/><path class="cls-1" d="M15.49,15.13h0a.16.16,0,0,0-.06.11l.06-.06s0,.06,0,.06v-.06C15.55,15.18,15.49,15.13,15.49,15.13Z"/><path class="cls-13" d="M15.6,15.29v.1h.05v-.1H15.6Z"/><path class="cls-1" d="M15.6,15.29v.1h.05v-.1H15.6Z"/><path d="M16.64,15.65a.44.44,0,0,0,.06-.16s-.11-.1-.11-.1v-.05c0,.05.11.11.11.15a.21.21,0,0,1-.06.16Z"/><path class="cls-13" d="M16,15.7l-.06,0a.14.14,0,0,1-.1,0H16v.06h0L16,15.7Z"/><path class="cls-1" d="M16,15.7l-.06,0a.14.14,0,0,1-.1,0H16v.06h0Z"/><path class="cls-13" d="M15.92,15.86a.16.16,0,0,0-.11.06c-.05,0-.05,0-.05,0a.08.08,0,0,1,.1,0h.06v-.1Z"/><path class="cls-1" d="M15.92,15.86a.16.16,0,0,0-.11.06c-.05,0-.05,0-.05,0a.08.08,0,0,1,.1,0h.06v-.1Z"/><path class="cls-13" d="M16,16.07s-.06.05,0,.05l.05.05v-.05l.05-.05Z"/><path class="cls-1" d="M16,16.07s-.06.05,0,.05l.05.05v-.05l.05-.05Z"/><path class="cls-13" d="M16.75,16.12H16.7c-.06,0-.06.11-.06.11l.06-.06c.05,0,.05.06.05.06a.08.08,0,0,0,0-.11Z"/><path d="M16.59,16.23h0s.05-.11.11-.11h.1l-.05.05v-.05H16.7a.05.05,0,0,1-.06.05h.11v.06a.07.07,0,0,0-.11,0Z"/><path class="cls-13" d="M16.8,16.33a0,0,0,0,0-.05.05l.05.05v-.05a0,0,0,0,1,.05-.05Z"/><path class="cls-1" d="M16.8,16.33a0,0,0,0,0-.05.05l.05.05v-.05a0,0,0,0,1,.05-.05Z"/><path class="cls-13" d="M17,16.33s0,.1.05.1a.05.05,0,0,0,0,.06.22.22,0,0,1,0-.11l0-.05H17Z"/><path class="cls-1" d="M17,16.33s0,.1.05.1a.05.05,0,0,0,0,.06.22.22,0,0,1,0-.11l0-.05H17Z"/><path class="cls-15" d="M15.08,19.67c.1,0,.16.1.16.21s-.11.26-.32.26a.29.29,0,0,1-.31-.26.19.19,0,0,1,.21-.21h-.05v-.05s.05-.05.05,0h0l.05-.05H15v.05h0l.05-.05v.1Z"/><path d="M14.92,20.19a.3.3,0,0,1-.31-.31.19.19,0,0,1,.21-.21h0c-.11,0-.21.16-.21.21a.29.29,0,0,0,.31.26c.21,0,.32-.1.32-.26s-.06-.16-.16-.21H15l.05-.05H15l-.06-.05h0l-.05.1,0-.05v.05l-.11-.1.11.05v-.05h.1l.11.05h0l.05-.05v.05a.34.34,0,0,1,.21.26c0,.21-.16.31-.37.31Z"/><path class="cls-9" d="M14.92,20.3a1.24,1.24,0,0,0-.36-.16.68.68,0,0,0-.32,0,.22.22,0,0,0,.11.05.43.43,0,0,0,.21.11.41.41,0,0,0,.36,0Z"/><path d="M14.71,20.35h-.15c-.05-.05-.21-.11-.26-.16l-.06-.05.06-.05h.26a1.66,1.66,0,0,1,.36.21.53.53,0,0,1-.21.05Zm-.41-.21a0,0,0,0,0,0,.05.43.43,0,0,0,.21.11.84.84,0,0,0,.36,0,2,2,0,0,1-.36-.16H14.3Z"/><path class="cls-9" d="M15,20.3a1.23,1.23,0,0,1,.31-.16,1.94,1.94,0,0,1,.36.05,0,0,0,0,0-.05,0,1.71,1.71,0,0,1-.26.06H15Z"/><path d="M15.34,20.35H15l0-.05h.31a.46.46,0,0,0,.21-.06.15.15,0,0,1,.1,0l-.05,0a.35.35,0,0,1-.26.11Zm-.36,0V20.3a.52.52,0,0,1,.31-.16.86.86,0,0,1,.36,0v.05a2.43,2.43,0,0,0-.26-.05h-.1a.74.74,0,0,0-.31.21Z"/><path class="cls-6" d="M14.92,20.14a.32.32,0,0,1,0-.47.36.36,0,0,1,.11.21.37.37,0,0,1-.11.26Z"/><path d="M14.92,20.14h0a.32.32,0,0,1,0-.47.21.21,0,0,1,.11.21c0,.1,0,.21-.11.26Zm0-.47a.41.41,0,0,0-.05.21c0,.1,0,.21.05.21a.26.26,0,0,0,.11-.21c0-.05,0-.11-.11-.21Z"/><path class="cls-9" d="M14.87,20.45a.5.5,0,0,0,.05-.15v-.16h0a.44.44,0,0,1,.06.16v.1l-.06.05Z"/><path d="M14.92,20.45h-.05a.5.5,0,0,0,.05-.15v-.16h0c.06,0,.06.1.06.16v.1l-.06.05Zm0-.31v.26s.06,0,.06-.1a.44.44,0,0,0-.06-.16Z"/><path class="cls-8" d="M17.85,11.85s0-.06.1-.06l.05.06A.17.17,0,0,1,18,12a.11.11,0,0,1-.1-.1Z"/><path class="cls-1" d="M17.85,11.85s0-.06.1-.06l.05.06A.17.17,0,0,1,18,12,.11.11,0,0,1,17.85,11.85Z"/><path class="cls-8" d="M18,11.74a.11.11,0,0,1,.1-.1s.06,0,.06.1H18Z"/><path class="cls-1" d="M18,11.74a.11.11,0,0,1,.1-.1s.06,0,.06.1H18Z"/><path class="cls-8" d="M18.05,11.53s0,0,.06,0,0,0,0,0l0,.05a.05.05,0,0,1-.06-.05Z"/><path class="cls-1" d="M18.05,11.53s0,0,.06,0,0,0,0,0l0,.05A.05.05,0,0,1,18.05,11.53Z"/><path class="cls-8" d="M18.05,11.32a.05.05,0,0,1,.06-.05s0,.05,0,.05,0,0,0,0-.06,0-.06,0Z"/><path class="cls-1" d="M18.05,11.32a.05.05,0,0,1,.06-.05s0,.05,0,.05,0,0,0,0S18.05,11.37,18.05,11.32Z"/><path class="cls-8" d="M18,11.11a0,0,0,0,1,.05,0,.05.05,0,0,1,.06,0c0,.06,0,.11-.06.11s-.05-.05-.05-.11Z"/><path class="cls-1" d="M18,11.11a0,0,0,0,1,.05,0,.05.05,0,0,1,.06,0c0,.06,0,.11-.06.11S18,11.17,18,11.11Z"/><path class="cls-8" d="M17.9,11c0-.06,0-.06.05-.06s.05,0,.05.06,0,0-.05,0-.05,0-.05,0Z"/><path class="cls-1" d="M17.9,11c0-.06,0-.06.05-.06s.05,0,.05.06,0,0-.05,0S17.9,11,17.9,11Z"/><path class="cls-8" d="M17.74,10.8a.18.18,0,0,1,.11-.05l0,.05a.17.17,0,0,1,0,.1.11.11,0,0,1-.11-.1Z"/><path class="cls-1" d="M17.74,10.8a.18.18,0,0,1,.11-.05l0,.05a.17.17,0,0,1,0,.1A.11.11,0,0,1,17.74,10.8Z"/><path class="cls-8" d="M17.58,10.7a.06.06,0,0,1,.06-.06c.05,0,.1,0,.1.06s0,.05-.1.05-.06,0-.06-.05Z"/><path class="cls-1" d="M17.58,10.7a.06.06,0,0,1,.06-.06c.05,0,.1,0,.1.06s0,.05-.1.05S17.58,10.75,17.58,10.7Z"/><path class="cls-8" d="M17.43,10.59a.05.05,0,0,1,.1,0c0,.05,0,.05-.05.05s-.05,0-.05-.05Z"/><path class="cls-1" d="M17.43,10.59a.05.05,0,0,1,.1,0c0,.05,0,.05-.05.05S17.43,10.64,17.43,10.59Z"/><path class="cls-8" d="M17.22,10.54s0,0,.05,0,.05,0,.05,0,0,.05-.05.05-.05,0-.05-.05Z"/><path class="cls-1" d="M17.22,10.54s0,0,.05,0,.05,0,.05,0,0,.05-.05.05S17.22,10.59,17.22,10.54Z"/><path class="cls-8" d="M17,10.49c0-.06,0-.06,0-.06s.05,0,.05.06,0,0-.05,0,0,0,0,0Z"/><path class="cls-1" d="M17,10.49c0-.06,0-.06,0-.06s.05,0,.05.06,0,0-.05,0S17,10.54,17,10.49Z"/><path class="cls-8" d="M16.8,10.49c0-.06,0-.06.05-.06s0,0,0,.06a0,0,0,1,1-.1,0Z"/><path class="cls-1" d="M16.8,10.49c0-.06,0-.06.05-.06s0,0,0,.06a0,0,0,1,1-.1,0Z"/><path class="cls-8" d="M16.59,10.49c0-.06,0-.06.05-.06s.06,0,.06.06a.05.05,0,0,1-.06,0,0,0,0,0,1-.05,0Z"/><path class="cls-1" d="M16.59,10.49c0-.06,0-.06.05-.06s.06,0,.06.06a.05.05,0,0,1-.06,0A0,0,0,0,1,16.59,10.49Z"/><path class="cls-8" d="M16.38,10.49a.05.05,0,0,1,.05-.06c.06,0,.11,0,.11.06a.18.18,0,0,1-.11,0l-.05,0Z"/><path class="cls-1" d="M16.38,10.49a.05.05,0,0,1,.05-.06c.06,0,.11,0,.11.06a.18.18,0,0,1-.11,0Z"/><path class="cls-8" d="M16.49,10.64l.05-.05a0,0,0,0,1,.05.05c0,.06,0,.06-.05.06a.05.05,0,0,1-.05-.06Z"/><path class="cls-1" d="M16.49,10.64l.05-.05a0,0,0,0,1,.05.05c0,.06,0,.06-.05.06a.05.05,0,0,1-.05-.06Z"/><path class="cls-8" d="M16.54,10.85a0,0,0,0,1,.05,0c.05,0,.05,0,.05,0s0,.05-.05.05a0,0,0,0,1-.05-.05Z"/><path class="cls-1" d="M16.54,10.85a0,0,0,0,1,.05,0c.05,0,.05,0,.05,0s0,.05-.05.05a0,0,0,0,1-.05-.05Z"/><path class="cls-8" d="M16.54,11l.05,0a.22.22,0,0,1,.11,0,.12.12,0,0,1-.11.1.17.17,0,0,1-.05-.1Z"/><path class="cls-1" d="M16.54,11l.05,0a.22.22,0,0,1,.11,0,.12.12,0,0,1-.11.1.17.17,0,0,1-.05-.1Z"/><path class="cls-8" d="M16.49,11.22c0-.05,0-.05.05-.05s.05,0,.05.05a0,0,0,1,1-.1,0Z"/><path class="cls-1" d="M16.49,11.22c0-.05,0-.05.05-.05s.05,0,.05.05a0,0,0,1,1-.1,0Z"/><path class="cls-8" d="M16.38,11.37s0,0,.05,0,.06,0,.06,0,0,.06-.06.06-.05,0-.05-.06Z"/><path class="cls-1" d="M16.38,11.37s0,0,.05,0,.06,0,.06,0,0,.06-.06.06-.05,0-.05-.06Z"/><path class="cls-8" d="M16.23,10.38a.17.17,0,0,1,.05-.1.11.11,0,0,1,.1.1.17.17,0,0,1-.1,0l-.05,0Z"/><path class="cls-1" d="M16.23,10.38a.17.17,0,0,1,.05-.1.11.11,0,0,1,.1.1.17.17,0,0,1-.1,0Z"/><path class="cls-8" d="M16.07,10.28s0,0,.05,0a0,0,0,0,1,.05,0l-.05.05a0,0,0,0,1-.05-.05Z"/><path class="cls-1" d="M16.07,10.28s0,0,.05,0a0,0,0,0,1,.05,0l-.05.05A0,0,0,0,1,16.07,10.28Z"/><path class="cls-8" d="M15.86,10.23a.06.06,0,0,1,.06-.06s0,0,0,.06,0,0,0,0l-.06,0Z"/><path class="cls-1" d="M15.86,10.23a.06.06,0,0,1,.06-.06s0,0,0,.06,0,0,0,0Z"/><path class="cls-8" d="M15.65,10.17a0,0,0,0,1,0-.05c.06,0,.06,0,.06.05s0,.06-.06.06a.05.05,0,0,1,0-.06Z"/><path class="cls-1" d="M15.65,10.17a0,0,0,0,1,0-.05c.06,0,.06,0,.06.05s0,.06-.06.06A.05.05,0,0,1,15.65,10.17Z"/><path class="cls-8" d="M15.45,10.17a.14.14,0,0,1,.1-.05l0,.05a.05.05,0,0,1,0,.06c-.06,0-.1,0-.1-.06Z"/><path class="cls-1" d="M15.45,10.17a.14.14,0,0,1,.1-.05l0,.05a.05.05,0,0,1,0,.06C15.49,10.23,15.45,10.23,15.45,10.17Z"/><path class="cls-8" d="M15.24,10.23c0-.06,0-.06.1-.06a.05.05,0,0,1,.05.06l-.05,0a.17.17,0,0,1-.1,0Z"/><path class="cls-1" d="M15.24,10.23c0-.06,0-.06.1-.06a.05.05,0,0,1,.05.06l-.05,0A.17.17,0,0,1,15.24,10.23Z"/><path class="cls-8" d="M15.08,10.28s0,0,.05,0a0,0,0,0,1,0,.1c-.05,0-.05,0-.05-.05Z"/><path class="cls-1" d="M15.08,10.28s0,0,.05,0a0,0,0,0,1,0,.1C15.08,10.33,15.08,10.33,15.08,10.28Z"/><path class="cls-8" d="M11.79,11.85a.06.06,0,0,1,.06-.06c.05,0,.05.06.05.06s0,.1-.05.1-.06,0-.06-.1Z"/><path class="cls-1" d="M11.79,11.85a.06.06,0,0,1,.06-.06c.05,0,.05.06.05.06s0,.1-.05.1S11.79,11.9,11.79,11.85Z"/><path class="cls-8" d="M11.69,11.74a.11.11,0,0,1,.1-.1s.06,0,.06.1h-.16Z"/><path class="cls-1" d="M11.69,11.74a.11.11,0,0,1,.1-.1s.06,0,.06.1h-.16Z"/><path class="cls-8" d="M11.64,11.53a0,0,0,0,1,0,0c.05,0,.1,0,.1,0a.17.17,0,0,1-.1.05l0-.05Z"/><path class="cls-1" d="M11.64,11.53a0,0,0,0,1,0,0c.05,0,.1,0,.1,0a.17.17,0,0,1-.1.05Z"/><path class="cls-8" d="M11.64,11.32l0-.05a0,0,0,0,1,.05.05s0,0-.05,0a0,0,0,0,1,0,0Z"/><path class="cls-1" d="M11.64,11.32l0-.05a0,0,0,0,1,.05.05s0,0-.05,0A0,0,0,0,1,11.64,11.32Z"/><path class="cls-8" d="M11.69,11.11a.05.05,0,0,1,.1,0c0,.06,0,.11,0,.11s-.05-.05-.05-.11Z"/><path class="cls-1" d="M11.69,11.11a.05.05,0,0,1,.1,0c0,.06,0,.11,0,.11S11.69,11.17,11.69,11.11Z"/><path class="cls-8" d="M11.79,11c0-.06,0-.06.06-.06s.05,0,.05.06,0,0-.05,0-.06,0-.06,0Z"/><circle class="cls-1" cx="11.85" cy="10.96" r="0.05"/><path class="cls-8" d="M11.9,10.8a.17.17,0,0,1,.1-.05l.05.05a.17.17,0,0,1-.05.1.11.11,0,0,1-.1-.1Z"/><path class="cls-1" d="M11.9,10.8a.17.17,0,0,1,.1-.05l.05.05a.17.17,0,0,1-.05.1A.11.11,0,0,1,11.9,10.8Z"/><path class="cls-8" d="M12.05,10.7c0-.06.06-.06.11-.06a.05.05,0,0,1,.05.06,0,0,0,0,1-.05.05c-.05,0-.11,0-.11-.05Z"/><path class="cls-1" d="M12.05,10.7c0-.06.06-.06.11-.06a.05.05,0,0,1,.05.06,0,0,0,0,1-.05.05C12.11,10.75,12.05,10.75,12.05,10.7Z"/><path class="cls-8" d="M12.26,10.59a.05.05,0,0,1,.06-.05s0,.05,0,.05,0,.05,0,.05-.06,0-.06-.05Z"/><path class="cls-1" d="M12.26,10.59a.05.05,0,0,1,.06-.05s0,.05,0,.05,0,.05,0,.05S12.26,10.64,12.26,10.59Z"/><path class="cls-8" d="M12.42,10.54s.05,0,.1,0,.06,0,.06,0-.06.05-.06.05-.1,0-.1-.05Z"/><path class="cls-1" d="M12.42,10.54s.05,0,.1,0,.06,0,.06,0-.06.05-.06.05S12.42,10.59,12.42,10.54Z"/><path class="cls-8" d="M12.68,10.49c0-.06,0-.06.05-.06s.06,0,.06.06,0,0-.06,0-.05,0-.05,0Z"/><circle class="cls-1" cx="12.73" cy="10.49" r="0.05"/><path class="cls-8" d="M12.83,10.49c0-.06.06-.06.11-.06a.05.05,0,0,1,.05.06l-.05,0a.22.22,0,0,1-.11,0Z"/><path class="cls-1" d="M12.83,10.49c0-.06.06-.06.11-.06a.05.05,0,0,1,.05.06l-.05,0A.22.22,0,0,1,12.83,10.49Z"/><path class="cls-8" d="M13,10.49c0-.06.06-.06.11-.06a.05.05,0,0,1,0,.06l0,0a.22.22,0,0,1-.11,0Z"/><path class="cls-1" d="M13,10.49c0-.06.06-.06.11-.06a.05.05,0,0,1,0,.06l0,0A.22.22,0,0,1,13,10.49Z"/><path class="cls-8" d="M13.25,10.49c0-.06.05-.06.11-.06a.05.05,0,0,1,.05.06l-.05,0a.18.18,0,0,1-.11,0Z"/><path class="cls-1" d="M13.25,10.49c0-.06.05-.06.11-.06a.05.05,0,0,1,.05.06l-.05,0A.18.18,0,0,1,13.25,10.49Z"/><path class="cls-8" d="M13.15,10.64a.17.17,0,0,1,.1-.05l.05.05a.05.05,0,0,1-.05.06c-.05,0-.1,0-.1-.06Z"/><path class="cls-1" d="M13.15,10.64a.17.17,0,0,1,.1-.05l.05.05a.05.05,0,0,1-.05.06c-.05,0-.1,0-.1-.06Z"/><path class="cls-8" d="M13.15,10.85s0,0,0,0,.05,0,.05,0,0,.05-.05.05,0,0,0-.05Z"/><path class="cls-1" d="M13.15,10.85s0,0,0,0,.05,0,.05,0,0,.05-.05.05,0,0,0-.05Z"/><path class="cls-8" d="M13.15,11a.05.05,0,0,1,.1,0c0,.05,0,.1-.05.1s0,0,0-.1Z"/><path class="cls-1" d="M13.15,11a.05.05,0,0,1,.1,0c0,.05,0,.1-.05.1s0,0,0-.1Z"/><path class="cls-8" d="M13.2,11.22c0-.05,0-.05.05-.05a0,0,0,0,1,.05.05l-.05,0a0,0,0,0,1-.05,0Z"/><path class="cls-1" d="M13.2,11.22c0-.05,0-.05.05-.05a0,0,0,0,1,.05.05l-.05,0a0,0,0,0,1-.05,0Z"/><path class="cls-8" d="M13.3,11.37s0,0,.06,0,.05,0,.05,0,0,.06-.05.06-.06,0-.06-.06Z"/><path class="cls-1" d="M13.3,11.37s0,0,.06,0,.05,0,.05,0,0,.06-.05.06-.06,0-.06-.06Z"/><path class="cls-8" d="M13.41,10.38a.17.17,0,0,1,.05-.1.12.12,0,0,1,.11.1.22.22,0,0,1-.11,0l-.05,0Z"/><path class="cls-1" d="M13.41,10.38a.17.17,0,0,1,.05-.1.12.12,0,0,1,.11.1.22.22,0,0,1-.11,0Z"/><path class="cls-8" d="M13.62,10.28s0,0,.05,0a0,0,0,0,1,.05,0l-.05.05a0,0,0,0,1-.05-.05Z"/><path class="cls-1" d="M13.62,10.28s0,0,.05,0a0,0,0,0,1,.05,0l-.05.05A0,0,0,0,1,13.62,10.28Z"/><path class="cls-8" d="M13.77,10.23c0-.06.06-.06.11-.06a.05.05,0,0,1,0,.06l0,0a.22.22,0,0,1-.11,0Z"/><path class="cls-1" d="M13.77,10.23c0-.06.06-.06.11-.06a.05.05,0,0,1,0,.06l0,0A.22.22,0,0,1,13.77,10.23Z"/><path class="cls-8" d="M14,10.17c0-.05.06-.05.11-.05a0,0,0,0,1,.05.05.05.05,0,0,1-.05.06c-.05,0-.11,0-.11-.06Z"/><path class="cls-1" d="M14,10.17c0-.05.06-.05.11-.05a0,0,0,0,1,.05.05.05.05,0,0,1-.05.06C14,10.23,14,10.23,14,10.17Z"/><path class="cls-8" d="M14.19,10.17a.18.18,0,0,1,.11-.05l0,.05a.05.05,0,0,1,0,.06c-.06,0-.11,0-.11-.06Z"/><path class="cls-1" d="M14.19,10.17a.18.18,0,0,1,.11-.05l0,.05a.05.05,0,0,1,0,.06C14.24,10.23,14.19,10.23,14.19,10.17Z"/><path class="cls-8" d="M14.4,10.23c0-.06,0-.06.11-.06a.05.05,0,0,1,.05.06l-.05,0a.18.18,0,0,1-.11,0Z"/><path class="cls-1" d="M14.4,10.23c0-.06,0-.06.11-.06a.05.05,0,0,1,.05.06l-.05,0A.18.18,0,0,1,14.4,10.23Z"/><path class="cls-8" d="M14.61,10.28s0,0,.05,0,.05,0,.05,0,0,.05-.05.05-.05,0-.05-.05Z"/><circle class="cls-1" cx="14.66" cy="10.28" r="0.05"/><path class="cls-7" d="M13,14.24h-.05v-.05h-.11v.21h.11v.16h-.21V15h.1v.88h-.2v.47H14.3v-.47h-.21V15h.1v-.42H14V14.4h.11v-.21H14v.05h-.1v-.05h-.05v.05h-.06v-.05h-.1v.21h.1v.16h-.2v-.47h.1v-.21h-.1v0h-.11v0h-.05v0h-.05v0h-.11v.21h.11v.47h-.21V14.4h.1v-.21h-.1v.05H13.1v-.05H13Zm-.36,2.09h0Zm0-.16h0Zm0-.1h0Zm0-.11h0Zm0-.1h0Zm.2-.1h0Zm0-.11h0Zm0-.1h0Zm0-.1h0Zm0-.16h0Zm0-.11h0Zm0-.1h0Zm-.1-.1h0Zm0-.11h0Zm0-.1h0Zm0-.11h0Zm.21-.1h0Zm.42-.11h0Zm0-.1h0Zm0-.11h0Zm0-.1h0ZM13.25,14h0Zm-.31.47h0Zm-.11-.15h0Zm0,2v0Zm0-.26v0Zm-.1,0v0Zm.21.1v0Zm.1.16v0Zm0-.26v0Zm0-.21v0Zm0-.21v0Zm-.1.31v0Zm-.21,0v0Zm.42-.1v0Zm.1,0v0Zm-.31-.21v0Zm.21,0v0Zm.21,0v0Zm-.11,0v0Zm.11-.2v0Zm0-.27v0Zm-.11-.1v0Zm.11-.1v0Zm-.21,0v0Zm-.21,0v0Zm-.11-.11v0Zm.21,0v0Zm.21,0v0Zm.11-.1v0Zm-.21,0v0Zm-.21,0v0Zm-.11-.11v0Zm.42,0v0ZM13,14.45v0Zm.94,0h0Zm.11-.15h0Zm0,2v0Zm0-.26v0Zm.1,0v0Zm-.21.1v0Zm-.1.16v0Zm0-.26v0Zm0-.21v0Zm0-.21v0ZM14,16v0Zm.21,0v0Zm-.42-.1v0Zm-.1,0v0Zm.31-.21v0Zm-.21,0v0Zm-.2,0v0Zm.1,0v0Zm-.1-.2v0Zm0-.27v0Zm.1-.1v0Zm-.1-.1v0Zm.2,0v0ZM14,15v0Zm.11-.11v0Zm-.21,0v0Zm-.21,0v0Zm-.1-.1v0Zm.2,0v0Zm.21,0v0Zm.11-.11v0Zm-.42,0v0Zm.21-.21v0Zm-.42,1.2v0Zm0-.47v0Zm0,.27v0Zm0-.47v0Zm0-.21v0Zm0-.32v0Zm0-.21v0Zm-.52.16h0Zm.42-.31h0Zm.41.31h0Z"/><path d="M12.63,16.33v-.47l.2,0V15h-.1v-.42h.21l0-.16-.06,0v-.26h.11v.05h0v-.05h-.06v.11h.42v-.11l-.15.05.05-.05h.1v.21l-.1,0v.11h.21l-.06-.47h-.05v-.21l.11-.05-.06.1-.05,0V14h.42l-.05-.1h-.11l.06-.05h.1v.26h-.1v.47h.2l0-.16-.05,0-.05-.26h.15v.05h0v-.05h-.05v.16l.37,0v-.11l-.11.05.05-.05h.11v.21l-.11,0v.11h.21V15h-.1v.83h.21l-.21,0h0l.21,0v.52Zm1.46,0h.21v-.11H14l-.94.06v.05h.79v-.11l.05.11H14v-.11l.05.11Zm.1-.11h.11v-.1h-.42l-.94.05v.05h1v-.1l.05.1h.21l0-.1h0v.1Zm-.1-.1h.21V16H13v.11h.79V16l.05.11H14V16l.05.11ZM14,16h.16v-.1h-1V16h.62l0-.1h0V16h.16v-.1L14,16Zm-.1-.15h.21v-.05h-.84v.05h.37v-.05l.05.05h.16v-.05l.05.05Zm.1-.05h.11L14,15.65h-.68v.11h.21l-.06-.11h.06v.11h.2l0-.11h0v.11H14l-.05-.11H14v.11Zm-.1-.11H14v-.16l-.47.06v-.06l-.16.06.05.1h.16v-.1l.05.1h.16v-.1l.05.1Zm-.31-.16H14v-.1l-.68.06v0h.21l-.06,0h.06v0Zm-.74,0h.53l-.06,0h-.47v0Zm.63-.1H14v-.1h-.63l.05.1Zm-.63,0h.58v-.1l-.58.05v.05Zm.74-.1H14v-.11h-.68v.11h.21l-.06-.11h.06v.11Zm-.74,0h.53l-.06-.11-.47.06v0Zm.84-.11H14v-.1h-.63l.05.1h.21l-.05-.1h.05v.1Zm-.84,0h.42v-.1h-.42v.1Zm1.15-.1H14V15h-.68v.1h.21l-.06-.1h.06v.1h.2l0-.1h0v.1H14l-.05-.1H14v.1Zm.11-.1h.1l0-.11h-.73l.05.11h.21l-.05-.11h.05V15h.21l-.05-.11h.05V15h.21L14,14.87h.05V15ZM14,14.87h.16v-.1h-.78v.1h.21l-.06-.1h.06v.1h.2l0-.1h0v.1H14l-.05-.1H14v.1Zm.11-.1h.05v-.11h-.73l.05.11h.21l-.05-.11h.05v.11h.42L14,14.66h.05v.11Zm-1.26,0h.42v-.11h-.42v.11Zm-.1-.11h1.41v-.1H12.73v.1Zm1-.21h.16v0h.16L14,14.35h-.37v.05H14l-.21,0Zm-.83,0h.21v0h.1v-.1l-.42,0v.05h.32l-.21,0Zm.42-.31h.15v-.05h.16V14h-.42v.11h.11v.05Z"/><path class="cls-7" d="M13.72,16.33V16a.23.23,0,0,0-.26-.21c-.26,0-.31.15-.31.21v.31Z"/><path d="M13.72,16.33h-.57V16c0-.06,0-.21.31-.21s.26.15.26.21v.31Zm-.26-.52c-.26,0-.26.15-.26.21v.31l.52,0V16a.23.23,0,0,0-.26-.21Z"/><path class="cls-7" d="M13.25,16h-.1c0-.06,0-.16,0-.16l.1.1-.05.06Z"/><path d="M13.25,16h-.1c-.05-.06,0-.16,0-.16l.15.06a.22.22,0,0,1-.05.1Z"/><path class="cls-7" d="M13.62,16h.15c0-.06,0-.16,0-.16l-.15.1s0,.06,0,.06Z"/><path d="M13.62,16h0l0-.06.1-.1c.1,0,.1.1.1.16Z"/><path class="cls-7" d="M13.46,15.92l.11-.16H13.3l.11.16Z"/><path d="M13.46,15.92h-.05l-.11-.11c.11-.11.21-.11.27-.05l-.11.16Z"/><path class="cls-7" d="M13.25,15.55v-.26c0-.11-.05-.16-.15-.16a.14.14,0,0,0-.16.16v.26Z"/><path d="M13.25,15.6h-.31v-.31a.16.16,0,1,1,.31,0v.31Zm-.15-.47a.14.14,0,0,0-.16.16v.26h.31v-.26c0-.11-.05-.16-.15-.16Z"/><path class="cls-7" d="M13.67,15.55v-.26c0-.11.05-.16.1-.16a.14.14,0,0,1,.16.16v.26Z"/><path d="M14,15.6h-.31v-.31a.16.16,0,1,1,.31,0v.31Zm-.21-.47s-.1,0-.1.16v.26h.26v-.26a.14.14,0,0,0-.16-.16Z"/><polygon class="cls-7" points="13.93 14.82 13.98 14.56 13.72 14.56 13.72 14.82 13.93 14.82"/><path d="M14,14.87h-.26v-.31H14v.31Zm0-.31h-.26l0,.26h.16l.05-.26Z"/><polygon class="cls-7" points="13.36 14.82 13.3 14.56 13.56 14.56 13.56 14.82 13.36 14.82"/><path d="M13.57,14.87h-.21l-.06-.31h.27v.31Zm0-.31H13.3l.06.26h.21v-.26Z"/><polygon class="cls-7" points="13.15 14.82 13.15 14.56 12.89 14.56 12.94 14.82 13.15 14.82"/><path d="M13.15,14.87h-.21l0-.31h.26v.31Zm0-.31h-.26l0,.26h.21v-.26Z"/><path class="cls-16" d="M13.62,16.33v-.26c0-.05,0-.15-.16-.15s-.21.1-.21.15v.26Z"/><path class="cls-16" d="M13.2,15.55v-.26c0-.11,0-.16-.1-.16a.14.14,0,0,0-.16.16v.26Z"/><path class="cls-16" d="M13.67,15.55v-.26c0-.11.05-.16.1-.16a.14.14,0,0,1,.16.16v.26Z"/><path class="cls-6" d="M13.93,16.75a1,1,0,0,1,1-1.05,1,1,0,0,1,.94,1.05,1.06,1.06,0,0,1-.94,1.15,1.11,1.11,0,0,1-1-1.15Z"/><path d="M14.92,17.9a1.11,1.11,0,0,1-1-1.15,1.09,1.09,0,0,1,1-1.1,1.09,1.09,0,0,1,1,1.1,1.11,1.11,0,0,1-1,1.15Zm0-2.2A1,1,0,0,0,14,16.75a1,1,0,1,0,1.88,0,1,1,0,0,0-.94-1.05Z"/><g class="cls-17"><path class="cls-10" d="M14.24,16.75a.76.76,0,0,1,.68-.79.82.82,0,0,1,0,1.62.77.77,0,0,1-.68-.83Z"/></g><path d="M14.92,17.58c-.41,0-.68-.36-.68-.83a.73.73,0,0,1,.68-.79.82.82,0,0,1,0,1.62Zm0-1.56a.71.71,0,0,0-.68.73.77.77,0,0,0,.68.83.76.76,0,0,0,.68-.83.7.7,0,0,0-.68-.73Z"/><path class="cls-7" d="M14.61,16.23s-.1.1-.1.15a.23.23,0,0,0,.05.16.18.18,0,0,0-.11-.05,0,0,0,0,0,0,.05v.16c0-.06,0-.06.11-.06a.05.05,0,0,1,.05.06v.05h-.11v.05h.06v.05h.05l0,0,.05,0h.05l-.05-.05h.05v-.05h-.05V16.7a.05.05,0,0,1,.05-.06.06.06,0,0,1,.06.06l.05-.06v-.05s-.05-.1-.11-.1l-.05.05a.23.23,0,0,0,.05-.16c0-.05-.1-.15-.1-.15Z"/><path d="M14.61,16.9h0l0,0-.05,0v-.15l-.06.05v-.05l.06-.05-.06.05h.06v.1h.05l0,0,.05,0h.05l-.05-.05.05-.05h-.05c-.05-.11.11-.11.11-.11h.05c0-.15-.11-.15-.16-.1v-.16a.5.5,0,0,0-.05-.15s-.1.1-.1.15a.6.6,0,0,0,.05.16c-.05-.05-.16-.05-.16.05l0,.05s.11,0,.11.06h0c-.05,0-.05-.06-.05-.06l-.11.06h0v-.06c-.05-.15,0-.21.11-.15v-.11c0-.05.1-.15.1-.15s.1.1.1.15,0,.11-.05.11.16,0,.16.1l-.05.11-.06-.06-.05.06h.05v.1h-.05l.05.05h-.05l-.05,0Z"/><rect class="cls-7" x="14.45" y="16.75" width="0.26" height="0.05"/><polygon points="14.71 16.8 14.45 16.8 14.45 16.75 14.71 16.7 14.71 16.8 14.71 16.8"/><path class="cls-7" d="M15.24,16.23s-.11.1-.11.15a.23.23,0,0,0,0,.16l0-.05c-.1,0-.1.05-.1.05v.1l.05.06c0-.06,0-.06.05-.06a.05.05,0,0,1,0,.06v.05h0v.05h0l0,.05h0l.06,0,0,0h.05l-.05-.05h.05v-.05h-.05V16.7a.05.05,0,0,1,.05-.06c.05,0,.05,0,.05.06l.06-.06v-.05s-.06-.1-.11-.1l-.05.05a.23.23,0,0,0,.05-.16c0-.05-.1-.15-.1-.15Z"/><path d="M15.24,16.9h0l-.06,0,0,0v-.1l-.05-.05.1-.05,0,.05h0l0,.1h0l.06,0,0,0h.05l-.05-.05.05-.05h-.05c0-.11.1-.11.16-.11h0c0-.15-.11-.15-.16-.1v-.16a.5.5,0,0,0,0-.15s-.11.1-.11.15a.6.6,0,0,0,0,.16c0-.05-.15-.05-.15.05l.05.05c-.05,0,.1,0,.1.06h0l0-.06s-.05.06-.1.06h0v-.06c0-.15.1-.21.1-.15v-.11c0-.05.11-.15.11-.15s.1.1.1.15v.11c0-.06.11,0,.11.1v.11l-.11-.06-.05.06h.05v.1h-.05l.05.05h-.05l0,0Z"/><rect class="cls-7" x="15.13" y="16.75" width="0.21" height="0.05"/><polygon points="15.34 16.8 15.08 16.8 15.08 16.75 15.34 16.7 15.34 16.8 15.34 16.8"/><path class="cls-7" d="M14.92,16.75a.35.35,0,0,0-.1.21.5.5,0,0,0,0,.15c0-.05,0-.05-.1-.05s-.06,0-.06.05v.11c.06,0,.06,0,.11,0a.17.17,0,0,1,0,.1h-.1v.05h.1l0,.11,0-.06.05.11.06-.11,0,.06,0-.11h0v-.05h0a.17.17,0,0,1,0-.1,0,0,0,0,1,.05,0l.05,0v-.06c0-.05,0-.05-.1-.05a0,0,0,0,0,0,.05V17a.46.46,0,0,0-.06-.21Z"/><path d="M14.92,17.48h0l-.05-.11,0,.06v-.11h-.05v-.05h0l.05.05h0l0,.11,0-.06.05.06.06-.06,0,.06,0-.11h0v-.05h0c-.06-.1.1-.1.15-.05v0c0-.16-.1-.16-.15-.11V17c0-.11-.06-.16-.06-.21s-.1.1-.1.21a.17.17,0,0,0,0,.1s-.16,0-.16.05l.06.11c-.06,0,.1,0,.1.05h0a0,0,0,0,0,0-.05h-.11v0c-.05-.16.06-.16.11-.11V17a.35.35,0,0,1,.1-.21A.34.34,0,0,1,15,17a.15.15,0,0,1,0,.1.1.1,0,0,1,.15.05v.11H15a0,0,0,0,0,0,.05h0l.05.05H15l0,.11h0l-.06.05Z"/><rect class="cls-7" x="14.77" y="17.27" width="0.26" height="0.05"/><polygon points="15.08 17.32 14.77 17.32 14.77 17.27 15.03 17.27 15.08 17.32 15.08 17.32"/><path class="cls-7" d="M16.85,13.88h0a0,0,0,0,1-.05,0h-.05c-.05,0-.05,0-.05-.1h0s0,.05-.06,0h0c-.05,0-.05-.06-.05-.06h0v.16a.55.55,0,0,1,.16.11c.05.05.1.1.15.1h.16s-.1,0-.1-.05h0V14h0V14h0L16.9,14h0l0-.06h0c-.05,0-.05-.05,0-.05h0v0Z"/><path d="M16.9,14.19v0s-.1-.05-.15-.1a.55.55,0,0,0-.16-.11v-.16h0s0,.06.05.06h0c-.05,0-.05,0-.05-.06v.16a.55.55,0,0,1,.16.11c.05,0,.1.1.15.1H17a0,0,0,0,1-.05-.05h0V14l.05.05v.05H16.9v0ZM17,14h-.11L16.8,14l.05-.05H16.8l-.05,0v0l.05,0,.05,0v0l0,.11L17,14V14Z"/><polygon points="16.8 13.98 16.75 13.98 16.75 13.93 16.75 13.93 16.8 13.98 16.8 13.98 16.8 13.98 16.8 13.98 16.8 13.98 16.8 13.98"/><polygon class="cls-1" points="16.8 13.98 16.75 13.98 16.75 13.93 16.75 13.93 16.8 13.98 16.8 13.98 16.8 13.98 16.8 13.98 16.8 13.98 16.8 13.98"/><path d="M16.7,13.93h-.06v0h0l.06,0Z"/><path class="cls-1" d="M16.7,13.93h-.06v0h0l.06,0Z"/><polygon points="16.85 14.09 16.91 14.09 16.91 14.09 16.91 14.09 16.91 14.04 16.85 14.04 16.85 14.04 16.85 14.04 16.85 14.09 16.85 14.09"/><polygon class="cls-1" points="16.85 14.09 16.91 14.09 16.91 14.09 16.91 14.09 16.91 14.04 16.85 14.04 16.85 14.04 16.85 14.04 16.85 14.09 16.85 14.09"/><polygon class="cls-7" points="16.75 13.77 16.75 13.77 16.7 13.83 16.75 13.83 16.75 13.83 16.8 13.77 16.75 13.77"/><polygon class="cls-1" points="16.75 13.77 16.75 13.77 16.7 13.83 16.75 13.83 16.75 13.83 16.8 13.77 16.75 13.77 16.75 13.77"/><polygon class="cls-7" points="16.7 13.77 16.7 13.83 16.7 13.83 16.75 13.83 16.75 13.83 16.7 13.77 16.7 13.77"/><polygon class="cls-1" points="16.7 13.77 16.7 13.83 16.7 13.83 16.75 13.83 16.75 13.83 16.7 13.77 16.7 13.77 16.7 13.77"/><polygon class="cls-7" points="16.8 13.83 16.75 13.88 16.7 13.83 16.7 13.83 16.75 13.83 16.8 13.83 16.8 13.83"/><polygon class="cls-1" points="16.8 13.83 16.75 13.88 16.7 13.83 16.7 13.83 16.75 13.83 16.8 13.83 16.8 13.83 16.8 13.83"/><path class="cls-7" d="M16.59,13.77v0l-.05-.05a0,0,0,0,1,.05.05h0v0Z"/><path class="cls-1" d="M16.59,13.77v0l-.05-.05a0,0,0,0,1,.05.05h0v0Z"/><polygon class="cls-7" points="16.64 13.77 16.59 13.77 16.59 13.77 16.59 13.77 16.59 13.72 16.64 13.72 16.64 13.77"/><polygon class="cls-1" points="16.64 13.77 16.59 13.77 16.59 13.77 16.59 13.77 16.59 13.72 16.64 13.72 16.64 13.77 16.64 13.77"/><polygon class="cls-7" points="16.91 13.83 16.85 13.83 16.85 13.88 16.85 13.88 16.85 13.88 16.91 13.88 16.91 13.83"/><polygon class="cls-1" points="16.91 13.83 16.85 13.83 16.85 13.88 16.85 13.88 16.85 13.88 16.91 13.88 16.91 13.83 16.91 13.83"/><polygon class="cls-7" points="16.8 13.88 16.8 13.88 16.85 13.93 16.85 13.93 16.85 13.88 16.85 13.83 16.8 13.88"/><polygon class="cls-1" points="16.8 13.88 16.8 13.88 16.85 13.93 16.85 13.93 16.85 13.88 16.85 13.83 16.8 13.88 16.8 13.88"/><polygon class="cls-7" points="16.91 13.93 16.85 13.93 16.85 13.93 16.85 13.88 16.85 13.88 16.91 13.93 16.91 13.93"/><polygon class="cls-1" points="16.91 13.93 16.85 13.93 16.85 13.93 16.85 13.88 16.85 13.88 16.91 13.93 16.91 13.93 16.91 13.93"/><polygon class="cls-7" points="17.01 13.93 17.01 13.98 17.01 13.98 16.96 13.98 16.96 13.98 17.01 13.93 17.01 13.93"/><polygon class="cls-1" points="17.01 13.93 17.01 13.98 17.01 13.98 16.96 13.98 16.96 13.98 17.01 13.93 17.01 13.93 17.01 13.93"/><polygon class="cls-7" points="17.01 14.04 17.01 14.04 16.96 13.98 16.96 13.98 16.96 13.98 17.01 14.04 17.01 14.04"/><polygon class="cls-1" points="17.01 14.04 17.01 14.04 16.96 13.98 16.96 13.98 16.96 13.98 17.01 14.04 17.01 14.04 17.01 14.04"/><polygon class="cls-7" points="16.91 13.93 16.91 13.98 16.96 13.98 16.96 13.98 16.96 13.98 16.96 13.93 16.91 13.93"/><polygon class="cls-1" points="16.91 13.93 16.91 13.98 16.96 13.98 16.96 13.98 16.96 13.98 16.96 13.93 16.91 13.93 16.91 13.93"/><path class="cls-7" d="M17,14V14H17V14Z"/><path class="cls-1" d="M17,14V14H17V14Z"/><path class="cls-7" d="M17.06,14.14h.05v-.05h-.05v.05Z"/><path class="cls-1" d="M17.06,14.14h.05v-.05h-.05Z"/><polygon class="cls-7" points="17.01 14.04 17.01 14.09 17.06 14.14 17.06 14.14 17.06 14.14 17.06 14.04 17.01 14.04"/><polygon class="cls-1" points="17.01 14.04 17.01 14.09 17.06 14.14 17.06 14.14 17.06 14.14 17.06 14.04 17.01 14.04 17.01 14.04"/><path class="cls-7" d="M17.06,14.14v-.05h0l0,.05Z"/><path class="cls-1" d="M17.06,14.14v-.05h0l0,.05Z"/><polygon class="cls-1" points="19.41 12.79 19.41 12.79 19.3 12.79 19.3 12.79 19.3 12.79 19.3 12.68 19.3 12.68 19.3 12.68 19.3 12.68 19.3 12.63 19.36 12.63 19.36 12.68 19.41 12.68 19.41 12.68 19.36 12.68 19.36 12.79 19.41 12.79 19.41 12.79"/></g></g></svg>