<svg id="圖層_1" data-name="圖層 1" xmlns="http://www.w3.org/2000/svg" viewBox="0 0 45 30"><defs><style>.cls-1{fill:#d11431;}.cls-2{fill:#eee;}.cls-3{fill:#d00027;}</style></defs><rect class="cls-1" width="44.76" height="30"/><path class="cls-2" d="M11.63,7.58a7.5,7.5,0,0,1,0,15,7.5,7.5,0,1,1,0-15"/><path class="cls-3" d="M13.48,9.1a6,6,0,1,1-6,5.9,6,6,0,0,1,6-5.9"/><polygon class="cls-2" points="18.04 15 21.57 16.17 22.16 14.5 18.04 15"/><polygon class="cls-2" points="18.04 15 21.57 13.83 22.16 15.67 18.04 15"/><polygon class="cls-2" points="20.57 11.46 20.57 15.17 22.51 15.17 20.57 11.46"/><polygon class="cls-2" points="20.57 11.46 22.75 14.5 21.32 15.67 20.57 11.46"/><polygon class="cls-2" points="20.57 18.54 22.75 15.5 21.32 14.5 20.57 18.54"/><polygon class="cls-2" points="20.57 18.54 20.57 14.83 22.51 14.83 20.57 18.54"/><polygon class="cls-2" points="24.79 12.81 21.25 13.98 21.83 15.85 24.79 12.81"/><polygon class="cls-2" points="24.79 12.81 22.59 15.85 21.07 14.83 24.79 12.81"/><polygon class="cls-2" points="24.79 17.19 22.59 14.15 21.07 15.33 24.79 17.19"/><polygon class="cls-2" points="24.79 17.19 21.25 16.17 21.83 14.33 24.79 17.19"/></svg>