<svg id="圖層_1" data-name="圖層 1" xmlns="http://www.w3.org/2000/svg" viewBox="0 0 45 30"><defs><style>.cls-1{fill:#2c2c35;}.cls-2{fill:#fff;}</style></defs><rect class="cls-1" width="45" height="30"/><path class="cls-2" d="M16.46,8.4a16,16,0,0,1-2,2.49,14.25,14.25,0,0,0-2-1.37,11.6,11.6,0,0,0,3.26-4.71L18,5.44c-.13.31-.28.61-.43.92h4.57v2h-2.5a12.37,12.37,0,0,1,.75,1.54l-2.14.92A15.16,15.16,0,0,0,17.15,8.4Zm-2.84,5h2.44V24.57H13.62Zm3.07-3.28a13.49,13.49,0,0,1,2.12,2.5l-2,1.32a12.86,12.86,0,0,0-2-2.62Zm3.47,11.5v.94H17.89V14.14h8.72v7.47ZM31.64,8.38H28.86a9.91,9.91,0,0,1,.82,1.45l-1.93.89h3.17v11.2c0,1.27-.31,1.85-1.22,2.21a13.07,13.07,0,0,1-4.14.36,7.82,7.82,0,0,0-.8-2.14c1.24.06,2.76.06,3.16,0s.54-.13.54-.49V13H19.17V10.72h8.31a11.42,11.42,0,0,0-1.29-2.34h-.92a11.66,11.66,0,0,1-1.62,2.23,11.42,11.42,0,0,0-2-1.34,10.36,10.36,0,0,0,2.61-4.4l2.35.55c-.1.31-.21.63-.33.94h5.4ZM20.16,16v1h4.12V16Zm4.12,3.79V18.69H20.16v1.09Z"/></svg>