<svg id="圖層_1" data-name="圖層 1" xmlns="http://www.w3.org/2000/svg" viewBox="0 0 45 30"><defs><style>.cls-1{fill:#2c2c35;}.cls-2{fill:#fff;}</style></defs><rect class="cls-1" width="45" height="30"/><path class="cls-2" d="M23.2,20.2v2.27c0,1.07-.21,1.58-1.05,1.87a9.12,9.12,0,0,1-3.24.34,8.39,8.39,0,0,0-.84-2c.95,0,2,0,2.31,0s.4-.06.4-.29v-2c-5,.33-5.86.44-6.49.67a16.13,16.13,0,0,0-.51-1.85,12.65,12.65,0,0,0,2.78-.67l2-.67a12.36,12.36,0,0,0-3.22.27,11.09,11.09,0,0,0-.53-1.75A8.45,8.45,0,0,0,16.7,16c.34-.1,1-.29,1.79-.56-.31,0-.63,0-.95,0a3.32,3.32,0,0,0-.33-1.16c.59.06,1.13.08,1.39.08a.66.66,0,0,0,.56-.21.56.56,0,0,0,.11-.17H13.4c.13-.65.23-1.49.36-2.39H12.29V10.21h1.62c0-.44.08-.86.12-1.28a4.47,4.47,0,0,1-.35.29A12.44,12.44,0,0,0,12,8.17a8.3,8.3,0,0,0,2.84-3.32l2,.44c-.09.21-.19.4-.3.61h5.89V7.31H15.53L15,7.94h6.79s0,.49,0,.67c0,.59-.08,1.12-.12,1.6h1.17v1.33h-1.3c-.06.42-.11.8-.15,1.13h.82v1.26H21.12c-.09.24-.13.42-.19.57L22,14l1.27,1.3c-.89.4-1.81.73-2.76,1l2.06,0c1-.44,2-.93,2.88-1.39l1.29,1.45a55.44,55.44,0,0,1-6.06,2.42l5.4-.27-.94-.82,1.66-.89c1.26,1,3.09,2.55,4,3.49l-1.77,1c-.32-.35-.82-.84-1.39-1.36Zm-3.78,1.37a19.43,19.43,0,0,1-5.28,2.67,18.81,18.81,0,0,0-1.77-1.66,18.31,18.31,0,0,0,4.84-1.88ZM15.53,11.41c-.07.44-.11.86-.17,1.26H18c-.53-.27-1.22-.63-1.75-.86l.32-.4Zm.25-2.27-.13,1.22h2.53c-.49-.25-1.12-.55-1.62-.76l.33-.46Zm3.85,3.53c0-.35.1-.75.16-1.26H17.73A10.42,10.42,0,0,1,19,12l-.47.63Zm.27-2.31c0-.38.06-.78.08-1.22H18c.44.19.9.4,1.17.55l-.44.67ZM30.16,8.13a10.64,10.64,0,0,1-1.91,3.41A10.06,10.06,0,0,0,32,13.28a8,8,0,0,0-1.39,1.79A11.14,11.14,0,0,1,26.75,13a13.63,13.63,0,0,1-3.19,1.78,9.59,9.59,0,0,0-1.28-1.64,11.34,11.34,0,0,0,3.11-1.57,14.19,14.19,0,0,1-1.12-1.66,7.69,7.69,0,0,1-.88.92,12.26,12.26,0,0,0-1.54-1.51,8.14,8.14,0,0,0,2.63-4.4l2.08.42q-.15.54-.33,1.08h5.3V8.13ZM26.35,20.62a39.53,39.53,0,0,1,4.9,2.23l-1.95,1.3a43.86,43.86,0,0,0-4.75-2.35ZM25.43,8.17a8.91,8.91,0,0,0,1.37,2.06A7.34,7.34,0,0,0,28,8.13H25.45Z"/></svg>