<svg id="圖層_1" data-name="圖層 1" xmlns="http://www.w3.org/2000/svg" viewBox="0 0 45 30"><defs><style>.cls-1{fill:#eee;}.cls-2{fill:#b50037;}.cls-3{fill:#d11431;}.cls-4{fill:#2e3aaf;}</style></defs><rect class="cls-1" width="45" height="30"/><polygon points="31.06 4.96 32.99 7.81 31.9 8.57 29.97 5.71 31.06 4.96"/><polygon points="33.33 8.4 35.17 11.26 34.17 11.93 32.23 9.07 33.33 8.4"/><polygon points="32.57 3.94 36.77 10.15 35.69 10.83 31.56 4.61 32.57 3.94"/><polygon points="34.17 2.86 36.1 5.71 35.02 6.47 33.16 3.6 34.17 2.86"/><polygon points="36.45 6.3 38.29 9.16 37.27 9.83 35.34 6.97 36.45 6.3"/><rect x="12.26" y="17.86" width="1.22" height="7.47" transform="translate(-9.77 10.66) rotate(-33.43)"/><polygon points="9.72 19.16 11.64 22.01 10.65 22.77 8.7 19.83 9.72 19.16"/><polygon points="11.99 22.51 13.92 25.37 12.83 26.13 10.97 23.27 11.99 22.51"/><polygon points="8.2 20.24 12.31 26.47 11.32 27.14 7.12 20.91 8.2 20.24"/><polygon points="10.3 11.26 14.41 4.96 15.43 5.71 11.32 11.93 10.3 11.26"/><polygon points="8.7 10.15 12.83 3.94 13.92 4.61 9.72 10.83 8.7 10.15"/><polygon points="7.12 9.16 11.32 2.86 12.31 3.6 8.2 9.83 7.12 9.16"/><polygon points="29.97 24.37 31.9 21.52 32.99 22.19 31.06 25.04 29.97 24.37"/><polygon points="32.23 21 34.17 18.14 35.17 18.81 33.33 21.67 32.23 21"/><polygon points="31.56 25.37 33.5 22.51 34.5 23.27 32.57 26.13 31.56 25.37"/><polygon points="33.83 22.01 35.69 19.16 36.77 19.83 34.84 22.77 33.83 22.01"/><polygon points="33.16 26.47 35.02 23.61 36.1 24.29 34.17 27.14 33.16 26.47"/><polygon points="35.34 23.1 37.27 20.24 38.29 20.91 36.45 23.77 35.34 23.1"/><path class="cls-2" d="M16.51,10.83a.32.32,0,0,0-.06.17v-.09"/><path class="cls-3" d="M26.86,8.81a7.38,7.38,0,0,0-10.35,2,3.75,3.75,0,0,0,1,5.21,3.79,3.79,0,0,0,5.22-1A3.73,3.73,0,1,1,29,19.16a7.47,7.47,0,0,0-2.1-10.35"/><path class="cls-4" d="M16.51,10.83a3.75,3.75,0,0,0,1,5.21,3.79,3.79,0,0,0,5.22-1A3.73,3.73,0,1,1,29,19.16a7.49,7.49,0,1,1-12.45-8.33"/></svg>