<svg id="圖層_1" data-name="圖層 1" xmlns="http://www.w3.org/2000/svg" viewBox="0 0 45 30"><defs><style>.cls-1,.cls-5{fill:#3c9242;}.cls-2{fill:#edb400;}.cls-3{fill:#2e3aaf;}.cls-4{fill:#fff;}.cls-5{fill-rule:evenodd;}</style></defs><rect class="cls-1" width="45" height="30"/><polygon class="cls-2" points="4.64 14.75 22.5 26.13 40.35 14.75 22.5 3.38 4.64 14.75"/><path class="cls-3" d="M30,14.75A7.5,7.5,0,1,1,22.5,7.26,7.51,7.51,0,0,1,30,14.75"/><path class="cls-4" d="M18.2,11.55a25.82,25.82,0,0,0-2.62.18,6.21,6.21,0,0,0-.33,1.17,16.69,16.69,0,0,1,2.95-.26A16.92,16.92,0,0,1,29.66,17a5.41,5.41,0,0,0,.24-1.17,17.83,17.83,0,0,0-11.7-4.3"/><path class="cls-1" d="M17.27,12.49s0-.35-.17-.35h-.17c.17,0,.17.26.17.26"/><path class="cls-5" d="M23.09,13.16h.17l.09-.26.24.09s.26,0,.26-.09a.25.25,0,0,0-.09-.34l-.41-.07Zm.26-.35.24.09a.27.27,0,0,0,.17-.09c0-.08,0-.08-.09-.08l-.26-.09Z"/><path class="cls-5" d="M25.1,13.92c.18,0,.44-.09.44-.26a.32.32,0,0,0-.18-.43.33.33,0,0,0-.43.17.43.43,0,0,0,.17.52m.09-.17c.09.08.17,0,.26-.18a.42.42,0,0,0-.09-.26s-.26.09-.26.18,0,.26,0,.26"/><polygon class="cls-1" points="25.28 13.57 25.54 13.66 25.54 13.75 25.28 13.66 25.28 13.57"/><path class="cls-5" d="M25.69,14.07l.09.09.08-.24.26.15.33-.08c.09-.16,0-.24,0-.24l-.5-.26Zm.26-.24.26.09c0,.07.07,0,.07,0s.08-.09,0-.17L26,13.66Z"/><path class="cls-5" d="M16.1,12.56a.29.29,0,0,0,.24-.42c0-.17-.15-.34-.33-.26s-.34.18-.26.35a.31.31,0,0,0,.35.33m0-.16a.24.24,0,0,0,.16-.09A.82.82,0,0,0,16.1,12a.28.28,0,0,0-.26.26c0,.17.09.26.26.17"/><path class="cls-5" d="M16.69,12.49h.08v-.26h.33c.09,0,.17-.17.17-.26s-.08-.24-.26-.24l-.41.07Zm.08-.43H17A.09.09,0,0,0,17.1,12L17,11.88h-.24Z"/><path class="cls-5" d="M17.62,12.49,18,12.4c.17,0,.25-.09.25-.26v-.08c0-.18-.08-.33-.25-.33h-.42Zm.07-.18H18a.18.18,0,0,0,.17-.17v-.08c0-.09-.09-.18-.26-.18h-.17Z"/><polygon class="cls-1" points="18.45 12.4 19.12 12.49 19.12 12.31 18.62 12.31 18.62 12.14 19.05 12.14 19.05 12.05 18.62 11.97 18.62 11.88 19.12 11.88 19.12 11.73 18.53 11.73 18.45 12.4"/><polygon class="cls-1" points="19.38 12.49 19.46 12.49 19.55 11.97 19.64 12.49 19.79 12.49 19.96 12.05 19.88 12.55 20.05 12.55 20.14 11.8 19.88 11.8 19.72 12.31 19.64 11.8 19.46 11.73 19.38 12.49"/><polygon class="cls-1" points="20.9 12.64 21.4 12.73 21.4 12.64 20.98 12.55 21.07 12.4 21.4 12.4 21.4 12.31 21.07 12.23 21.07 12.14 21.48 12.23 21.48 12.05 20.98 11.97 20.9 12.64"/><path class="cls-5" d="M22.24,12.9h.09l.08-.17h.26c.16.08.24,0,.33-.17a1.79,1.79,0,0,0-.17-.25l-.42-.08Zm.26-.34.24.08.09-.08-.09-.07-.24-.09Z"/><path class="cls-1" d="M23.67,13.31c0-.08.09-.32,0-.32l-.17-.09c.17.09.09.33.09.41"/><path class="cls-5" d="M24.26,13.57a.47.47,0,0,0,.43-.26c.09-.15,0-.41-.17-.41a.3.3,0,0,0-.42.17.41.41,0,0,0,.16.5m.09-.17c.08,0,.17,0,.25-.17a.4.4,0,0,0-.08-.24c-.17,0-.26,0-.35.17,0,0,0,.24.18.24"/><polygon class="cls-1" points="25.45 13.66 25.54 13.66 25.45 13.99 25.36 13.99 25.45 13.66"/><path class="cls-1" d="M26.21,14.42c0-.17.15-.35,0-.43L26,13.92c.17.15.08.33.08.41"/><polygon class="cls-1" points="26.45 14.51 27.04 14.83 27.04 14.75 26.62 14.51 26.71 14.33 27.04 14.51 27.12 14.42 26.8 14.25 26.88 14.07 27.3 14.33 27.38 14.25 26.8 13.92 26.45 14.51"/><path class="cls-1" d="M27.55,14.92c-.08,0,0,.09,0,.09l.16.08c.17-.17-.33-.34-.16-.5s.33-.09.33-.09a.3.3,0,0,1,.17.42l-.17-.09a.11.11,0,0,0,0-.17c-.08-.07-.17-.07-.17,0s.34.26.17.52a.4.4,0,0,1-.24.08c-.26-.17-.34-.34-.26-.51Z"/><path class="cls-1" d="M28.23,15.42s0,.09.17.17h.16s-.42-.33-.25-.5.33,0,.42,0,.17.17.08.33l-.17-.07c.09-.09,0-.09,0-.09-.08-.17-.17-.17-.17-.08s.34.24.17.5-.24.08-.41,0c0-.09-.18-.26-.09-.42Z"/><path class="cls-5" d="M29,16.18c.15.17.32.08.5-.07s.08-.35-.09-.43-.33-.09-.41.08a.87.87,0,0,0-.09.35m.17,0A.59.59,0,0,0,29.4,16c.09-.08,0-.17,0-.26a.24.24,0,0,0-.26,0c-.15.18-.15.26-.07.35"/><polygon class="cls-4" points="16.34 13.07 16.25 13.4 16.43 13.4 16.34 13.07"/><polygon class="cls-4" points="16.34 13.07 16.43 13.4 16.25 13.4 16.34 13.07"/><polygon class="cls-4" points="16.69 13.31 16.34 13.31 16.34 13.49 16.69 13.31"/><polygon class="cls-4" points="16.69 13.31 16.43 13.49 16.34 13.4 16.69 13.31"/><polygon class="cls-4" points="16.1 13.31 16.34 13.49 16.43 13.4 16.1 13.31"/><polygon class="cls-4" points="16.1 13.31 16.34 13.31 16.34 13.49 16.1 13.31"/><polygon class="cls-4" points="16.51 13.66 16.43 13.4 16.25 13.4 16.51 13.66"/><polygon class="cls-4" points="16.51 13.66 16.25 13.49 16.43 13.31 16.51 13.66"/><polygon class="cls-4" points="16.19 13.66 16.43 13.49 16.34 13.31 16.19 13.66"/><polygon class="cls-4" points="16.19 13.66 16.25 13.4 16.43 13.4 16.19 13.66"/><polygon class="cls-4" points="17.01 16.26 16.93 16.61 17.1 16.61 17.01 16.26"/><polygon class="cls-4" points="17.01 16.26 17.1 16.61 16.93 16.61 17.01 16.26"/><polygon class="cls-4" points="17.36 16.44 17.01 16.44 17.01 16.61 17.36 16.44"/><polygon class="cls-4" points="17.36 16.44 17.1 16.7 16.93 16.52 17.36 16.44"/><polygon class="cls-4" points="16.77 16.44 16.93 16.7 17.1 16.52 16.77 16.44"/><polygon class="cls-4" points="16.77 16.44 17.01 16.44 17.01 16.61 16.77 16.44"/><polygon class="cls-4" points="17.19 16.85 17.1 16.52 16.93 16.61 17.19 16.85"/><polygon class="cls-4" points="17.19 16.85 16.93 16.61 17.01 16.52 17.19 16.85"/><polygon class="cls-4" points="16.86 16.85 17.1 16.61 17.01 16.52 16.86 16.85"/><polygon class="cls-4" points="16.86 16.85 16.93 16.52 17.1 16.61 16.86 16.85"/><polygon class="cls-4" points="16.1 17.02 16.01 17.28 16.1 17.28 16.1 17.02"/><polygon class="cls-4" points="16.1 17.02 16.19 17.28 16.1 17.28 16.1 17.02"/><polygon class="cls-4" points="16.25 17.2 16.1 17.2 16.1 17.28 16.25 17.2"/><polygon class="cls-4" points="16.25 17.2 16.1 17.28 16.1 17.2 16.25 17.2"/><polygon class="cls-4" points="15.93 17.2 16.1 17.28 16.1 17.2 15.93 17.2"/><polygon class="cls-4" points="15.93 17.2 16.1 17.2 16.1 17.28 15.93 17.2"/><polygon class="cls-4" points="16.25 17.45 16.19 17.2 16.1 17.28 16.25 17.45"/><polygon class="cls-4" points="16.25 17.45 16.1 17.28 16.1 17.2 16.25 17.45"/><polygon class="cls-4" points="16.01 17.45 16.19 17.28 16.1 17.2 16.01 17.45"/><polygon class="cls-4" points="16.01 17.45 16.1 17.2 16.1 17.28 16.01 17.45"/><polygon class="cls-4" points="17.77 15.94 17.69 16.11 17.77 16.11 17.77 15.94"/><polygon class="cls-4" points="17.95 16.11 17.77 16.18 17.77 16.11 17.95 16.11"/><polygon class="cls-4" points="17.62 16.11 17.77 16.18 17.77 16.11 17.62 16.11"/><polygon class="cls-4" points="17.86 16.26 17.77 16.11 17.77 16.11 17.86 16.26"/><polygon class="cls-4" points="17.86 16.26 17.77 16.11 17.77 16.11 17.86 16.26"/><polygon class="cls-4" points="17.69 16.26 17.77 16.11 17.77 16.11 17.69 16.26"/><polygon class="cls-4" points="17.69 16.26 17.69 16.11 17.77 16.11 17.69 16.26"/><polygon class="cls-4" points="18.62 17.02 18.45 17.28 18.62 17.37 18.62 17.02"/><polygon class="cls-4" points="18.62 17.02 18.7 17.28 18.53 17.37 18.62 17.02"/><polygon class="cls-4" points="18.79 17.28 18.62 17.28 18.62 17.37 18.79 17.28"/><polygon class="cls-4" points="18.79 17.28 18.62 17.37 18.53 17.28 18.79 17.28"/><polygon class="cls-4" points="18.36 17.28 18.53 17.37 18.62 17.28 18.36 17.28"/><polygon class="cls-4" points="18.36 17.28 18.62 17.28 18.62 17.37 18.36 17.28"/><polygon class="cls-4" points="18.79 17.54 18.62 17.28 18.53 17.28 18.79 17.54"/><polygon class="cls-4" points="18.79 17.54 18.53 17.37 18.62 17.28 18.79 17.54"/><polygon class="cls-4" points="18.45 17.54 18.62 17.37 18.53 17.28 18.45 17.54"/><polygon class="cls-4" points="18.45 17.54 18.53 17.28 18.62 17.28 18.45 17.54"/><polygon class="cls-4" points="18.36 17.78 18.29 18.04 18.45 18.13 18.36 17.78"/><polygon class="cls-4" points="18.36 17.78 18.45 18.04 18.29 18.13 18.36 17.78"/><polygon class="cls-4" points="18.62 17.95 18.36 17.95 18.36 18.13 18.62 17.95"/><polygon class="cls-4" points="18.62 17.95 18.45 18.13 18.29 18.04 18.62 17.95"/><polygon class="cls-4" points="18.12 17.95 18.29 18.13 18.45 18.04 18.12 17.95"/><polygon class="cls-4" points="18.12 17.95 18.36 17.95 18.36 18.13 18.12 17.95"/><polygon class="cls-4" points="18.53 18.28 18.45 18.04 18.29 18.04 18.53 18.28"/><polygon class="cls-4" points="18.53 18.28 18.29 18.13 18.36 18.04 18.53 18.28"/><polygon class="cls-4" points="18.2 18.28 18.45 18.13 18.36 18.04 18.2 18.28"/><polygon class="cls-4" points="18.2 18.28 18.29 18.04 18.45 18.04 18.2 18.28"/><polygon class="cls-4" points="24.85 12.14 24.69 12.4 24.85 12.49 24.85 12.14"/><polygon class="cls-4" points="24.85 12.14 24.93 12.4 24.78 12.49 24.85 12.14"/><polygon class="cls-4" points="25.11 12.31 24.85 12.31 24.85 12.49 25.11 12.31"/><polygon class="cls-4" points="25.11 12.31 24.85 12.55 24.78 12.4 25.11 12.31"/><polygon class="cls-4" points="24.52 12.31 24.78 12.55 24.85 12.4 24.52 12.31"/><polygon class="cls-4" points="24.52 12.31 24.85 12.31 24.85 12.49 24.52 12.31"/><polygon class="cls-4" points="25.02 12.73 24.93 12.4 24.78 12.4 25.02 12.73"/><polygon class="cls-4" points="25.02 12.73 24.78 12.49 24.85 12.4 25.02 12.73"/><polygon class="cls-4" points="24.61 12.73 24.85 12.49 24.78 12.4 24.61 12.73"/><polygon class="cls-4" points="24.61 12.73 24.78 12.4 24.85 12.4 24.61 12.73"/><polygon class="cls-4" points="27.71 17.11 27.64 17.37 27.8 17.45 27.71 17.11"/><polygon class="cls-4" points="27.71 17.11 27.88 17.37 27.71 17.45 27.71 17.11"/><polygon class="cls-4" points="28.05 17.28 27.71 17.28 27.71 17.45 28.05 17.28"/><polygon class="cls-4" points="28.05 17.28 27.8 17.45 27.71 17.37 28.05 17.28"/><polygon class="cls-4" points="27.47 17.28 27.71 17.45 27.8 17.37 27.47 17.28"/><polygon class="cls-4" points="27.47 17.28 27.8 17.28 27.8 17.45 27.47 17.28"/><polygon class="cls-4" points="27.97 17.61 27.88 17.37 27.71 17.45 27.97 17.61"/><polygon class="cls-4" points="27.97 17.61 27.71 17.45 27.8 17.37 27.97 17.61"/><polygon class="cls-4" points="27.55 17.61 27.8 17.45 27.71 17.37 27.55 17.61"/><polygon class="cls-4" points="27.55 17.61 27.64 17.37 27.8 17.45 27.55 17.61"/><polygon class="cls-4" points="28.81 17.28 28.73 17.45 28.81 17.45 28.81 17.28"/><polygon class="cls-4" points="28.81 17.28 28.9 17.45 28.73 17.45 28.81 17.28"/><polygon class="cls-4" points="28.99 17.45 28.81 17.45 28.81 17.54 28.99 17.45"/><polygon class="cls-4" points="28.99 17.45 28.81 17.54 28.73 17.45 28.99 17.45"/><polygon class="cls-4" points="28.55 17.45 28.73 17.54 28.81 17.45 28.55 17.45"/><polygon class="cls-4" points="28.55 17.45 28.81 17.45 28.81 17.54 28.55 17.45"/><polygon class="cls-4" points="28.9 17.61 28.9 17.45 28.73 17.45 28.9 17.61"/><polygon class="cls-4" points="28.9 17.61 28.73 17.54 28.81 17.45 28.9 17.61"/><polygon class="cls-4" points="28.64 17.61 28.9 17.54 28.81 17.45 28.64 17.61"/><polygon class="cls-4" points="28.64 17.61 28.73 17.45 28.81 17.45 28.64 17.61"/><polygon class="cls-4" points="28.05 17.78 27.97 18.04 28.14 18.13 28.05 17.78"/><polygon class="cls-4" points="28.05 17.78 28.14 18.04 28.05 18.13 28.05 17.78"/><polygon class="cls-4" points="28.32 17.95 28.05 17.95 28.05 18.13 28.32 17.95"/><polygon class="cls-4" points="28.32 17.95 28.05 18.13 28.05 18.04 28.32 17.95"/><polygon class="cls-4" points="27.8 17.95 28.05 18.13 28.14 18.04 27.8 17.95"/><polygon class="cls-4" points="27.8 17.95 28.05 17.95 28.05 18.13 27.8 17.95"/><polygon class="cls-4" points="28.23 18.28 28.14 18.04 28.05 18.04 28.23 18.28"/><polygon class="cls-4" points="28.23 18.28 27.97 18.13 28.05 18.04 28.23 18.28"/><polygon class="cls-4" points="27.88 18.28 28.14 18.13 28.05 18.04 27.88 18.28"/><polygon class="cls-4" points="27.88 18.28 27.97 18.04 28.14 18.04 27.88 18.28"/><polygon class="cls-4" points="26.21 19.39 26.21 19.65 26.28 19.65 26.21 19.39"/><polygon class="cls-4" points="26.21 19.39 26.36 19.65 26.21 19.65 26.21 19.39"/><polygon class="cls-4" points="26.54 19.56 26.21 19.56 26.21 19.71 26.54 19.56"/><polygon class="cls-4" points="26.54 19.56 26.28 19.71 26.21 19.65 26.54 19.56"/><polygon class="cls-4" points="26.04 19.56 26.21 19.71 26.28 19.65 26.04 19.56"/><polygon class="cls-4" points="26.04 19.56 26.28 19.56 26.28 19.71 26.04 19.56"/><polygon class="cls-4" points="26.36 19.8 26.36 19.65 26.21 19.65 26.36 19.8"/><polygon class="cls-4" points="26.36 19.8 26.21 19.71 26.28 19.65 26.36 19.8"/><polygon class="cls-4" points="26.12 19.8 26.28 19.71 26.21 19.65 26.12 19.8"/><polygon class="cls-4" points="26.12 19.8 26.21 19.65 26.28 19.65 26.12 19.8"/><polygon class="cls-4" points="26.21 20.15 26.21 20.41 26.28 20.41 26.21 20.15"/><polygon class="cls-4" points="26.21 20.15 26.28 20.41 26.21 20.41 26.21 20.15"/><polygon class="cls-4" points="26.45 20.32 26.21 20.32 26.21 20.47 26.45 20.32"/><polygon class="cls-4" points="26.45 20.32 26.28 20.47 26.21 20.41 26.45 20.32"/><polygon class="cls-4" points="26.04 20.32 26.21 20.47 26.28 20.41 26.04 20.32"/><polygon class="cls-4" points="26.04 20.32 26.21 20.32 26.21 20.47 26.04 20.32"/><polygon class="cls-4" points="26.36 20.56 26.28 20.41 26.21 20.41 26.36 20.56"/><polygon class="cls-4" points="26.36 20.56 26.21 20.47 26.28 20.32 26.36 20.56"/><polygon class="cls-4" points="26.12 20.56 26.28 20.47 26.21 20.32 26.12 20.56"/><polygon class="cls-4" points="26.12 20.56 26.21 20.41 26.28 20.41 26.12 20.56"/><polygon class="cls-4" points="27.04 18.8 26.97 19.04 27.04 19.04 27.04 18.8"/><polygon class="cls-4" points="27.04 18.8 27.04 19.04 26.97 19.04 27.04 18.8"/><polygon class="cls-4" points="27.21 18.97 26.97 18.97 26.97 19.13 27.21 18.97"/><polygon class="cls-4" points="27.21 18.97 27.04 19.13 26.97 19.04 27.21 18.97"/><polygon class="cls-4" points="26.8 18.97 26.97 19.13 27.04 19.04 26.8 18.97"/><polygon class="cls-4" points="26.8 18.97 27.04 18.97 27.04 19.13 26.8 18.97"/><polygon class="cls-4" points="27.12 19.21 27.04 19.04 26.97 19.04 27.12 19.21"/><polygon class="cls-4" points="27.12 19.21 26.97 19.13 27.04 18.97 27.12 19.21"/><polygon class="cls-4" points="26.88 19.21 27.04 19.13 26.97 18.97 26.88 19.21"/><polygon class="cls-4" points="26.88 19.21 26.97 19.04 27.04 19.04 26.88 19.21"/><polygon class="cls-4" points="27.55 18.37 27.55 18.63 27.64 18.71 27.55 18.37"/><polygon class="cls-4" points="27.55 18.37 27.71 18.63 27.55 18.71 27.55 18.37"/><polygon class="cls-4" points="27.88 18.63 27.55 18.63 27.55 18.71 27.88 18.63"/><polygon class="cls-4" points="27.88 18.63 27.64 18.71 27.55 18.63 27.88 18.63"/><polygon class="cls-4" points="27.38 18.63 27.55 18.71 27.64 18.63 27.38 18.63"/><polygon class="cls-4" points="27.38 18.63 27.64 18.63 27.64 18.71 27.38 18.63"/><polygon class="cls-4" points="27.71 18.89 27.71 18.63 27.55 18.63 27.71 18.89"/><polygon class="cls-4" points="27.71 18.89 27.55 18.71 27.64 18.63 27.71 18.89"/><polygon class="cls-4" points="27.47 18.89 27.64 18.71 27.55 18.63 27.47 18.89"/><polygon class="cls-4" points="27.47 18.89 27.55 18.63 27.64 18.63 27.47 18.89"/><polygon class="cls-4" points="26.21 18.71 26.21 18.89 26.28 18.97 26.21 18.71"/><polygon class="cls-4" points="26.21 18.71 26.28 18.89 26.21 18.97 26.21 18.71"/><polygon class="cls-4" points="26.45 18.8 26.21 18.8 26.21 18.97 26.45 18.8"/><polygon class="cls-4" points="26.45 18.8 26.21 18.97 26.21 18.89 26.45 18.8"/><polygon class="cls-4" points="26.04 18.8 26.21 18.97 26.21 18.89 26.04 18.8"/><polygon class="cls-4" points="26.04 18.8 26.21 18.8 26.21 18.97 26.04 18.8"/><polygon class="cls-4" points="26.36 19.04 26.28 18.89 26.21 18.89 26.36 19.04"/><polygon class="cls-4" points="26.36 19.04 26.21 18.97 26.21 18.89 26.36 19.04"/><polygon class="cls-4" points="26.12 19.04 26.28 18.97 26.21 18.89 26.12 19.04"/><polygon class="cls-4" points="26.12 19.04 26.21 18.89 26.28 18.89 26.12 19.04"/><polygon class="cls-4" points="19.64 14.75 19.55 15.09 19.64 15.09 19.64 14.75"/><polygon class="cls-4" points="19.64 14.75 19.72 15.09 19.64 15.09 19.64 14.75"/><polygon class="cls-4" points="19.88 15.01 19.64 15.01 19.64 15.09 19.88 15.01"/><polygon class="cls-4" points="19.88 15.01 19.64 15.18 19.64 15.01 19.88 15.01"/><polygon class="cls-4" points="19.38 15.01 19.64 15.18 19.64 15.01 19.38 15.01"/><polygon class="cls-4" points="19.38 15.01 19.64 15.01 19.64 15.09 19.38 15.01"/><polygon class="cls-4" points="19.79 15.26 19.72 15.01 19.55 15.09 19.79 15.26"/><polygon class="cls-4" points="19.79 15.26 19.55 15.09 19.64 15.01 19.79 15.26"/><polygon class="cls-4" points="19.46 15.26 19.72 15.09 19.64 15.01 19.46 15.26"/><polygon class="cls-4" points="19.46 15.26 19.55 15.01 19.72 15.09 19.46 15.26"/><polygon class="cls-4" points="24.52 14.16 24.52 14.42 24.61 14.42 24.52 14.16"/><polygon class="cls-4" points="24.52 14.16 24.61 14.42 24.52 14.42 24.52 14.16"/><polygon class="cls-4" points="24.78 14.33 24.52 14.33 24.52 14.42 24.78 14.33"/><polygon class="cls-4" points="24.78 14.33 24.52 14.42 24.52 14.33 24.78 14.33"/><polygon class="cls-4" points="24.35 14.33 24.52 14.42 24.52 14.33 24.35 14.33"/><polygon class="cls-4" points="24.35 14.33 24.52 14.33 24.52 14.42 24.35 14.33"/><polygon class="cls-4" points="24.69 14.59 24.61 14.33 24.52 14.42 24.69 14.59"/><polygon class="cls-4" points="24.69 14.59 24.52 14.42 24.52 14.33 24.69 14.59"/><polygon class="cls-4" points="24.43 14.59 24.61 14.42 24.52 14.33 24.43 14.59"/><polygon class="cls-4" points="24.43 14.59 24.52 14.33 24.61 14.42 24.43 14.59"/><polygon class="cls-4" points="22.5 17.78 22.41 18.13 22.5 18.13 22.5 17.78"/><polygon class="cls-4" points="22.5 17.78 22.59 18.13 22.41 18.13 22.5 17.78"/><polygon class="cls-4" points="22.83 18.04 22.5 18.04 22.5 18.21 22.83 18.04"/><polygon class="cls-4" points="22.83 18.04 22.5 18.21 22.5 18.13 22.83 18.04"/><polygon class="cls-4" points="22.16 18.04 22.5 18.21 22.5 18.13 22.16 18.04"/><polygon class="cls-4" points="22.16 18.04 22.5 18.04 22.5 18.21 22.16 18.04"/><polygon class="cls-4" points="22.67 18.37 22.59 18.13 22.41 18.13 22.67 18.37"/><polygon class="cls-4" points="22.67 18.37 22.41 18.21 22.5 18.13 22.67 18.37"/><polygon class="cls-4" points="22.33 18.37 22.59 18.21 22.5 18.13 22.33 18.37"/><polygon class="cls-4" points="22.33 18.37 22.41 18.13 22.59 18.13 22.33 18.37"/><polygon class="cls-4" points="23.34 16.35 23.26 16.61 23.41 16.7 23.34 16.35"/><polygon class="cls-4" points="23.34 16.35 23.41 16.61 23.34 16.7 23.34 16.35"/><polygon class="cls-4" points="23.59 16.61 23.34 16.61 23.34 16.7 23.59 16.61"/><polygon class="cls-4" points="23.59 16.61 23.41 16.7 23.34 16.61 23.59 16.61"/><polygon class="cls-4" points="23.09 16.61 23.34 16.7 23.41 16.61 23.09 16.61"/><polygon class="cls-4" points="23.09 16.61 23.34 16.61 23.34 16.7 23.09 16.61"/><polygon class="cls-4" points="23.5 16.85 23.41 16.61 23.34 16.61 23.5 16.85"/><polygon class="cls-4" points="23.5 16.85 23.34 16.7 23.34 16.61 23.5 16.85"/><polygon class="cls-4" points="23.17 16.85 23.41 16.7 23.34 16.61 23.17 16.85"/><polygon class="cls-4" points="23.17 16.85 23.26 16.61 23.41 16.61 23.17 16.85"/><polygon class="cls-4" points="22.5 15.68 22.41 15.94 22.5 16.02 22.5 15.68"/><polygon class="cls-4" points="22.5 15.68 22.59 15.94 22.5 16.02 22.5 15.68"/><polygon class="cls-4" points="22.74 15.94 22.5 15.94 22.5 16.02 22.74 15.94"/><polygon class="cls-4" points="22.74 15.94 22.5 16.02 22.5 15.94 22.74 15.94"/><polygon class="cls-4" points="22.24 15.94 22.5 16.02 22.5 15.94 22.24 15.94"/><polygon class="cls-4" points="22.24 15.94 22.5 15.94 22.5 16.02 22.24 15.94"/><polygon class="cls-4" points="22.67 16.18 22.59 15.94 22.41 15.94 22.67 16.18"/><polygon class="cls-4" points="22.67 16.18 22.41 16.02 22.5 15.94 22.67 16.18"/><polygon class="cls-4" points="22.33 16.18 22.59 16.02 22.5 15.94 22.33 16.18"/><polygon class="cls-4" points="22.33 16.18 22.41 15.94 22.5 15.94 22.33 16.18"/><polygon class="cls-4" points="21.74 16.44 21.66 16.61 21.83 16.7 21.74 16.44"/><polygon class="cls-4" points="21.74 16.44 21.83 16.61 21.66 16.7 21.74 16.44"/><polygon class="cls-4" points="21.91 16.61 21.74 16.61 21.74 16.7 21.91 16.61"/><polygon class="cls-4" points="21.91 16.61 21.74 16.7 21.74 16.61 21.91 16.61"/><polygon class="cls-4" points="21.48 16.61 21.74 16.7 21.74 16.61 21.48 16.61"/><polygon class="cls-4" points="21.48 16.61 21.74 16.61 21.74 16.7 21.48 16.61"/><polygon class="cls-4" points="21.83 16.78 21.83 16.61 21.66 16.61 21.83 16.78"/><polygon class="cls-4" points="21.83 16.78 21.66 16.7 21.74 16.61 21.83 16.78"/><polygon class="cls-4" points="21.66 16.78 21.83 16.7 21.74 16.61 21.66 16.78"/><polygon class="cls-4" points="21.66 16.78 21.66 16.61 21.83 16.61 21.66 16.78"/><polygon class="cls-4" points="22.16 17.02 22.07 17.11 22.16 17.2 22.16 17.02"/><polygon class="cls-4" points="22.16 17.02 22.16 17.11 22.07 17.2 22.16 17.02"/><polygon class="cls-4" points="22.24 17.11 22.16 17.11 22.16 17.2 22.24 17.11"/><polygon class="cls-4" points="22.24 17.11 22.16 17.2 22.07 17.11 22.24 17.11"/><polygon class="cls-4" points="21.98 17.11 22.07 17.2 22.16 17.11 21.98 17.11"/><polygon class="cls-4" points="21.98 17.11 22.16 17.11 22.16 17.2 21.98 17.11"/><polygon class="cls-4" points="22.16 17.28 22.16 17.11 22.07 17.2 22.16 17.28"/><polygon class="cls-4" points="22.16 17.28 22.07 17.2 22.16 17.11 22.16 17.28"/><polygon class="cls-4" points="21.98 17.28 22.16 17.2 22.07 17.11 21.98 17.28"/><polygon class="cls-4" points="21.98 17.28 22.07 17.11 22.16 17.2 21.98 17.28"/><polygon class="cls-4" points="24.78 19.56 24.69 19.8 24.78 19.8 24.78 19.56"/><polygon class="cls-4" points="24.78 19.56 24.85 19.8 24.69 19.8 24.78 19.56"/><polygon class="cls-4" points="25.02 19.71 24.69 19.71 24.69 19.89 25.02 19.71"/><polygon class="cls-4" points="25.02 19.71 24.78 19.89 24.69 19.8 25.02 19.71"/><polygon class="cls-4" points="24.52 19.71 24.69 19.89 24.78 19.8 24.52 19.71"/><polygon class="cls-4" points="24.52 19.71 24.78 19.71 24.78 19.89 24.52 19.71"/><polygon class="cls-4" points="24.85 20.06 24.85 19.8 24.69 19.8 24.85 20.06"/><polygon class="cls-4" points="24.85 20.06 24.69 19.89 24.78 19.8 24.85 20.06"/><polygon class="cls-4" points="24.61 20.06 24.78 19.89 24.69 19.8 24.61 20.06"/><polygon class="cls-4" points="24.61 20.06 24.69 19.8 24.78 19.8 24.61 20.06"/><polygon class="cls-4" points="25.36 18.97 25.36 19.13 25.45 19.13 25.36 18.97"/><polygon class="cls-4" points="25.36 18.97 25.45 19.13 25.36 19.13 25.36 18.97"/><polygon class="cls-4" points="25.61 19.13 25.36 19.13 25.36 19.21 25.61 19.13"/><polygon class="cls-4" points="25.61 19.13 25.45 19.21 25.36 19.13 25.61 19.13"/><polygon class="cls-4" points="25.19 19.13 25.36 19.21 25.45 19.13 25.19 19.13"/><polygon class="cls-4" points="25.19 19.13 25.36 19.13 25.36 19.21 25.19 19.13"/><polygon class="cls-4" points="25.54 19.3 25.45 19.13 25.36 19.13 25.54 19.3"/><polygon class="cls-4" points="25.54 19.3 25.36 19.21 25.36 19.13 25.54 19.3"/><polygon class="cls-4" points="25.28 19.3 25.45 19.21 25.36 19.13 25.28 19.3"/><polygon class="cls-4" points="25.28 19.3 25.36 19.13 25.45 19.13 25.28 19.3"/><polygon class="cls-4" points="24.18 18.8 24.1 18.97 24.18 18.97 24.18 18.8"/><polygon class="cls-4" points="24.18 18.8 24.18 18.97 24.1 18.97 24.18 18.8"/><polygon class="cls-4" points="24.35 18.89 24.18 18.89 24.18 19.04 24.35 18.89"/><polygon class="cls-4" points="24.35 18.89 24.18 19.04 24.1 18.97 24.35 18.89"/><polygon class="cls-4" points="23.93 18.89 24.1 19.04 24.18 18.97 23.93 18.89"/><polygon class="cls-4" points="23.93 18.89 24.18 18.89 24.18 19.04 23.93 18.89"/><polygon class="cls-4" points="24.26 19.13 24.18 18.97 24.1 18.97 24.26 19.13"/><polygon class="cls-4" points="24.26 19.13 24.1 19.04 24.18 18.97 24.26 19.13"/><polygon class="cls-4" points="24.02 19.13 24.18 19.04 24.18 18.97 24.02 19.13"/><polygon class="cls-4" points="24.02 19.13 24.1 18.97 24.18 18.97 24.02 19.13"/><polygon class="cls-4" points="19.46 18.45 19.38 18.71 19.55 18.8 19.46 18.45"/><polygon class="cls-4" points="19.46 18.45 19.55 18.71 19.46 18.8 19.46 18.45"/><polygon class="cls-4" points="19.79 18.63 19.46 18.63 19.46 18.8 19.79 18.63"/><polygon class="cls-4" points="19.79 18.63 19.55 18.8 19.46 18.71 19.79 18.63"/><polygon class="cls-4" points="19.12 18.63 19.46 18.8 19.55 18.71 19.12 18.63"/><polygon class="cls-4" points="19.12 18.63 19.46 18.63 19.46 18.8 19.12 18.63"/><polygon class="cls-4" points="19.64 18.97 19.55 18.71 19.46 18.8 19.64 18.97"/><polygon class="cls-4" points="19.64 18.97 19.38 18.8 19.46 18.71 19.64 18.97"/><polygon class="cls-4" points="19.29 18.97 19.55 18.8 19.46 18.71 19.29 18.97"/><polygon class="cls-4" points="19.29 18.97 19.38 18.71 19.55 18.8 19.29 18.97"/><polygon class="cls-4" points="22.59 20.73 22.5 20.65 22.5 20.65 22.59 20.73"/><polygon class="cls-4" points="22.59 20.73 22.5 20.65 22.5 20.65 22.59 20.73"/><polygon class="cls-4" points="22.41 20.73 22.5 20.65 22.5 20.65 22.41 20.73"/><polygon class="cls-4" points="22.41 20.73 22.5 20.65 22.5 20.65 22.41 20.73"/></svg>