<svg id="圖層_1" data-name="圖層 1" xmlns="http://www.w3.org/2000/svg" viewBox="0 0 45 30"><defs><style>.cls-1{fill:#d11431;}.cls-2{fill:#3c9242;}.cls-3{fill:#fcff2c;}.cls-4{fill:none;}.cls-5{fill:#ea0020;}.cls-6{fill:#fff;}.cls-7{fill:#1a0095;}</style></defs><rect class="cls-1" width="45" height="30"/><rect class="cls-2" width="15" height="30"/><path class="cls-3" d="M21,19.65C18.79,19.65,8.1,13,8.1,12l.53-1c1,1.64,11.88,8,12.92,7.83l-.52.87Z"/><path class="cls-3" d="M8.45,10.86c-.17.6,2.76,2.42,6.37,4.57s6.73,3.53,6.9,3.35l.18-.17h-.35A43.81,43.81,0,0,1,15,15.34c-3.11-2-5.86-3.7-6.37-4.48v-.17h0l-.18.17Zm12.74,9h-.33a33.38,33.38,0,0,1-6.55-3.2c-3.79-2.24-6.72-4.22-6.39-4.74l.18-.07h0c-.33.77,5.86,4.39,6.21,4.55,3.62,2.24,6.55,3.61,6.88,3.28v.18Z"/><path d="M20.86,19.83h0c-.87,0-3.44-1.38-6.55-3.2-4.14-2.5-6.21-4-6.39-4.57v-.17l.18-.16v.09l-.18.07V12c.18.62,2.25,2.16,6.39,4.57a30.57,30.57,0,0,0,6.55,3.29H21l.16-.18H21c-.68,0-3.45-1.2-6.72-3.28a.87.87,0,0,1-.35-.09C10,14,8.1,12.41,8.1,11.89c0,.35,1,1.39,6,4.39l.17.09c3.27,2.08,6,3.28,6.72,3.28h.16v.18Zm.86-1c-.53,0-3.46-1.28-6.9-3.35C11,13.1,8.28,11.37,8.45,10.86l.18-.17h0l-.18.17c-.17.6,3.27,2.75,6.37,4.57,3.44,2.07,6.37,3.35,6.9,3.35h0l.18-.17h-.35A43.28,43.28,0,0,1,15,15.34c-2.93-1.73-5.86-3.61-6.37-4.48v0c.51.78,3.62,2.75,6.37,4.48a43.28,43.28,0,0,0,6.55,3.27h.35v.17Z"/><path class="cls-3" d="M15,12.59a23.52,23.52,0,0,0,6.9-.95l-.35-.6c-1,.51-3.8.85-6.55.93-3.11,0-5.35-.33-6.37-1l-.35.6a16.7,16.7,0,0,0,6.72,1Z"/><path class="cls-3" d="M21.9,11.64a10.33,10.33,0,0,1-2.59.77,29.33,29.33,0,0,1-4.31.25,24.74,24.74,0,0,1-4-.25,7.78,7.78,0,0,1-2.93-.77l.18-.09a9.57,9.57,0,0,0,2.75.69,24.55,24.55,0,0,0,4,.35c1.73,0,3.11-.26,4.31-.35a14.26,14.26,0,0,0,2.59-.78v.18Zm-.18-.6a7.23,7.23,0,0,1-2.59.78c-1,.07-2.4.24-4.13.24-1.55,0-2.75-.17-3.79-.24a18.74,18.74,0,0,1-2.76-.71c0-.07,0-.07.18-.16a8,8,0,0,0,2.58.69,22.38,22.38,0,0,0,3.79.25,23.75,23.75,0,0,0,4.13-.34,7.69,7.69,0,0,0,2.42-.69l.17.18Z"/><path d="M15,12.66c-1.38,0-2.75-.07-4-.16a11,11,0,0,1-2.93-.77v-.18h.18a13.83,13.83,0,0,0,2.75.69,29.31,29.31,0,0,0,4,.26,39.11,39.11,0,0,0,4.31-.26,14.26,14.26,0,0,0,2.59-.78l.16.18a8,8,0,0,1-2.75.77,32.79,32.79,0,0,1-4.31.25ZM8.28,11.55l-.18.18a26,26,0,0,0,2.93.68,27.82,27.82,0,0,0,4,.25h0a22.92,22.92,0,0,0,4.31-.33,21.84,21.84,0,0,0,2.59-.6v-.27a14.26,14.26,0,0,1-2.59.78,40.23,40.23,0,0,1-4.31.35,19.43,19.43,0,0,1-4-.35,9.57,9.57,0,0,1-2.75-.69Zm6.72.51a28,28,0,0,1-3.79-.24,13.84,13.84,0,0,1-2.58-.62H8.45V11h.18a7.12,7.12,0,0,0,2.58.6,17,17,0,0,0,3.79.34,31.94,31.94,0,0,0,4.13-.34,7.69,7.69,0,0,0,2.42-.69l.17.18a7.23,7.23,0,0,1-2.59.78,38.12,38.12,0,0,1-4.13.24ZM8.63,11l-.18.16.18.09c.34.09,1.2.35,2.58.62,1,.07,2.41.15,3.79.15v0a35.75,35.75,0,0,0,4.13-.24A6.21,6.21,0,0,0,21.72,11l-.17-.18a5.06,5.06,0,0,1-2.42.69,21.32,21.32,0,0,1-4.13.34,18.58,18.58,0,0,1-3.79-.25A8.35,8.35,0,0,1,8.63,11Z"/><path class="cls-3" d="M7.41,15.43c1.38.78,4.66,1.11,7.59,1.2,2.75,0,6.37-.42,7.59-1.2v-.77c-.36.68-4.15,1.37-7.59,1.28s-6.55-.6-7.59-1.28v.77Z"/><path class="cls-3" d="M22.75,15.34v.18a16.23,16.23,0,0,1-3.09.85,32.81,32.81,0,0,1-4.66.35,29.59,29.59,0,0,1-4.48-.35,12.9,12.9,0,0,1-3.11-.85v-.18a22.59,22.59,0,0,0,3.11.87,33.25,33.25,0,0,0,4.48.25,36.72,36.72,0,0,0,4.66-.25,11.08,11.08,0,0,0,3.09-.87Zm0-.68v.15a8.06,8.06,0,0,1-3.09.87A31.39,31.39,0,0,1,15,16a28.33,28.33,0,0,1-4.48-.35,8.79,8.79,0,0,1-3.11-.87v-.15a11,11,0,0,0,3.11.86,31.17,31.17,0,0,0,4.48.34,34.58,34.58,0,0,0,4.66-.34,8.91,8.91,0,0,0,3.09-.86Z"/><path d="M15,16.72a34,34,0,0,1-4.48-.35,9.5,9.5,0,0,1-3.11-.85v-.18a17.23,17.23,0,0,0,3.11.78,24.31,24.31,0,0,0,4.48.34,26.61,26.61,0,0,0,4.66-.34,9,9,0,0,0,3.09-.78v.18a11.21,11.21,0,0,1-3.09.85,37.42,37.42,0,0,1-4.66.35ZM7.41,15.34v.18a15.33,15.33,0,0,0,3.11.85,35.14,35.14,0,0,0,4.48.26,38.53,38.53,0,0,0,4.66-.26,10.12,10.12,0,0,0,3.09-.94v-.09a11.08,11.08,0,0,1-3.09.87,40.83,40.83,0,0,1-4.66.25,37.23,37.23,0,0,1-4.48-.25,14.48,14.48,0,0,1-3.11-.87ZM15,16a23.41,23.41,0,0,1-4.48-.35,13.49,13.49,0,0,1-3.11-.78v-.24a12.85,12.85,0,0,0,3.11.86,37.23,37.23,0,0,0,4.48.25,40.83,40.83,0,0,0,4.66-.25,11.52,11.52,0,0,0,3.09-.86v.15a8.06,8.06,0,0,1-3.09.87A25.62,25.62,0,0,1,15,16ZM7.41,14.66v.15a13.36,13.36,0,0,0,3.11.87A32.37,32.37,0,0,0,15,16a35.59,35.59,0,0,0,4.66-.35,10.27,10.27,0,0,0,3.09-.87v-.15a8.91,8.91,0,0,1-3.09.86,39.57,39.57,0,0,1-4.66.34,33.28,33.28,0,0,1-4.48-.27,14.14,14.14,0,0,1-3.11-.93Z"/><path class="cls-3" d="M15,19.65c-3.28,0-6-1-6.72-1l.51.69a22.62,22.62,0,0,0,6.21,1c2.58-.18,4.82-.36,6.19-1l.53-.69a30.47,30.47,0,0,1-6.72,1Z"/><path class="cls-3" d="M21.55,19.14c-.18.16-.18.16-.36.16a6.17,6.17,0,0,1-2.4.68,21,21,0,0,1-3.79.36,21.55,21.55,0,0,1-6.37-1l-.18-.16h.18a20.49,20.49,0,0,0,6.37,1,26.89,26.89,0,0,0,3.79-.33,9.5,9.5,0,0,0,2.58-.69Zm.35-.69h0c-.18.16-.18.16-.18.33a16.81,16.81,0,0,1-2.93.52,17.7,17.7,0,0,1-3.79.35c-3.79,0-6.21-.69-6.72-1H8.1a29.5,29.5,0,0,0,6.9.86c1.89,0,2.75-.17,3.79-.17,1.72-.34,2.58-.69,2.76-.69h0l.35-.16Z"/><path d="M15,20.34h0a16.86,16.86,0,0,1-6.37-1l-.18-.16V19h0l.34.18a16.73,16.73,0,0,0,6.21,1h0a22.68,22.68,0,0,0,3.79-.33,19.24,19.24,0,0,0,2.58-.69h.18l-.36.33a11.3,11.3,0,0,1-2.4.51,11.82,11.82,0,0,1-3.79.36Zm-6.55-1.2.18.16a17.62,17.62,0,0,0,6.37,1A21,21,0,0,0,18.79,20a6.17,6.17,0,0,0,2.4-.68s.18,0,.18-.16a7.45,7.45,0,0,1-2.58.69,22.17,22.17,0,0,1-3.61.33h0a18.58,18.58,0,0,1-6.55-1Zm6.55.51h0a21.26,21.26,0,0,1-6.72-1H8.1a35,35,0,0,0,6.9.86c1.73,0,2.42-.17,3.44-.17l.35-.16a27.23,27.23,0,0,0,2.76-.53l.35-.16h0l-.35.16c-.18,0-1.2.35-2.76.69h-.35c-1,0-1.71.17-3.44.35a60.58,60.58,0,0,1-6.9-1h.18a22.22,22.22,0,0,0,6.72,1c1.73,0,2.42-.18,3.26-.18l.53-.17a7.73,7.73,0,0,0,2.93-.69l.18-.16-.18.33a8.75,8.75,0,0,1-2.93.52l-.53.17a14.94,14.94,0,0,1-3.26.18Z"/><path class="cls-3" d="M15,8.11A6.91,6.91,0,0,1,21.9,15,6.77,6.77,0,0,1,15,21.71,6.62,6.62,0,0,1,8.28,15,6.76,6.76,0,0,1,15,8.11Zm0-.69A7.65,7.65,0,0,1,22.59,15,7.5,7.5,0,0,1,15,22.4,7.35,7.35,0,0,1,7.59,15,7.5,7.5,0,0,1,15,7.42Z"/><path class="cls-3" d="M15,7.42A7.65,7.65,0,0,1,22.59,15,7.59,7.59,0,0,1,7.41,15,7.65,7.65,0,0,1,15,7.42Zm0,.07A7.44,7.44,0,0,1,22.41,15,7.35,7.35,0,0,1,15,22.4,7.45,7.45,0,0,1,7.59,15,7.54,7.54,0,0,1,15,7.49Z"/><path d="M15,22.58A7.58,7.58,0,1,1,15,7.42a7.58,7.58,0,1,1,0,15.16ZM15,7.42A7.65,7.65,0,0,0,7.41,15a7.59,7.59,0,0,0,15.18,0A7.65,7.65,0,0,0,15,7.42Zm0,15A7.35,7.35,0,0,1,7.59,15,7.44,7.44,0,0,1,15,7.49,7.59,7.59,0,0,1,22.59,15,7.5,7.5,0,0,1,15,22.4ZM15,7.58A7.41,7.41,0,1,0,22.41,15,7.36,7.36,0,0,0,15,7.58Z"/><path class="cls-3" d="M15,8a7.13,7.13,0,0,1,7.06,7A7.07,7.07,0,0,1,15,21.89,6.94,6.94,0,0,1,15,8Zm0,.16A6.85,6.85,0,0,1,21.9,15,6.77,6.77,0,0,1,15,21.71,6.62,6.62,0,0,1,8.28,15,6.7,6.7,0,0,1,15,8.18Z"/><path d="M15,22.07A7.08,7.08,0,0,1,8.1,15,6.93,6.93,0,0,1,15,8a7.07,7.07,0,0,1,7.06,7A7.22,7.22,0,0,1,15,22.07ZM15,8a6.94,6.94,0,1,0,6.9,7A7,7,0,0,0,15,8Zm0,13.69A6.62,6.62,0,0,1,8.28,15,6.76,6.76,0,0,1,15,8.11,6.91,6.91,0,0,1,21.9,15,6.77,6.77,0,0,1,15,21.71ZM15,8.18a6.77,6.77,0,0,0,0,13.53A6.89,6.89,0,0,0,21.9,15,6.85,6.85,0,0,0,15,8.18Z"/><rect class="cls-3" x="14.65" y="7.33" width="0.69" height="15.42"/><path class="cls-3" d="M15.34,7.24h0V22.76h0V7.24Zm-.69,0h.17V22.76h-.17V7.24Z"/><path d="M15.34,22.76h0V7.24h0l.17,15.52h-.17Zm0-15.52V22.76h0V7.24Zm-.52,15.52h-.17V7.24h.17V22.76Zm0-15.52-.17.09V22.76h.17V7.24Z"/><path class="cls-3" d="M7.41,14.66c1-.87,4.48-1.38,7.59-1.38s6.9.6,7.59,1.38v.68C21.9,14.66,19.13,14,15,14s-7.08.69-7.59,1.37v-.68Z"/><path class="cls-3" d="M15,13.79a22,22,0,0,1,5,.51,5.33,5.33,0,0,1,2.76,1v.18A6.8,6.8,0,0,0,20,14.39,28.88,28.88,0,0,0,15,14a27.36,27.36,0,0,0-5,.42c-1,.27-2.42.69-2.6,1.13v-.18c0-.35,1-.77,2.6-1a21.83,21.83,0,0,1,5-.51Zm0-.6a22.39,22.39,0,0,1,5,.42,5.23,5.23,0,0,1,2.76,1.05v.15a5.93,5.93,0,0,0-2.76-1,28.39,28.39,0,0,0-5-.51,26.65,26.65,0,0,0-5,.51c-1,.18-2.6.6-2.6,1v-.15c0-.36,1-.78,2.6-1.05a22.28,22.28,0,0,1,5-.42Z"/><path d="M7.41,15.52h0v-.18c0-.35,1.22-.77,2.6-1.13a32.91,32.91,0,0,1,5-.42,32.91,32.91,0,0,1,5,.42c1.56.36,2.42.69,2.76,1.13v.18A8,8,0,0,0,20,14.39a29.85,29.85,0,0,0-10,0c-1.22.27-2.42.69-2.6,1.13ZM15,14a30.52,30.52,0,0,1,5,.42,8,8,0,0,1,2.76,1v-.09a5.33,5.33,0,0,0-2.76-1,24.36,24.36,0,0,0-5-.42,24.36,24.36,0,0,0-5,.42c-1.56.36-2.6.69-2.6,1h0a7.6,7.6,0,0,1,2.6-.95A30.52,30.52,0,0,1,15,14Zm-7.59.84h0v-.15c0-.36,1.22-.78,2.6-1.05a32.66,32.66,0,0,1,5-.51,24.25,24.25,0,0,1,5,.51c1.56.27,2.42.6,2.76,1.05v.15a6.76,6.76,0,0,0-2.76-1,30.47,30.47,0,0,0-5-.44,30.47,30.47,0,0,0-5,.44c-1.22.18-2.6.69-2.6,1ZM15,13.28a30.52,30.52,0,0,1,5,.42,8.39,8.39,0,0,1,2.76,1.11v-.15A7.46,7.46,0,0,0,20,13.61a23.7,23.7,0,0,0-4.81-.42,25.06,25.06,0,0,0-5.17.42c-1.56.36-2.6.69-2.6,1.05v.08a7.5,7.5,0,0,1,2.6-1,30.52,30.52,0,0,1,5-.42Z"/><path class="cls-3" d="M15,9.82c2.75,0,5.35.35,6.37,1l.53.69c-1-.6-3.79-1.13-6.9-1a17.65,17.65,0,0,0-6.72,1l.51-.78c1-.6,3.79-.95,6.21-.95Z"/><path class="cls-4" d="M21.55,10.86l.17.51Z"/><path class="cls-3" d="M15,10.42a22.42,22.42,0,0,1,4.48.35,6.49,6.49,0,0,1,2.42.69l.16.18a10.74,10.74,0,0,0-2.58-.78A23.91,23.91,0,0,0,15,10.6a23.91,23.91,0,0,0-4.48.26,10.48,10.48,0,0,0-2.42.78l.18-.27a8.19,8.19,0,0,1,2.24-.6A23.41,23.41,0,0,1,15,10.42Zm0-.6a16.33,16.33,0,0,1,4.31.27,5.71,5.71,0,0,1,2.24.68l.17.27a10.14,10.14,0,0,0-2.59-.87A27.91,27.91,0,0,0,15,9.91a21.67,21.67,0,0,0-4.31.35,12.17,12.17,0,0,0-2.06.6l.16-.17a5.21,5.21,0,0,1,1.9-.6A21.32,21.32,0,0,1,15,9.82Z"/><path d="M22.06,11.64H21.9a18.62,18.62,0,0,0-2.42-.78,29.09,29.09,0,0,0-4.3-.26h-.36a30.46,30.46,0,0,0-4.3.26,16.27,16.27,0,0,0-2.24.78v-.27a9.52,9.52,0,0,1,2.24-.68A28.48,28.48,0,0,1,15,10.42h.18a29.25,29.25,0,0,1,4.3.27,5.1,5.1,0,0,1,2.42.77l.16.18Zm-6.88-1.22H15a20.3,20.3,0,0,0-4.48.35,8.53,8.53,0,0,0-2.24.69v.18a6.26,6.26,0,0,1,2.24-.78,29,29,0,0,1,4.3-.35h.36a27.41,27.41,0,0,1,4.3.35,12,12,0,0,1,2.42.69v-.09a8.93,8.93,0,0,0-2.42-.69,20.68,20.68,0,0,0-4.3-.35Zm6.54.69h0a6.32,6.32,0,0,0-2.59-.85A40.37,40.37,0,0,0,15,9.91a29.16,29.16,0,0,0-4.31.35c-.86.25-1.72.43-2.06.6l.16-.17a3.92,3.92,0,0,1,1.9-.6A19.82,19.82,0,0,1,15,9.73h.18a18.26,18.26,0,0,1,4.13.36,4.83,4.83,0,0,1,2.24.68l.17.27v.07ZM15,9.91a26.25,26.25,0,0,1,4.13.26,5.71,5.71,0,0,1,2.42.78v-.18a6.24,6.24,0,0,0-2.24-.68,18.82,18.82,0,0,0-4.13-.27H15a29,29,0,0,0-4.31.27,7.88,7.88,0,0,0-1.9.6l-.16.17a17.07,17.07,0,0,1,2.06-.69A30.61,30.61,0,0,1,15,9.91Z"/><path class="cls-3" d="M18.79,18.1A19.63,19.63,0,0,0,15,17.83c-4.66.09-6.21,1-6.37,1.31l-.35-.53c1.2-.94,3.79-1.47,6.72-1.38a23.45,23.45,0,0,1,4.13.36l-.34.51Z"/><path class="cls-4" d="M8.45,18.61l.18.35Z"/><path class="cls-3" d="M15,17.74a17,17,0,0,1,3.79.36v.17A26.13,26.13,0,0,0,15,17.92a16.06,16.06,0,0,0-5,.69,1.77,1.77,0,0,0-1.38.69l-.18-.16c0-.18.69-.53,1.56-.69a13.85,13.85,0,0,1,5-.71Zm0-.68a30.47,30.47,0,0,1,4.13.44v.17A18.75,18.75,0,0,0,15,17.32a17.92,17.92,0,0,0-5.17.6c-.51.18-1.55.53-1.55.69H8.1a2.76,2.76,0,0,1,1.73-.87A18,18,0,0,1,15,17.06Z"/><path d="M8.63,19.3h0l-.18-.16c0-.18.69-.53,1.56-.87a18.46,18.46,0,0,1,5-.53,18.09,18.09,0,0,1,3.79.36v.17A22.53,22.53,0,0,0,15.18,18h-.36a19.53,19.53,0,0,0-4.81.6,1.77,1.77,0,0,0-1.38.69ZM15,17.74a15.49,15.49,0,0,0-5,.71,3.08,3.08,0,0,0-1.56.69l.18.16A2.09,2.09,0,0,1,10,18.61a13.68,13.68,0,0,1,4.81-.69h.36a21.76,21.76,0,0,1,3.61.35V18.1A18.09,18.09,0,0,0,15,17.74Zm-6.72.87H8.1c.18-.34,1.38-.78,1.73-.87A17.9,17.9,0,0,1,15,17.06a21.34,21.34,0,0,1,4.13.35v.26A21,21,0,0,0,15,17.32a18.17,18.17,0,0,0-5.17.6c-.69.18-1.55.53-1.55.69ZM15,17.14a22.12,22.12,0,0,0-5.17.6c-1,.36-1.55.53-1.55.87h0c.17-.34,1.37-.69,1.55-.78a22.12,22.12,0,0,1,5.17-.6,30.75,30.75,0,0,1,4.13.44v-.26A31.82,31.82,0,0,0,15,17.14Z"/><path d="M13.62,17.59V17.5h.18v.09h0v.08h-.18v-.08Zm0,0v.08h.18v-.08h0V17.5h-.18v.09Zm.34,0h0v0h0V17.5h0v.09h0V17.5h0v.09h0v.08h0v-.08Zm0,0h0v0h0V17.5h0v.09Zm0,0h0V17.5h0v.09Zm0,.08h.18v-.08H14l.18-.09h0v.17H14Zm.18-.08h0V17.5h0v.09Zm0,0V17.5h.17v.09h0V17.5h0v.09h0V17.5h-.17v.09Zm.35,0h-.18V17.5h.18v.09Zm-.18-.09h0Zm.18.09V17.5h0v.09h0V17.5h0v.09Zm.16,0h0V17.5h0v-.09h0v.09h0v.09Zm0-.09h0v.09h0V17.5Zm0,0v.09h0V17.5Zm.17.09h0V17.5h0v.09Zm0-.09Zm0,.09v-.18H15l-.18.18Zm.18-.18Zm0,.18V17.5h0v.09Zm0,0V17.5h.18l-.18.09h0V17.5h0v.09h0V17.5h0v.09Zm.18-.18Zm0,.18V17.5h0v.09Zm0,0V17.5h.16v.09h-.16V17.5h0v.09Zm.16,0h0V17.5h0v.09Zm0-.09h0v.09h0V17.5Zm0,.09h0V17.5h0l.17-.09h0l-.17.18Zm0-.09v.09h0V17.5Zm.17,0h0v.09h0V17.5Zm0,0v.09h0V17.5Zm.18.09V17.5h0v.09Zm0,0h0V17.5h.17v.09h-.17Zm0-.09Zm.17.09h0V17.5h0v.09Zm0,.08V17.5H16v.09h-.16v.08Zm.16-.08h0V17.5h0v.09Zm0,0h0V17.5h0v.09Zm0-.09v0Zm0,0v-.09h.18v.09Zm0,.09V17.5h.18l-.18.09Zm.18,0h0v0h0V17.5h0v0h0v.09Zm0,0v.08h0v-.08h.18V17.5h0v.09h0v.08H16.2v-.08Zm.18,0h0Zm0,0V17.5h0v.09h0v.08h0v-.08Zm0,0h0V17.5h0v.09Zm.17.08V17.5h.18v.09h-.18v.08Zm0-.08h0v0h0v0Zm.18.08V17.5h0v0h0v.09h0v.08Zm0-.08V17.5h0v.09h0v.08h0v-.08Zm0,0v.08h0v-.08Zm0-.09Zm0,.24v-.07h0V17.5h.16l-.16.17h0v.07Zm.16-.07h0v-.08h0v.08Zm0-.08Z"/><path d="M17.06,17.67h-.17v-.08h0c0,.08,0,.08.17.08Zm0,0h0v-.08h0V17.5h0v.09h0v.08Zm0,0v-.08h.18v.08h-.18Zm0,0h.18v-.08h-.18v.08Zm.36.07v-.07l-.18.07v-.07h0v-.08h.18v.15Zm-.18-.07h.18v-.08h-.18v.08Zm.18,0h0v.07h0v-.07h0v-.08h0v.08h0v0Zm0,0h0v-.08h0v.08Zm.16,0h0v.07h0v-.07h0v-.08h0v.08h0v-.08h0v.08h0v.07h0v-.07Zm0,0h.17v.07h-.17v-.07Zm.17,0v.07h0v-.07Zm0,.07v-.15h0v.15Zm.18,0h-.18v-.07h0v.07h.18v-.07h0v.07Zm0,0v-.07h.18v.07h0v-.07h0l-.18.07h0v-.07h0v.07Zm.18,0h0v-.07h0v0h0v.07Zm0,0Zm.15,0h0Zm0,0h0Zm0,0Zm.18,0h0v.09h0v-.09Zm0,0Z"/><path class="cls-5" d="M18.79,18.27h0l.34-.86h0s.18.09,0,.09l-.34.77Z"/><path class="cls-3" d="M8.63,10.69c2.4,0,13.09,6.63,13.27,7.92l-.71,1C20.86,18.1,9.83,11.73,8.1,11.82l.53-1.13Z"/><path d="M21.19,19.47l.53-.86h0l-.53.86Z"/><polygon points="8.1 11.81 8.63 10.77 8.63 10.77 8.63 10.77 8.1 11.81 8.1 11.81"/><path class="cls-3" d="M8.1,11.82c.35-.36,3.46,1.11,6.9,3.08,3.26,2.09,6.55,4.4,6.19,4.75v.18H21s.16-.18,0-.18c-.17-.51-2.41-2.33-6-4.57-3.79-2.15-6.72-3.53-7.08-3.19l.18-.07Zm13.8,6.79c.33-.51-2.77-2.75-6.39-5-3.62-2.06-6.37-3.35-6.88-2.92l-.18.17h0a.84.84,0,0,1,.34-.09c.86,0,3.28,1.12,6.72,3.11,1.55.78,6.39,3.86,6.21,4.73v.17l.18-.17Z"/><path d="M21,19.83h0v-.18c-.17-.51-2.59-2.42-6-4.57-3.11-1.8-6-3.19-6.9-3.19,0,0-.18,0-.18.08v-.08h0l.18-.07c0-.09,0-.09.18-.09.86,0,3.79,1.37,6.72,3.17s6,4.06,6.19,4.57v.36ZM8.1,11.89c.87,0,3.79,1.39,6.9,3.1,3.62,2.24,5.86,4.15,6,4.66h.16v-.18C21,19,17.93,16.72,15,14.9s-5.86-3.17-6.72-3.17c-.18,0-.18.09-.18.09l-.18.07Zm13.62,6.89h0v-.17c0-.87-4.83-3.95-6.21-4.73-3.44-2-5.86-3.11-6.72-3.11a.84.84,0,0,0-.34.09h0a.84.84,0,0,1,.34-.09c.86,0,3.28,1.12,6.72,3,1,.6,6.39,3.95,6.39,4.82h0c.16-.51-2.59-2.67-6.39-5-3.95-2.24-6.37-3.26-6.88-2.92l-.18.17h0l.18-.17.16-.18c1,0,4.3,1.73,6.72,3.1,3.28,2,6.72,4.4,6.39,5v.17Z"/><path class="cls-6" d="M10.52,15.77A4.1,4.1,0,0,0,11.89,19,4,4,0,0,0,15,20.34,4.31,4.31,0,0,0,18.26,19a4,4,0,0,0,1.4-3.1h0V9.73H10.52v6Z"/><path d="M15,20.34A3.6,3.6,0,0,1,11.89,19a3.64,3.64,0,0,1-1.37-3.19v-6h9.14v6.13a4,4,0,0,1-1.4,3.1A4.07,4.07,0,0,1,15,20.34ZM19.48,9.73h-9v6A4.36,4.36,0,0,0,11.89,19,4.33,4.33,0,0,0,15,20.34,4.61,4.61,0,0,0,18.26,19a3.9,3.9,0,0,0,1.22-3.1V9.73Z"/><path class="cls-5" d="M10.69,15.86h0a5,5,0,0,0,1.2,3.1A5,5,0,0,0,15,20.16,4.62,4.62,0,0,0,18.11,19a4.4,4.4,0,0,0,1.37-3.1h0V9.91H10.69v5.95Zm6.89-4.13v4.13h0v.35a2.7,2.7,0,0,1-.69,1.53,2.53,2.53,0,0,1-1.89.71,2.35,2.35,0,0,1-1.73-.78,2.65,2.65,0,0,1-.86-1.81V11.73Z"/><path d="M15,20.16A4.4,4.4,0,0,1,11.89,19a4.16,4.16,0,0,1-1.2-3.1V9.91h8.79v5.95A4.4,4.4,0,0,1,18.11,19,4.16,4.16,0,0,1,15,20.16ZM19.48,9.91H10.69v5.95a5.17,5.17,0,0,0,1.2,3.1A5.38,5.38,0,0,0,15,20.16,5,5,0,0,0,18.11,19a4.4,4.4,0,0,0,1.37-3.1V9.91ZM15,18.45a2,2,0,0,1-1.73-.71,2.17,2.17,0,0,1-.86-1.88V11.64h5.17l.17,3.79v.43a.6.6,0,0,0-.17.35,1.9,1.9,0,0,1-.69,1.53,2.53,2.53,0,0,1-1.89.71Zm-2.59-6.72v4.13a2.65,2.65,0,0,0,.86,1.81,1.88,1.88,0,0,0,1.73.78,2.35,2.35,0,0,0,1.89-.78,2.57,2.57,0,0,0,.69-1.46V11.73Z"/><path class="cls-7" d="M14.49,15.17h0a.65.65,0,0,0,.16.35c0,.16.17.25.35.25a1.12,1.12,0,0,0,.51-.18,1,1,0,0,0,.18-.42V14.3h-1.2v.87Z"/><polygon class="cls-6" points="15.34 14.57 15.34 14.66 15.34 14.74 15.51 14.66 15.34 14.57 15.34 14.57"/><path class="cls-6" d="M15,14.81v.27c.18,0,.18-.09.18-.09s0-.18-.18-.18Z"/><path class="cls-6" d="M15.34,15.17v.17h.17c0-.08-.17-.17-.17-.17Z"/><path class="cls-6" d="M14.65,15.17v.17h.17c0-.08,0-.17-.17-.17Z"/><path class="cls-6" d="M14.65,14.57v.17c.17,0,.17-.08.17-.08s0-.09-.17-.09Z"/><path class="cls-7" d="M14.49,17.14h0a.53.53,0,0,0,.16.45c0,.15.17.15.35.15a.67.67,0,0,0,.51-.15c0-.18.18-.27.18-.45v-.77h-1.2v.77Z"/><path class="cls-6" d="M15.34,16.54v.18l.17-.09c0-.09-.17-.09-.17-.09Z"/><path class="cls-6" d="M15,16.81v.25h.18c0-.16,0-.25-.18-.25Z"/><path class="cls-6" d="M15.34,17.14v.27s.17-.09.17-.18l-.17-.09Z"/><path class="cls-6" d="M14.65,17.14v.27c.17,0,.17-.09.17-.18s0-.09-.17-.09Z"/><path class="cls-6" d="M14.65,16.54v.18h.17c0-.18,0-.18-.17-.18Z"/><path class="cls-7" d="M12.94,15.17h0c0,.17,0,.35.15.42,0,.09.18.18.36.18a1.12,1.12,0,0,0,.51-.18V14.3h-1v.87Z"/><polygon class="cls-6" points="13.8 14.57 13.62 14.66 13.8 14.74 13.96 14.66 13.8 14.57 13.8 14.57"/><path class="cls-6" d="M13.45,14.81s-.18.09-.18.18l.18.09c.17,0,.17-.09.17-.09s0-.18-.17-.18Z"/><path class="cls-6" d="M13.8,15.17s-.18.09-.18.17H14c0-.08-.16-.17-.16-.17Z"/><path class="cls-6" d="M13.09,15.17v.17h.18c0-.08,0-.17-.18-.17Z"/><path class="cls-6" d="M13.09,14.57v.17c.18,0,.18-.08.18-.08s0-.09-.18-.09Z"/><path class="cls-7" d="M16,15.17h0c0,.17,0,.35.18.42a1.24,1.24,0,0,0,.53.18l.33-.18a1,1,0,0,0,.18-.42V14.3H16v.87Z"/><path class="cls-6" d="M17.06,14.57c-.17,0-.17.09-.17.09s0,.08.17.08v-.17Z"/><path class="cls-6" d="M16.73,14.81c-.18,0-.18.09-.18.18s0,.09.18.09v-.27Z"/><path class="cls-6" d="M17.06,15.17c-.17,0-.17.09-.17.17h.17v-.17Z"/><path class="cls-6" d="M16.38,15.17s-.18.09-.18.17h.18v-.17Z"/><polygon class="cls-6" points="16.38 14.57 16.2 14.66 16.38 14.74 16.38 14.66 16.38 14.57 16.38 14.57"/><path class="cls-7" d="M14.49,13.19h0c0,.09.16.34.16.42a.59.59,0,0,0,.35.18,1.12,1.12,0,0,0,.51-.18c0-.08.18-.33.18-.42v-.86h-1.2v.86Z"/><polygon class="cls-6" points="15.34 12.59 15.34 12.66 15.34 12.75 15.51 12.66 15.34 12.59 15.34 12.59"/><path class="cls-6" d="M15,12.84v.26c.18,0,.18-.09.18-.09a.17.17,0,0,0-.18-.17Z"/><polygon class="cls-6" points="15.34 13.19 15.34 13.28 15.34 13.35 15.51 13.28 15.34 13.19 15.34 13.19"/><path class="cls-6" d="M14.65,13.19v.16h.17a.16.16,0,0,0-.17-.16Z"/><path class="cls-6" d="M14.65,12.59v.16c.17,0,.17-.09.17-.09s0-.07-.17-.07Z"/><path class="cls-3" d="M11.21,11.46a.5.5,0,0,1,.35-.51.5.5,0,0,1,.33.51Z"/><path class="cls-3" d="M11,11l-.16.51h.34a.5.5,0,0,1,.35-.51.61.61,0,0,1,.33.51h.36L12.07,11Z"/><path d="M12.25,11.46h-.36a.43.43,0,0,0-.33-.42.37.37,0,0,0-.35.42h-.34V11h1.2l.18.51ZM11.56,11H11l-.16.51h.34c0-.35.17-.51.35-.51Zm0,0a.61.61,0,0,1,.33.51h.36L12.07,11Z"/><polygon class="cls-3" points="10.87 11.46 12.25 11.46 12.25 11.55 12.25 11.55 10.87 11.55 10.87 11.55 10.87 11.46 10.87 11.46"/><path d="M12.25,11.55H10.87v-.09h1.38v.09Zm-1.38-.09v.09h1.38l-1.38-.09Z"/><path class="cls-3" d="M11.38,11.46a.38.38,0,0,1,.18-.35.39.39,0,0,1,.16.35Z"/><path d="M11.72,11.46h-.34a.38.38,0,0,1,.18-.35.39.39,0,0,1,.16.35Zm-.16-.26s-.18,0-.18.26h.34c0-.26-.16-.26-.16-.26Z"/><polygon class="cls-3" points="10.87 10.77 12.25 10.77 12.25 10.86 12.25 10.86 10.87 10.86 10.87 10.86 10.87 10.77 10.87 10.77"/><path d="M12.25,10.86H10.87v-.09h1.38v.09Zm-1.38-.09v.09h1.38l-1.38-.09Z"/><path class="cls-3" d="M10.87,10.86h1.38c0,.09,0,.09-.18.09h-1.2v-.09Z"/><path d="M12.07,11h-1.2v-.09h1.38c0,.09,0,.09-.18.09Zm-1.2-.09V11h1.2c.18,0,.18,0,.18-.09Z"/><polygon class="cls-3" points="11.38 10.09 11.38 10.09 11.38 10.17 11.56 10.17 11.56 10.09 11.56 10.09 11.56 10.17 11.72 10.17 11.72 10.09 11.72 10.09 11.72 10.17 11.72 10.26 11.38 10.26 11.38 10.17 11.38 10.09 11.38 10.09"/><path d="M11.72,10.26h-.34l-.17-.09v-.08l.17-.09v.17l.18-.08h0v.08l.16-.08h-.16l.16-.09v.26Zm-.34-.17h0v.08l.34.09v-.17h0v.08h-.16v-.08h0v.08h-.18v-.08Z"/><polygon class="cls-3" points="11.72 10.26 11.72 10.77 11.38 10.77 11.38 10.26 11.72 10.26 11.72 10.26"/><path d="M11.72,10.77h-.34v-.51l.34-.09v.6Zm0-.51h-.34v.51h.34v-.51Z"/><polygon class="cls-3" points="11.72 10.26 11.89 10.26 11.89 10.35 11.89 10.35 11.89 10.26 11.89 10.26 11.89 10.35 12.07 10.35 12.07 10.26 12.25 10.26 12.25 10.42 12.07 10.51 11.72 10.51 11.72 10.42 11.72 10.26 11.72 10.26"/><path d="M12.07,10.51h-.35v-.25h.17v.09h0v-.09h0l.18.09h0v-.09h.18v.25Zm-.18-.25-.17.09v.07l.35.09v-.16h-.18v0h0v-.09Z"/><polygon class="cls-3" points="12.07 10.51 12.07 10.77 11.72 10.77 11.89 10.51 12.07 10.51"/><path d="M12.07,10.77h-.35v-.26h.35v.26Zm0-.26h-.18v.26h.18v-.26Z"/><path class="cls-3" d="M10.87,10.26H11v.09h0v-.09h.18v.09h0v-.09h.17v.16s0,.09-.17.09h-.34v-.25Z"/><path d="M11.21,10.51h-.34v-.25H11v.09h0v-.09h.18v.09h0v-.09h.17v.25ZM11,10.26l-.16.09v.07l.34.09.17-.09v-.16l-.17.09h0v-.09l-.18.09h.18l-.18.07v-.16Z"/><rect class="cls-3" x="11.03" y="10.51" width="0.18" height="0.26"/><path d="M11.21,10.77H11v-.26h.18v.26Zm0-.26H11v.26h.18v-.26Z"/><polygon points="11.03 10.51 11.21 10.51 11.21 10.69 11.03 10.69 11.03 10.51 11.03 10.51"/><path class="cls-3" d="M14.82,10.09H15v.08h0v-.08h0v.08h.18v-.08h.16v.08s0,.09-.16.09h-.36v-.17Z"/><path d="M15.18,10.26h-.36v-.17L15,10v.09h0V10l.18.17v-.08h0l.16-.09v.17l-.16.09ZM15,10.09h-.18v.08l.36.09.16-.09v-.08h-.16v.08H15v-.08h0v.08h0v-.08Z"/><polygon class="cls-3" points="15.18 10.26 15.18 10.77 14.82 10.77 15 10.26 15.18 10.26 15.18 10.26"/><path d="M15.18,10.77h-.36v-.51l.36-.09v.6Zm0-.51H15v.51h.18v-.51Z"/><polygon class="cls-3" points="15.34 10.26 15.34 10.26 15.34 10.35 15.34 10.35 15.34 10.26 15.51 10.26 15.51 10.35 15.51 10.35 15.51 10.26 15.69 10.26 15.69 10.42 15.69 10.51 15.34 10.51 15.34 10.42 15.34 10.26 15.34 10.26"/><path d="M15.69,10.51h-.35l-.16-.09v-.16h.16v.09h0v-.09h.17v.09h0v-.09h.18v.25Zm-.35-.25v.16l.35.09v-.25l-.18.09h0v-.09l-.17.09h0v-.09Z"/><rect class="cls-3" x="15.34" y="10.51" width="0.35" height="0.26"/><path d="M15.34,10.77v-.26h.35v.26Zm.17-.26h-.17v.26h.35l-.18-.26Z"/><polygon class="cls-3" points="14.49 10.26 14.49 10.26 14.49 10.35 14.65 10.35 14.65 10.26 14.65 10.26 14.65 10.35 14.65 10.35 14.65 10.26 14.82 10.26 14.82 10.42 14.82 10.51 14.49 10.51 14.49 10.42 14.49 10.26 14.49 10.26"/><path d="M14.82,10.51h-.33v-.25h0v.09h.16v-.09h0v.09h0v-.09h.17v.25Zm-.33-.25v.16l.33.09v-.25l-.17.09h.17l-.17.07v-.07h0l-.16.07v-.16Z"/><rect class="cls-3" x="14.49" y="10.51" width="0.34" height="0.26"/><path d="M14.82,10.77h-.33v-.26h.33v.26Zm0-.26h-.33v.26h.33v-.26Z"/><path class="cls-3" d="M14.65,11.46A.5.5,0,0,1,15,11a.5.5,0,0,1,.34.51Z"/><path class="cls-3" d="M14.49,11v.51h.16A.5.5,0,0,1,15,11a.61.61,0,0,1,.34.51h.35V11Z"/><path d="M15.69,11.46h-.35A.43.43,0,0,0,15,11a.37.37,0,0,0-.35.42h-.16V11h1.2v.51ZM15,11h-.51v.51h.16A.44.44,0,0,1,15,11Zm0,0a.47.47,0,0,1,.34.51h.35V11Z"/><polygon class="cls-3" points="14.31 11.46 15.69 11.46 15.69 11.55 15.69 11.55 14.31 11.55 14.31 11.55 14.31 11.46 14.31 11.46"/><path d="M15.69,11.55H14.31v-.09h1.38v.09Zm-1.38-.09v.09h1.38l-1.38-.09Z"/><path class="cls-3" d="M14.82,11.46a.38.38,0,0,1,.18-.35.38.38,0,0,1,.18.35Z"/><path d="M15.34,11.46h-.52a.38.38,0,0,1,.18-.35s.34.09.34.35ZM15,11.2s-.18,0-.18.26h.36c0-.26-.18-.26-.18-.26Z"/><path class="cls-3" d="M14.49,10.77h1.2v.09H14.31s0-.09.18-.09Z"/><path d="M15.69,10.86H14.31s0-.09.18-.09h1.2v.09Zm-1.2-.09v.09h1.2l-1.2-.09Z"/><path class="cls-3" d="M14.49,10.86h1.2V11h-1.2s-.18,0-.18-.09Z"/><path d="M15.69,11h-1.2s-.18,0-.18-.09h1.38V11Zm-1.2-.09V11h1.2v-.09Z"/><polygon points="15.34 10.51 15.51 10.51 15.51 10.69 15.34 10.69 15.34 10.51 15.34 10.51"/><path class="cls-3" d="M18.26,10.09h.18v.08h0v-.08h.18v.08h0v-.08h.17v.17h-.35c-.18,0-.18-.09-.18-.09v-.08Z"/><path d="M18.79,10.26h-.53v-.17l.18-.09v.09h0l.18-.09v.09h0l.17-.09v.26Zm-.35-.17h-.18v.08l.53.09v-.17h-.17v.08h0v-.08h-.18v.08h0v-.08Z"/><polygon class="cls-3" points="18.62 10.26 18.79 10.77 18.44 10.77 18.44 10.26 18.62 10.26"/><path d="M18.79,10.77h-.35v-.51l.18-.09.17.6Zm-.17-.51h-.18v.51h.18v-.51Z"/><polygon class="cls-3" points="18.79 10.26 18.79 10.26 18.79 10.35 18.79 10.35 18.79 10.26 18.95 10.26 18.95 10.35 19.13 10.35 19.13 10.26 19.13 10.26 19.13 10.42 19.13 10.51 18.79 10.51 18.79 10.42 18.79 10.26 18.79 10.26"/><path d="M19.13,10.51h-.34v-.25h0v.09h0v-.09H19v.09h.18L19,10.26h.18v.25Zm-.34-.25v.16l.34.09v-.16h0l-.18.07v-.16l-.16.09h0v-.09Z"/><rect class="cls-3" x="18.79" y="10.51" width="0.34" height="0.26"/><path d="M19.13,10.77h-.34v-.26h.34v.26Zm0-.26h-.34v.26h.34v-.26Z"/><polygon class="cls-3" points="17.93 10.26 18.11 10.26 18.11 10.35 18.11 10.35 18.11 10.26 18.11 10.26 18.11 10.35 18.26 10.35 18.26 10.26 18.26 10.26 18.26 10.51 18.26 10.51 17.93 10.51 17.93 10.42 17.93 10.26 17.93 10.26"/><path d="M18.26,10.51h-.33v-.25h.18v.09h0v-.09h0v.09h.15l-.15-.09h.15v.25Zm-.33-.25v.16l.33.09h0v-.16h0l-.15.07v-.07h0v.07l-.18-.16Z"/><rect class="cls-3" x="17.93" y="10.51" width="0.34" height="0.26"/><path d="M18.26,10.77h-.33v-.26h.33v.26Zm0-.26h-.33v.26h.33v-.26Z"/><path class="cls-3" d="M18.11,11.46c.15-.42.33-.51.33-.51s.35.09.35.6l-.68-.09Z"/><path class="cls-3" d="M17.93,11v.51h.33c0-.42.18-.51.18-.51a.61.61,0,0,1,.35.51h.34V11Z"/><path d="M19.13,11.46h-.34a.44.44,0,0,0-.35-.42s-.18,0-.18.42h-.33V11h1.2v.51ZM18.44,11h-.51v.51h.33a.28.28,0,0,1,.18-.42Zm.18,0a.72.72,0,0,1,.17.51h.34V11Z"/><path class="cls-3" d="M17.93,11.46h1.2v.09H17.75s0-.09.18-.09Z"/><path d="M19.13,11.55H17.75s0-.09.18-.09h1.2l.18.09Zm-1.2-.09v.09h1.2l-1.2-.09Z"/><path class="cls-3" d="M18.26,11.46a.38.38,0,0,1,.18-.35s.35.09.35.35Z"/><path d="M18.79,11.46h-.53a.38.38,0,0,1,.18-.35s.35.09.35.35Zm-.35-.26v.26h.18c0-.26-.18-.26-.18-.26Z"/><polygon class="cls-3" points="17.93 10.77 19.13 10.77 19.13 10.86 19.13 10.86 17.93 10.86 17.75 10.86 17.93 10.77 17.93 10.77"/><path d="M19.13,10.86H17.75l.18-.09h1.2v.09Zm-1.2-.09v.09h1.2l-1.2-.09Z"/><path class="cls-3" d="M17.93,10.86h1.2V11h-1.2v-.09Z"/><path d="M19.13,11h-1.2v-.09h1.2V11Zm-1.2-.09V11h1.2v-.09Z"/><path d="M18.44,10.42c0-.07.18-.07.18,0v.09h-.18v-.09Z"/><path d="M18.79,10.6c0-.09.16-.09.16,0v.09h-.16V10.6Z"/><polygon class="cls-3" points="11.38 13.62 11.38 13.62 11.38 13.62 11.56 13.62 11.56 13.62 11.56 13.62 11.56 13.62 11.72 13.62 11.72 13.62 11.72 13.62 11.72 13.79 11.72 13.79 11.38 13.79 11.38 13.79 11.38 13.62 11.38 13.62"/><path d="M11.72,13.79h-.51v-.18h.51v.18Zm-.34-.18h0v.18h.34v-.18h0l-.16.09v-.09h0l-.18.09v-.09Z"/><polygon class="cls-3" points="11.72 13.79 11.72 14.3 11.38 14.3 11.38 13.79 11.72 13.79 11.72 13.79"/><path d="M11.72,14.3h-.34v-.51h.34v.51Zm0-.51-.34.09v.42h.34v-.51Z"/><polygon class="cls-3" points="11.72 13.88 11.89 13.88 11.89 13.97 11.89 13.97 11.89 13.88 11.89 13.88 11.89 13.97 12.07 13.97 12.07 13.88 12.25 13.88 12.25 13.97 12.07 14.06 11.72 14.06 11.72 13.97 11.72 13.88 11.72 13.88"/><path d="M12.07,14.06h-.35v-.18h.17V14h0v-.09h0l.18.09h0v-.09h.18V14l-.18.09Zm-.18-.18h-.17V14l.35.09v-.18h0V14h-.18v-.09h0V14h0v-.09Z"/><rect class="cls-3" x="11.89" y="14.06" width="0.18" height="0.25"/><path d="M12.07,14.3h-.18l-.17-.24.35-.09v.33Zm0-.24h-.18v.24h.18v-.24Z"/><path class="cls-3" d="M10.87,13.88H11V14h0v-.09h.18V14h0v-.09h.17V14s0,.09-.17.09H11c-.16,0-.16-.09-.16-.09v-.09Z"/><path d="M11.21,14.06h-.34v-.18H11V14h0v-.09h.18V14h0v-.09h.17V14l-.17.09ZM11,13.88h-.16V14l.34.09.17-.09v-.09h-.17V14h0v-.09H11l.18.09H11v-.09Z"/><rect class="cls-3" x="11.03" y="14.06" width="0.18" height="0.25"/><path d="M11.21,14.3H11v-.24l.18-.09v.33Zm0-.24H11v.24h.18v-.24Z"/><path class="cls-3" d="M11.21,15a.65.65,0,0,1,.35-.51.65.65,0,0,1,.33.51Z"/><path class="cls-3" d="M11,14.57l-.16.42h.34a.46.46,0,0,1,.35-.42.45.45,0,0,1,.33.42h.36l-.18-.51-1,.09Z"/><path d="M12.25,15h-.36a.45.45,0,0,0-.33-.42.46.46,0,0,0-.35.42h-.34v-.51h1.2l.18.51Zm-.69-.42H11l-.16.42h.34c0-.33.17-.42.35-.42Zm0,0a.45.45,0,0,1,.33.42h.36l-.18-.51-.51.09Z"/><polygon class="cls-3" points="10.87 14.99 12.25 14.99 12.25 15.08 12.25 15.08 10.87 15.08 10.87 15.08 10.87 14.99 10.87 14.99"/><path d="M12.25,15.17H10.87V15h1.38v.18ZM10.87,15v.09h1.38L10.87,15Z"/><path class="cls-3" d="M11.38,15a.35.35,0,0,1,.18-.33.35.35,0,0,1,.16.33Z"/><path d="M11.72,15h-.34a.35.35,0,0,1,.18-.33.35.35,0,0,1,.16.33Zm-.16-.33a.35.35,0,0,0-.18.33h.34a.35.35,0,0,0-.16-.33Z"/><polygon class="cls-3" points="10.87 14.3 12.25 14.3 12.25 14.3 12.25 14.39 10.87 14.39 10.87 14.3 10.87 14.3 10.87 14.3"/><path d="M12.25,14.39H10.87V14.3h1.38v.09Zm-1.38-.09v.09h1.38V14.3Z"/><path class="cls-3" d="M10.87,14.39h1.2c.18,0,.18,0,.18.09s0,.09-.18.09h-1.2v-.18Z"/><path d="M12.07,14.57h-1.2v-.18h1.2c.18,0,.18,0,.18.09s0,.09-.18.09Zm-1.2-.18v.09h1.38l-1.38-.09Z"/><path d="M11,14.13c0-.07.18-.07.18,0v.08H11v-.08Z"/><path class="cls-3" d="M18.11,17.41h0v.09h.15v.09l.18.08-.18.07h0l-.15-.24c-.18,0-.18,0,0-.09Z"/><path d="M18.26,17.74h0l-.33-.24v-.09h.18v.09h0v-.09l.15.09v.09l.18.08-.18.07Zm-.15-.33v.09l.15.24h0l.18-.07-.18-.08V17.5h-.15v-.09Z"/><polygon class="cls-3" points="18.26 17.74 17.93 18.1 17.58 17.83 18.11 17.59 18.26 17.74"/><path d="M17.93,18.1l-.35-.18.53-.42.15.24-.33.36Zm.18-.51-.53.33.35.18.18-.36v-.15Z"/><polygon class="cls-3" points="18.26 17.83 18.26 17.83 18.26 17.92 18.26 18.01 18.26 17.92 18.44 18.01 18.44 18.1 18.44 18.1 18.44 18.1 18.44 18.1 18.44 18.27 18.44 18.27 18.11 18.01 18.11 17.92 18.26 17.83 18.26 17.83"/><path d="M18.44,18.27h-.18L18.11,18v-.09l.15-.18v.18l.18.09v.09h0v.17Zm-.18-.44-.15.09.33.35h0V18.1h-.18l.18-.09-.18-.09v-.09Z"/><polygon class="cls-3" points="18.26 18.27 18.11 18.45 17.93 18.27 18.11 18.01 18.26 18.27 18.26 18.27"/><path d="M18.11,18.45l-.18-.18.18-.26.33.26-.33.18Zm0-.44-.18.26.18.18.15-.18L18.11,18Z"/><polygon class="cls-3" points="17.58 17.23 17.75 17.32 17.75 17.41 17.75 17.41 17.75 17.41 17.75 17.41 17.75 17.41 17.75 17.5 17.93 17.41 17.93 17.5 17.75 17.67 17.75 17.67 17.58 17.41 17.58 17.41 17.58 17.23 17.58 17.23"/><path d="M17.75,17.67h0l-.17-.26h0v-.18l.17.09v.09h0v.09h0l.18-.09v.09l-.18.17Zm-.17-.44v.18l.17.26h0l.18-.17h-.18v-.09h-.17l.17-.09-.17-.09Z"/><polygon class="cls-3" points="17.75 17.67 17.58 17.83 17.42 17.59 17.58 17.41 17.75 17.67"/><path d="M17.58,17.83l-.16-.16.16-.26.17.26-.17.16Zm0-.42-.16.26.16.07.17-.07-.17-.26Z"/><path class="cls-3" d="M17.06,18.27c.36-.26.52-.17.52-.17a.61.61,0,0,1-.16.68l-.36-.51Z"/><path class="cls-3" d="M17.24,17.74l-.51.36.33.17c.36-.26.52-.17.52,0,0,0,.17.18-.16.51l.33.18.36-.35-.87-.87Z"/><path d="M17.75,19l-.33-.18c.33-.33.16-.51.16-.51h0l-.16-.17c-.18,0-.18.17-.36.17l-.33-.17.51-.36.87.87-.36.35Zm-.17-.69h.17c0,.18-.17.34-.33.51l.33.18.36-.35-.53-.34Zm-.34-.53-.35.36.17.17a.67.67,0,0,1,.52-.17l-.34-.36Z"/><polygon class="cls-3" points="16.73 18.1 17.75 18.96 17.75 18.96 17.58 18.96 16.73 18.1 16.73 18.1 16.73 18.1 16.73 18.1"/><path d="M17.75,19.14,17.58,19l-.85-.86h0V18l1,.95h0v.18Zm-1-1,1,.86h0l-1-.86Z"/><path class="cls-3" d="M17.06,18.27h.36a.25.25,0,0,1,0,.34l-.36-.34Z"/><path d="M17.42,18.61l-.36-.16c.36-.35.36-.18.36-.18.16,0,.16.18,0,.34Zm0-.34a.56.56,0,0,0-.36.18l.36.16a.25.25,0,0,0,0-.34Z"/><path class="cls-3" d="M17.42,17.59l.69.86s.15,0,0,.16h0l-.87-.94v-.08Z"/><path d="M18.11,18.61h0l-.87-.94v-.08h.18l.84.86-.15.16Zm-.87-1v.08l.87.94h0l-.87-1Z"/><path class="cls-3" d="M17.24,17.67l.87.94h0l-.87-.87h0v-.07Z"/><path d="M18.11,18.61h0l-.87-.87c-.18,0-.18,0,0-.07h0l.87.78v.16Zm-.87-.94v.07l.87.87h0l-.87-.94Z"/><path d="M17.93,17.74h.18l-.18.09v-.09Z"/><path d="M18.11,18.1s.15,0,0,.17h0V18.1Z"/><polygon points="17.58 17.59 17.58 17.59 17.58 17.67 17.42 17.67 17.58 17.59 17.58 17.59"/><polygon class="cls-3" points="18.26 13.62 18.44 13.62 18.44 13.62 18.44 13.62 18.44 13.62 18.62 13.62 18.62 13.62 18.62 13.62 18.62 13.62 18.79 13.62 18.79 13.79 18.79 13.79 18.26 13.79 18.26 13.79 18.26 13.62 18.26 13.62"/><path d="M18.79,13.79h-.53v-.18h.53v.18Zm-.35-.18h-.18v.18h.53v-.18h-.17v.09l-.18-.09h0v0Z"/><rect class="cls-3" x="18.44" y="13.79" width="0.18" height="0.51"/><path d="M18.79,14.3h-.35v-.51h.18l.17.51Zm-.17-.51-.18.09v.42h.18v-.51Z"/><polygon class="cls-3" points="18.79 13.88 18.79 13.88 18.79 13.97 18.79 13.97 18.79 13.88 18.95 13.88 18.95 13.97 18.95 13.97 18.95 13.88 19.13 13.88 19.13 13.97 19.13 14.06 18.79 14.06 18.79 13.97 18.79 13.88 18.79 13.88"/><path d="M19.13,14.06h-.34v-.18h0V14h0v-.09H19V14h0v-.09h.18v.18Zm-.34-.18h0V14l.34.09v-.18H19l.18.09H19v-.09h-.16V14h0v-.09Z"/><rect class="cls-3" x="18.79" y="14.06" width="0.34" height="0.25"/><path d="M19.13,14.3h-.34v-.24l.34-.09v.33Zm0-.24h-.34v.24h.34v-.24Z"/><polygon class="cls-3" points="17.93 13.88 17.93 13.88 17.93 13.97 18.11 13.97 18.11 13.88 18.11 13.88 18.11 13.97 18.26 13.97 18.26 13.88 18.26 13.88 18.26 13.97 18.26 14.06 17.93 14.06 17.93 13.97 17.93 13.88 17.93 13.88"/><path d="M18.26,14.06h-.33v-.18h0l.18.09h0v-.09h0V14h.15l-.15-.09h.15v.18Zm-.33-.18h0V14l.33.09v-.18h0V14h-.15v-.09h0V14h-.18v-.09Z"/><rect class="cls-3" x="17.93" y="14.06" width="0.34" height="0.25"/><path d="M17.93,14.3v-.24l.33-.09v.33Zm.33-.24h-.33v.24h.33v-.24Z"/><path class="cls-3" d="M18.11,15a.65.65,0,0,1,.33-.51.65.65,0,0,1,.35.51Z"/><path class="cls-3" d="M17.93,14.57V15h.18a.45.45,0,0,1,.33-.42.46.46,0,0,1,.35.42h.34v-.51l-1.2.09Z"/><path d="M19.13,15h-.34a.46.46,0,0,0-.35-.42s-.18.09-.18.42h-.33v-.51h1.2V15Zm-.69-.42h-.51V15h.18a.45.45,0,0,1,.33-.42Zm.18,0s.17.09.17.42h.34v-.42Z"/><path class="cls-3" d="M17.93,15h1.2v.09H17.75s0-.09.18-.09Z"/><path d="M19.13,15.17h-1.2c-.18,0-.18-.09-.18-.09s0-.09.18-.09h1.2l.18.09-.18.09ZM17.93,15v.09h1.2L17.93,15Z"/><path class="cls-3" d="M18.26,15a.35.35,0,0,1,.18-.33s.35.08.35.33Z"/><path d="M18.79,15h-.53a.35.35,0,0,1,.18-.33s.35.08.35.33Zm-.35-.33V15h.18a.35.35,0,0,0-.18-.33Z"/><polygon class="cls-3" points="17.93 14.3 19.13 14.3 19.13 14.3 19.13 14.39 17.93 14.39 17.75 14.3 17.93 14.3 17.93 14.3"/><path d="M19.13,14.39h-1.2l-.18-.09h1.38v.09Zm-1.2-.09v.09h1.2V14.3Z"/><path class="cls-3" d="M17.93,14.39h1.2v.18h-1.2v-.18Z"/><path d="M19.13,14.57h-1.2v-.18h1.2v.18Zm-1.2-.18v.09h1.2l-1.2-.09Z"/><polygon points="18.44 13.97 18.62 13.97 18.62 14.06 18.44 14.06 18.44 13.97 18.44 13.97"/><path d="M18.79,14.13c0-.07.16-.07.16,0v.08h-.16v-.08Z"/><path class="cls-3" d="M11.72,17.67v0l.17-.08-.17-.09.17-.09v0h.18v.09l-.18.24h-.17v-.07Z"/><path d="M11.89,17.74h-.17v-.15l.17.08v-.08h-.17l.17-.18v0h.18v.09l-.18.24Zm-.17-.15v.08l.17.07h0l.18-.24-.18-.09h0v.09h0v.09h0v.08l-.17-.08Z"/><polygon class="cls-3" points="12.07 17.59 12.41 17.83 12.25 18.1 11.89 17.74 12.07 17.59"/><path d="M12.25,18.1l-.36-.36.18-.24.34.33-.16.27Zm-.18-.51-.18.15.36.36.16-.27-.34-.24Z"/><polygon class="cls-3" points="12.07 17.5 12.25 17.41 12.25 17.5 12.25 17.41 12.25 17.41 12.25 17.41 12.41 17.41 12.41 17.41 12.41 17.32 12.41 17.23 12.58 17.41 12.58 17.41 12.25 17.67 12.25 17.67 12.07 17.5 12.07 17.5"/><path d="M12.25,17.67h0l-.18-.08.18-.18v0h.16v-.18l.17.18h0l-.33.26Zm0-.17v.17h0l.33-.26-.17-.18v.18h-.16v.09Z"/><polygon class="cls-3" points="12.58 17.41 12.76 17.59 12.58 17.83 12.25 17.67 12.58 17.41"/><path d="M12.58,17.83l-.33-.16.33-.26.18.18-.18.24Zm0-.42-.33.26.33.07.18-.15-.18-.18Z"/><polygon class="cls-3" points="11.56 18.1 11.56 18.1 11.72 18.1 11.72 18.1 11.72 18.01 11.72 17.92 11.72 18.01 11.89 17.92 11.72 17.83 11.89 17.83 11.89 17.92 11.89 18.01 11.72 18.27 11.72 18.27 11.56 18.1 11.56 18.1"/><path d="M11.72,18.27h0l-.16-.17h.16v-.18l.17.09v-.09h-.17l.17-.18V18l-.17.26Zm-.16-.17h0l.16.17h0l.17-.26v-.09h0V18l-.17-.09v.18h-.16Z"/><polygon class="cls-3" points="11.89 18.01 12.07 18.27 11.89 18.45 11.72 18.27 11.89 18.01"/><path d="M11.89,18.45l-.17-.18.17-.26.36.26-.36.18Zm0-.44-.17.26.17.18.18-.18L11.89,18Z"/><path class="cls-3" d="M12.58,18.78a.62.62,0,0,1-.17-.68.84.84,0,0,1,.68.17l-.51.51Z"/><path class="cls-3" d="M12.07,18.61l.34.35.17-.35c-.33-.16-.17-.34,0-.51,0,0,.18-.09.51.17l.18-.17-.33-.36-.87.87Z"/><path d="M12.41,19l-.34-.35.87-.87.33.36-.18.17c-.15,0-.33-.17-.51-.17v.17h0s-.33.18,0,.34l-.17.35Zm0-.69-.34.34.34.35.17-.35c-.17,0-.17-.16-.17-.34Zm.17-.17a.6.6,0,0,1,.51.17l.18-.17-.33-.36-.36.36Z"/><path class="cls-3" d="M12.41,19l.86-.86h0l-.86.86Z"/><path d="M12.41,19.14V19h-.16l1-.95v.09h0l-.86,1Zm.86-1-.86.86h0l.86-.86Z"/><path class="cls-3" d="M12.58,18.61v-.34h.36l-.36.34Z"/><path d="M12.58,18.61h0v-.34a.26.26,0,0,1,.36,0l-.36.34Zm0-.34v.34l.36-.34Z"/><path class="cls-3" d="M11.89,18.45l.87-.86s0-.09.18,0v.08l-1,.94h0v-.16Z"/><path d="M11.89,18.61h0v-.16l.87-.86h.18v.08l-1,.94Zm0,0h0l.87-.94.18-.08h-.18l-.87.86v.16Z"/><path class="cls-3" d="M11.89,18.45l.87-.78h.18v.07l-.87.87h-.18v-.16Z"/><path d="M12.07,18.61h-.18v-.16l.87-.78h.18v.07l-.87.87Zm0,0h0l.87-.87v-.07h0l-1,.94h.18Z"/><polygon points="12.07 17.74 12.07 17.74 12.25 17.74 12.07 17.83 12.07 17.74 12.07 17.74"/><polygon points="12.41 17.59 12.58 17.59 12.58 17.67 12.58 17.67 12.41 17.59 12.41 17.59"/></svg>