<svg id="圖層_1" data-name="圖層 1" xmlns="http://www.w3.org/2000/svg" viewBox="0 0 45 30"><defs><style>.cls-1{fill:#2c2c35;}.cls-2{fill:#fff;}</style></defs><rect class="cls-1" width="45" height="30"/><path class="cls-2" d="M21,15.27H15.1v4H22v2.47H12V6.8H22V9.29H15.1v3.56H21Z"/><path class="cls-2" d="M26.38,10.64l.09,1.28a3.88,3.88,0,0,1,3.19-1.49,3.22,3.22,0,0,1,2.63,1,4.77,4.77,0,0,1,.88,3.1v7.17h-3v-7.1a1.93,1.93,0,0,0-.41-1.37,1.87,1.87,0,0,0-1.37-.43,2.06,2.06,0,0,0-1.88,1.07v7.83h-3V10.64Z"/></svg>